<ttFont>
    <TTGlyph name=".notdef" xMin="90" yMin="-220" xMax="692" yMax="1030">
      <contour>
        <pt x="90" y="1030" on="1"/>
        <pt x="692" y="1030" on="1"/>
        <pt x="692" y="-220" on="1"/>
        <pt x="90" y="-220" on="1"/>
      </contour>
      <contour>
        <pt x="597" y="-130" on="1"/>
        <pt x="597" y="941" on="1"/>
        <pt x="185" y="941" on="1"/>
        <pt x="185" y="-130" on="1"/>
      </contour>
    </TTGlyph>
    <TTGlyph name="A" xMin="5" yMin="0" xMax="694" yMax="740">
      <contour>
        <pt x="5" y="7" on="1"/>
        <pt x="264" y="740" on="1"/>
        <pt x="435" y="740" on="1"/>
        <pt x="694" y="7" on="1"/>
        <pt x="694" y="0" on="1"/>
        <pt x="582" y="0" on="1"/>
        <pt x="509" y="207" on="1"/>
        <pt x="189" y="207" on="1"/>
        <pt x="116" y="0" on="1"/>
        <pt x="5" y="0" on="1"/>
      </contour>
      <contour>
        <pt x="480" y="300" on="1"/>
        <pt x="400" y="525" on="1"/>
        <pt x="355" y="658" on="1"/>
        <pt x="343" y="658" on="1"/>
        <pt x="298" y="524" on="1"/>
        <pt x="219" y="300" on="1"/>
      </contour>
    </TTGlyph>
    <TTGlyph name="A.sc" xMin="10" yMin="0" xMax="626" yMax="577">
      <contour>
        <pt x="10" y="6" on="1"/>
        <pt x="237" y="577" on="1"/>
        <pt x="399" y="577" on="1"/>
        <pt x="626" y="6" on="1"/>
        <pt x="626" y="0" on="1"/>
        <pt x="519" y="0" on="1"/>
        <pt x="457" y="150" on="1"/>
        <pt x="178" y="150" on="1"/>
        <pt x="116" y="0" on="1"/>
        <pt x="10" y="0" on="1"/>
      </contour>
      <contour>
        <pt x="433" y="226" on="1"/>
        <pt x="362" y="402" on="1"/>
        <pt x="322" y="501" on="1"/>
        <pt x="312" y="501" on="1"/>
        <pt x="273" y="401" on="1"/>
        <pt x="201" y="226" on="1"/>
      </contour>
    </TTGlyph>
    <TTGlyph name="AE" xMin="3" yMin="0" xMax="872" yMax="740">
      <contour>
        <pt x="3" y="8" on="1"/>
        <pt x="302" y="740" on="1"/>
        <pt x="860" y="740" on="1"/>
        <pt x="860" y="648" on="1"/>
        <pt x="533" y="648" on="1"/>
        <pt x="545" y="420" on="1"/>
        <pt x="837" y="420" on="1"/>
        <pt x="837" y="328" on="1"/>
        <pt x="550" y="328" on="1"/>
        <pt x="563" y="92" on="1"/>
        <pt x="872" y="92" on="1"/>
        <pt x="872" y="0" on="1"/>
        <pt x="449" y="0" on="1"/>
        <pt x="441" y="206" on="1"/>
        <pt x="198" y="206" on="1"/>
        <pt x="114" y="0" on="1"/>
        <pt x="3" y="0" on="1"/>
      </contour>
      <contour>
        <pt x="237" y="301" on="1"/>
        <pt x="437" y="301" on="1"/>
        <pt x="422" y="655" on="1"/>
        <pt x="383" y="655" on="1"/>
      </contour>
    </TTGlyph>
    <TTGlyph name="AE.sc" xMin="10" yMin="0" xMax="789" yMax="577">
      <contour>
        <pt x="10" y="7" on="1"/>
        <pt x="275" y="577" on="1"/>
        <pt x="777" y="577" on="1"/>
        <pt x="777" y="493" on="1"/>
        <pt x="490" y="493" on="1"/>
        <pt x="499" y="329" on="1"/>
        <pt x="757" y="329" on="1"/>
        <pt x="757" y="254" on="1"/>
        <pt x="506" y="254" on="1"/>
        <pt x="517" y="84" on="1"/>
        <pt x="789" y="84" on="1"/>
        <pt x="789" y="0" on="1"/>
        <pt x="408" y="0" on="1"/>
        <pt x="401" y="150" on="1"/>
        <pt x="186" y="150" on="1"/>
        <pt x="116" y="0" on="1"/>
        <pt x="10" y="0" on="1"/>
      </contour>
      <contour>
        <pt x="223" y="226" on="1"/>
        <pt x="397" y="226" on="1"/>
        <pt x="385" y="499" on="1"/>
        <pt x="351" y="499" on="1"/>
      </contour>
    </TTGlyph>
    <TTGlyph name="AEacute" xMin="3" yMin="0" xMax="872" yMax="957">
      <contour>
        <pt x="480" y="808" on="1"/>
        <pt x="552" y="957" on="1"/>
        <pt x="669" y="957" on="1"/>
        <pt x="565" y="801" on="1"/>
      </contour>
      <contour>
        <pt x="3" y="8" on="1"/>
        <pt x="302" y="740" on="1"/>
        <pt x="860" y="740" on="1"/>
        <pt x="860" y="648" on="1"/>
        <pt x="533" y="648" on="1"/>
        <pt x="545" y="420" on="1"/>
        <pt x="837" y="420" on="1"/>
        <pt x="837" y="328" on="1"/>
        <pt x="550" y="328" on="1"/>
        <pt x="563" y="92" on="1"/>
        <pt x="872" y="92" on="1"/>
        <pt x="872" y="0" on="1"/>
        <pt x="449" y="0" on="1"/>
        <pt x="441" y="206" on="1"/>
        <pt x="198" y="206" on="1"/>
        <pt x="114" y="0" on="1"/>
        <pt x="3" y="0" on="1"/>
      </contour>
      <contour>
        <pt x="237" y="301" on="1"/>
        <pt x="437" y="301" on="1"/>
        <pt x="422" y="655" on="1"/>
        <pt x="383" y="655" on="1"/>
      </contour>
    </TTGlyph>
    <TTGlyph name="AEacute.sc" xMin="10" yMin="0" xMax="789" yMax="756">
      <contour>
        <pt x="10" y="7" on="1"/>
        <pt x="275" y="577" on="1"/>
        <pt x="777" y="577" on="1"/>
        <pt x="777" y="493" on="1"/>
        <pt x="490" y="493" on="1"/>
        <pt x="499" y="329" on="1"/>
        <pt x="757" y="329" on="1"/>
        <pt x="757" y="254" on="1"/>
        <pt x="506" y="254" on="1"/>
        <pt x="517" y="84" on="1"/>
        <pt x="789" y="84" on="1"/>
        <pt x="789" y="0" on="1"/>
        <pt x="408" y="0" on="1"/>
        <pt x="401" y="150" on="1"/>
        <pt x="186" y="150" on="1"/>
        <pt x="116" y="0" on="1"/>
        <pt x="10" y="0" on="1"/>
      </contour>
      <contour>
        <pt x="397" y="226" on="1"/>
        <pt x="385" y="499" on="1"/>
        <pt x="351" y="499" on="1"/>
        <pt x="223" y="226" on="1"/>
      </contour>
      <contour>
        <pt x="429" y="632" on="1"/>
        <pt x="492" y="756" on="1"/>
        <pt x="603" y="756" on="1"/>
        <pt x="510" y="626" on="1"/>
      </contour>
    </TTGlyph>
    <TTGlyph name="Aacute" xMin="5" yMin="0" xMax="694" yMax="957">
      <contour>
        <pt x="5" y="7" on="1"/>
        <pt x="264" y="740" on="1"/>
        <pt x="435" y="740" on="1"/>
        <pt x="694" y="7" on="1"/>
        <pt x="694" y="0" on="1"/>
        <pt x="582" y="0" on="1"/>
        <pt x="509" y="207" on="1"/>
        <pt x="189" y="207" on="1"/>
        <pt x="116" y="0" on="1"/>
        <pt x="5" y="0" on="1"/>
      </contour>
      <contour>
        <pt x="480" y="300" on="1"/>
        <pt x="400" y="525" on="1"/>
        <pt x="355" y="658" on="1"/>
        <pt x="343" y="658" on="1"/>
        <pt x="298" y="524" on="1"/>
        <pt x="219" y="300" on="1"/>
      </contour>
      <contour>
        <pt x="302" y="808" on="1"/>
        <pt x="374" y="957" on="1"/>
        <pt x="491" y="957" on="1"/>
        <pt x="387" y="801" on="1"/>
      </contour>
    </TTGlyph>
    <TTGlyph name="Aacute.sc" xMin="10" yMin="0" xMax="626" yMax="756">
      <contour>
        <pt x="10" y="6" on="1"/>
        <pt x="237" y="577" on="1"/>
        <pt x="399" y="577" on="1"/>
        <pt x="626" y="6" on="1"/>
        <pt x="626" y="0" on="1"/>
        <pt x="519" y="0" on="1"/>
        <pt x="457" y="150" on="1"/>
        <pt x="178" y="150" on="1"/>
        <pt x="116" y="0" on="1"/>
        <pt x="10" y="0" on="1"/>
      </contour>
      <contour>
        <pt x="433" y="230" on="1"/>
        <pt x="362" y="402" on="1"/>
        <pt x="322" y="501" on="1"/>
        <pt x="312" y="501" on="1"/>
        <pt x="273" y="401" on="1"/>
        <pt x="202" y="230" on="1"/>
      </contour>
      <contour>
        <pt x="273" y="632" on="1"/>
        <pt x="335" y="756" on="1"/>
        <pt x="446" y="756" on="1"/>
        <pt x="353" y="626" on="1"/>
      </contour>
    </TTGlyph>
    <TTGlyph name="Abreve" xMin="5" yMin="0" xMax="694" yMax="969">
      <contour>
        <pt x="5" y="7" on="1"/>
        <pt x="264" y="740" on="1"/>
        <pt x="435" y="740" on="1"/>
        <pt x="694" y="7" on="1"/>
        <pt x="694" y="0" on="1"/>
        <pt x="582" y="0" on="1"/>
        <pt x="509" y="207" on="1"/>
        <pt x="189" y="207" on="1"/>
        <pt x="116" y="0" on="1"/>
        <pt x="5" y="0" on="1"/>
      </contour>
      <contour>
        <pt x="480" y="300" on="1"/>
        <pt x="400" y="525" on="1"/>
        <pt x="355" y="658" on="1"/>
        <pt x="343" y="658" on="1"/>
        <pt x="298" y="524" on="1"/>
        <pt x="219" y="300" on="1"/>
      </contour>
      <contour>
        <pt x="350" y="812" on="1"/>
        <pt x="251" y="812" on="0"/>
        <pt x="158" y="899" on="0"/>
        <pt x="158" y="969" on="1"/>
        <pt x="238" y="969" on="1"/>
        <pt x="238" y="923" on="0"/>
        <pt x="292" y="874" on="0"/>
        <pt x="350" y="874" on="1"/>
        <pt x="408" y="874" on="0"/>
        <pt x="462" y="923" on="0"/>
        <pt x="462" y="969" on="1"/>
        <pt x="542" y="969" on="1"/>
        <pt x="542" y="898" on="0"/>
        <pt x="449" y="812" on="0"/>
      </contour>
    </TTGlyph>
    <TTGlyph name="Abreve.sc" xMin="10" yMin="0" xMax="626" yMax="762">
      <contour>
        <pt x="318" y="632" on="1"/>
        <pt x="227" y="632" on="0"/>
        <pt x="144" y="706" on="0"/>
        <pt x="144" y="762" on="1"/>
        <pt x="220" y="762" on="1"/>
        <pt x="220" y="726" on="0"/>
        <pt x="267" y="688" on="0"/>
        <pt x="318" y="688" on="1"/>
        <pt x="369" y="688" on="0"/>
        <pt x="416" y="726" on="0"/>
        <pt x="416" y="762" on="1"/>
        <pt x="491" y="762" on="1"/>
        <pt x="491" y="704" on="0"/>
        <pt x="409" y="632" on="0"/>
      </contour>
      <contour>
        <pt x="10" y="6" on="1"/>
        <pt x="237" y="577" on="1"/>
        <pt x="399" y="577" on="1"/>
        <pt x="626" y="6" on="1"/>
        <pt x="626" y="0" on="1"/>
        <pt x="519" y="0" on="1"/>
        <pt x="457" y="150" on="1"/>
        <pt x="178" y="150" on="1"/>
        <pt x="116" y="0" on="1"/>
        <pt x="10" y="0" on="1"/>
      </contour>
      <contour>
        <pt x="433" y="230" on="1"/>
        <pt x="362" y="402" on="1"/>
        <pt x="322" y="501" on="1"/>
        <pt x="312" y="501" on="1"/>
        <pt x="273" y="401" on="1"/>
        <pt x="202" y="230" on="1"/>
      </contour>
    </TTGlyph>
    <TTGlyph name="Acircumflex" xMin="5" yMin="0" xMax="694" yMax="967">
      <contour>
        <pt x="5" y="7" on="1"/>
        <pt x="264" y="740" on="1"/>
        <pt x="435" y="740" on="1"/>
        <pt x="694" y="7" on="1"/>
        <pt x="694" y="0" on="1"/>
        <pt x="582" y="0" on="1"/>
        <pt x="509" y="207" on="1"/>
        <pt x="189" y="207" on="1"/>
        <pt x="116" y="0" on="1"/>
        <pt x="5" y="0" on="1"/>
      </contour>
      <contour>
        <pt x="480" y="300" on="1"/>
        <pt x="400" y="525" on="1"/>
        <pt x="355" y="658" on="1"/>
        <pt x="343" y="658" on="1"/>
        <pt x="298" y="524" on="1"/>
        <pt x="219" y="300" on="1"/>
      </contour>
      <contour>
        <pt x="175" y="892" on="1"/>
        <pt x="350" y="967" on="1"/>
        <pt x="526" y="892" on="1"/>
        <pt x="526" y="808" on="1"/>
        <pt x="350" y="883" on="1"/>
        <pt x="175" y="808" on="1"/>
      </contour>
    </TTGlyph>
    <TTGlyph name="Acircumflex.sc" xMin="10" yMin="0" xMax="626" yMax="764">
      <contour>
        <pt x="10" y="6" on="1"/>
        <pt x="237" y="577" on="1"/>
        <pt x="399" y="577" on="1"/>
        <pt x="626" y="6" on="1"/>
        <pt x="626" y="0" on="1"/>
        <pt x="519" y="0" on="1"/>
        <pt x="457" y="150" on="1"/>
        <pt x="178" y="150" on="1"/>
        <pt x="116" y="0" on="1"/>
        <pt x="10" y="0" on="1"/>
      </contour>
      <contour>
        <pt x="433" y="230" on="1"/>
        <pt x="362" y="402" on="1"/>
        <pt x="322" y="501" on="1"/>
        <pt x="312" y="501" on="1"/>
        <pt x="273" y="401" on="1"/>
        <pt x="202" y="230" on="1"/>
      </contour>
      <contour>
        <pt x="161" y="704" on="1"/>
        <pt x="318" y="764" on="1"/>
        <pt x="477" y="704" on="1"/>
        <pt x="477" y="628" on="1"/>
        <pt x="319" y="688" on="1"/>
        <pt x="161" y="628" on="1"/>
      </contour>
    </TTGlyph>
    <TTGlyph name="Adblgrave" xMin="5" yMin="0" xMax="694" yMax="953">
      <contour>
        <pt x="5" y="7" on="1"/>
        <pt x="264" y="740" on="1"/>
        <pt x="435" y="740" on="1"/>
        <pt x="694" y="7" on="1"/>
        <pt x="694" y="0" on="1"/>
        <pt x="582" y="0" on="1"/>
        <pt x="509" y="207" on="1"/>
        <pt x="189" y="207" on="1"/>
        <pt x="116" y="0" on="1"/>
        <pt x="5" y="0" on="1"/>
      </contour>
      <contour>
        <pt x="480" y="300" on="1"/>
        <pt x="400" y="525" on="1"/>
        <pt x="355" y="658" on="1"/>
        <pt x="343" y="658" on="1"/>
        <pt x="298" y="524" on="1"/>
        <pt x="219" y="300" on="1"/>
      </contour>
      <contour>
        <pt x="220" y="796" on="1"/>
        <pt x="117" y="953" on="1"/>
        <pt x="228" y="953" on="1"/>
        <pt x="299" y="809" on="1"/>
      </contour>
      <contour>
        <pt x="394" y="796" on="1"/>
        <pt x="290" y="953" on="1"/>
        <pt x="401" y="953" on="1"/>
        <pt x="473" y="809" on="1"/>
      </contour>
    </TTGlyph>
    <TTGlyph name="Adblgrave.sc" xMin="10" yMin="0" xMax="626" yMax="753">
      <contour>
        <pt x="10" y="6" on="1"/>
        <pt x="237" y="577" on="1"/>
        <pt x="399" y="577" on="1"/>
        <pt x="626" y="6" on="1"/>
        <pt x="626" y="0" on="1"/>
        <pt x="519" y="0" on="1"/>
        <pt x="457" y="150" on="1"/>
        <pt x="178" y="150" on="1"/>
        <pt x="116" y="0" on="1"/>
        <pt x="10" y="0" on="1"/>
      </contour>
      <contour>
        <pt x="433" y="230" on="1"/>
        <pt x="362" y="402" on="1"/>
        <pt x="322" y="501" on="1"/>
        <pt x="312" y="501" on="1"/>
        <pt x="273" y="401" on="1"/>
        <pt x="202" y="230" on="1"/>
      </contour>
      <contour>
        <pt x="104" y="753" on="1"/>
        <pt x="211" y="753" on="1"/>
        <pt x="272" y="632" on="1"/>
        <pt x="197" y="623" on="1"/>
      </contour>
      <contour>
        <pt x="262" y="753" on="1"/>
        <pt x="368" y="753" on="1"/>
        <pt x="430" y="632" on="1"/>
        <pt x="355" y="623" on="1"/>
      </contour>
    </TTGlyph>
    <TTGlyph name="Adieresis" xMin="5" yMin="0" xMax="694" yMax="947">
      <contour>
        <pt x="5" y="7" on="1"/>
        <pt x="264" y="740" on="1"/>
        <pt x="435" y="740" on="1"/>
        <pt x="694" y="7" on="1"/>
        <pt x="694" y="0" on="1"/>
        <pt x="582" y="0" on="1"/>
        <pt x="509" y="207" on="1"/>
        <pt x="189" y="207" on="1"/>
        <pt x="116" y="0" on="1"/>
        <pt x="5" y="0" on="1"/>
      </contour>
      <contour>
        <pt x="480" y="300" on="1"/>
        <pt x="400" y="525" on="1"/>
        <pt x="355" y="658" on="1"/>
        <pt x="343" y="658" on="1"/>
        <pt x="298" y="524" on="1"/>
        <pt x="219" y="300" on="1"/>
      </contour>
      <contour>
        <pt x="215" y="815" on="1"/>
        <pt x="180" y="815" on="0"/>
        <pt x="148" y="846" on="0"/>
        <pt x="148" y="881" on="1"/>
        <pt x="148" y="916" on="0"/>
        <pt x="180" y="947" on="0"/>
        <pt x="215" y="947" on="1"/>
        <pt x="283" y="947" on="0"/>
        <pt x="283" y="881" on="1"/>
        <pt x="283" y="846" on="0"/>
        <pt x="249" y="815" on="0"/>
      </contour>
      <contour>
        <pt x="484" y="815" on="1"/>
        <pt x="449" y="815" on="0"/>
        <pt x="416" y="846" on="0"/>
        <pt x="416" y="881" on="1"/>
        <pt x="416" y="916" on="0"/>
        <pt x="449" y="947" on="0"/>
        <pt x="484" y="947" on="1"/>
        <pt x="552" y="947" on="0"/>
        <pt x="552" y="881" on="1"/>
        <pt x="552" y="846" on="0"/>
        <pt x="518" y="815" on="0"/>
      </contour>
    </TTGlyph>
    <TTGlyph name="Adieresis.sc" xMin="10" yMin="0" xMax="626" yMax="753">
      <contour>
        <pt x="197" y="633" on="1"/>
        <pt x="165" y="633" on="0"/>
        <pt x="134" y="661" on="0"/>
        <pt x="134" y="693" on="1"/>
        <pt x="134" y="725" on="0"/>
        <pt x="165" y="753" on="0"/>
        <pt x="197" y="753" on="1"/>
        <pt x="261" y="753" on="0"/>
        <pt x="261" y="693" on="1"/>
        <pt x="261" y="661" on="0"/>
        <pt x="230" y="633" on="0"/>
      </contour>
      <contour>
        <pt x="438" y="633" on="1"/>
        <pt x="406" y="633" on="0"/>
        <pt x="375" y="661" on="0"/>
        <pt x="375" y="693" on="1"/>
        <pt x="375" y="725" on="0"/>
        <pt x="406" y="753" on="0"/>
        <pt x="438" y="753" on="1"/>
        <pt x="502" y="753" on="0"/>
        <pt x="502" y="693" on="1"/>
        <pt x="502" y="661" on="0"/>
        <pt x="470" y="633" on="0"/>
      </contour>
      <contour>
        <pt x="10" y="6" on="1"/>
        <pt x="237" y="577" on="1"/>
        <pt x="399" y="577" on="1"/>
        <pt x="626" y="6" on="1"/>
        <pt x="626" y="0" on="1"/>
        <pt x="519" y="0" on="1"/>
        <pt x="457" y="150" on="1"/>
        <pt x="178" y="150" on="1"/>
        <pt x="116" y="0" on="1"/>
        <pt x="10" y="0" on="1"/>
      </contour>
      <contour>
        <pt x="433" y="230" on="1"/>
        <pt x="362" y="402" on="1"/>
        <pt x="322" y="501" on="1"/>
        <pt x="312" y="501" on="1"/>
        <pt x="273" y="401" on="1"/>
        <pt x="202" y="230" on="1"/>
      </contour>
    </TTGlyph>
    <TTGlyph name="Agrave" xMin="5" yMin="0" xMax="694" yMax="957">
      <contour>
        <pt x="5" y="7" on="1"/>
        <pt x="264" y="740" on="1"/>
        <pt x="435" y="740" on="1"/>
        <pt x="694" y="7" on="1"/>
        <pt x="694" y="0" on="1"/>
        <pt x="582" y="0" on="1"/>
        <pt x="509" y="207" on="1"/>
        <pt x="189" y="207" on="1"/>
        <pt x="116" y="0" on="1"/>
        <pt x="5" y="0" on="1"/>
      </contour>
      <contour>
        <pt x="480" y="300" on="1"/>
        <pt x="400" y="525" on="1"/>
        <pt x="355" y="658" on="1"/>
        <pt x="343" y="658" on="1"/>
        <pt x="298" y="524" on="1"/>
        <pt x="219" y="300" on="1"/>
      </contour>
      <contour>
        <pt x="301" y="801" on="1"/>
        <pt x="197" y="957" on="1"/>
        <pt x="314" y="957" on="1"/>
        <pt x="386" y="813" on="1"/>
      </contour>
    </TTGlyph>
    <TTGlyph name="Agrave.sc" xMin="10" yMin="0" xMax="626" yMax="756">
      <contour>
        <pt x="10" y="6" on="1"/>
        <pt x="237" y="577" on="1"/>
        <pt x="399" y="577" on="1"/>
        <pt x="626" y="6" on="1"/>
        <pt x="626" y="0" on="1"/>
        <pt x="519" y="0" on="1"/>
        <pt x="457" y="150" on="1"/>
        <pt x="178" y="150" on="1"/>
        <pt x="116" y="0" on="1"/>
        <pt x="10" y="0" on="1"/>
      </contour>
      <contour>
        <pt x="433" y="230" on="1"/>
        <pt x="362" y="402" on="1"/>
        <pt x="322" y="501" on="1"/>
        <pt x="312" y="501" on="1"/>
        <pt x="273" y="401" on="1"/>
        <pt x="202" y="230" on="1"/>
      </contour>
      <contour>
        <pt x="272" y="626" on="1"/>
        <pt x="178" y="756" on="1"/>
        <pt x="290" y="756" on="1"/>
        <pt x="351" y="635" on="1"/>
      </contour>
    </TTGlyph>
    <TTGlyph name="Ainvertedbreve" xMin="5" yMin="0" xMax="694" yMax="974">
      <contour>
        <pt x="5" y="7" on="1"/>
        <pt x="264" y="740" on="1"/>
        <pt x="435" y="740" on="1"/>
        <pt x="694" y="7" on="1"/>
        <pt x="694" y="0" on="1"/>
        <pt x="582" y="0" on="1"/>
        <pt x="509" y="207" on="1"/>
        <pt x="189" y="207" on="1"/>
        <pt x="116" y="0" on="1"/>
        <pt x="5" y="0" on="1"/>
      </contour>
      <contour>
        <pt x="480" y="300" on="1"/>
        <pt x="400" y="525" on="1"/>
        <pt x="355" y="658" on="1"/>
        <pt x="343" y="658" on="1"/>
        <pt x="298" y="524" on="1"/>
        <pt x="219" y="300" on="1"/>
      </contour>
      <contour>
        <pt x="461" y="818" on="1"/>
        <pt x="461" y="863" on="0"/>
        <pt x="407" y="913" on="0"/>
        <pt x="350" y="913" on="1"/>
        <pt x="292" y="913" on="0"/>
        <pt x="237" y="863" on="0"/>
        <pt x="237" y="818" on="1"/>
        <pt x="158" y="818" on="1"/>
        <pt x="158" y="888" on="0"/>
        <pt x="250" y="974" on="0"/>
        <pt x="350" y="974" on="1"/>
        <pt x="449" y="974" on="0"/>
        <pt x="542" y="889" on="0"/>
        <pt x="542" y="818" on="1"/>
      </contour>
    </TTGlyph>
    <TTGlyph name="Ainvertedbreve.sc" xMin="10" yMin="0" xMax="626" yMax="767">
      <contour>
        <pt x="145" y="638" on="1"/>
        <pt x="145" y="666" on="0"/>
        <pt x="165" y="713" on="0"/>
        <pt x="207" y="747" on="0"/>
        <pt x="273" y="767" on="0"/>
        <pt x="318" y="767" on="1"/>
        <pt x="409" y="767" on="0"/>
        <pt x="491" y="695" on="0"/>
        <pt x="491" y="638" on="1"/>
        <pt x="416" y="638" on="1"/>
        <pt x="416" y="673" on="0"/>
        <pt x="370" y="711" on="0"/>
        <pt x="318" y="711" on="1"/>
        <pt x="267" y="711" on="0"/>
        <pt x="220" y="673" on="0"/>
        <pt x="220" y="638" on="1"/>
      </contour>
      <contour>
        <pt x="10" y="6" on="1"/>
        <pt x="237" y="577" on="1"/>
        <pt x="399" y="577" on="1"/>
        <pt x="626" y="6" on="1"/>
        <pt x="626" y="0" on="1"/>
        <pt x="519" y="0" on="1"/>
        <pt x="457" y="150" on="1"/>
        <pt x="178" y="150" on="1"/>
        <pt x="116" y="0" on="1"/>
        <pt x="10" y="0" on="1"/>
      </contour>
      <contour>
        <pt x="433" y="230" on="1"/>
        <pt x="362" y="402" on="1"/>
        <pt x="322" y="501" on="1"/>
        <pt x="312" y="501" on="1"/>
        <pt x="273" y="401" on="1"/>
        <pt x="202" y="230" on="1"/>
      </contour>
    </TTGlyph>
    <TTGlyph name="Amacron" xMin="5" yMin="0" xMax="694" yMax="921">
      <contour>
        <pt x="5" y="7" on="1"/>
        <pt x="264" y="740" on="1"/>
        <pt x="435" y="740" on="1"/>
        <pt x="694" y="7" on="1"/>
        <pt x="694" y="0" on="1"/>
        <pt x="582" y="0" on="1"/>
        <pt x="509" y="207" on="1"/>
        <pt x="189" y="207" on="1"/>
        <pt x="116" y="0" on="1"/>
        <pt x="5" y="0" on="1"/>
      </contour>
      <contour>
        <pt x="480" y="300" on="1"/>
        <pt x="400" y="525" on="1"/>
        <pt x="355" y="658" on="1"/>
        <pt x="343" y="658" on="1"/>
        <pt x="298" y="524" on="1"/>
        <pt x="219" y="300" on="1"/>
      </contour>
      <contour>
        <pt x="178" y="921" on="1"/>
        <pt x="520" y="921" on="1"/>
        <pt x="520" y="841" on="1"/>
        <pt x="178" y="841" on="1"/>
      </contour>
    </TTGlyph>
    <TTGlyph name="Amacron.sc" xMin="10" yMin="0" xMax="626" yMax="730">
      <contour>
        <pt x="10" y="6" on="1"/>
        <pt x="237" y="577" on="1"/>
        <pt x="399" y="577" on="1"/>
        <pt x="626" y="6" on="1"/>
        <pt x="626" y="0" on="1"/>
        <pt x="519" y="0" on="1"/>
        <pt x="457" y="150" on="1"/>
        <pt x="178" y="150" on="1"/>
        <pt x="116" y="0" on="1"/>
        <pt x="10" y="0" on="1"/>
      </contour>
      <contour>
        <pt x="433" y="230" on="1"/>
        <pt x="362" y="402" on="1"/>
        <pt x="322" y="501" on="1"/>
        <pt x="312" y="501" on="1"/>
        <pt x="273" y="401" on="1"/>
        <pt x="202" y="230" on="1"/>
      </contour>
      <contour>
        <pt x="162" y="730" on="1"/>
        <pt x="473" y="730" on="1"/>
        <pt x="473" y="656" on="1"/>
        <pt x="162" y="656" on="1"/>
      </contour>
    </TTGlyph>
    <TTGlyph name="Aogonek" xMin="5" yMin="-220" xMax="694" yMax="740">
      <contour>
        <pt x="617" y="-220" on="1"/>
        <pt x="500" y="-220" on="0"/>
        <pt x="500" y="-133" on="1"/>
        <pt x="500" y="-96" on="0"/>
        <pt x="548" y="-33" on="0"/>
        <pt x="602" y="0" on="1"/>
        <pt x="582" y="0" on="1"/>
        <pt x="509" y="207" on="1"/>
        <pt x="189" y="207" on="1"/>
        <pt x="116" y="0" on="1"/>
        <pt x="5" y="0" on="1"/>
        <pt x="5" y="7" on="1"/>
        <pt x="264" y="740" on="1"/>
        <pt x="435" y="740" on="1"/>
        <pt x="694" y="7" on="1"/>
        <pt x="694" y="-15" on="1"/>
        <pt x="631" y="-44" on="0"/>
        <pt x="577" y="-97" on="0"/>
        <pt x="577" y="-123" on="1"/>
        <pt x="577" y="-154" on="0"/>
        <pt x="619" y="-154" on="1"/>
        <pt x="633" y="-154" on="0"/>
        <pt x="675" y="-148" on="0"/>
        <pt x="694" y="-143" on="1"/>
        <pt x="694" y="-208" on="1"/>
        <pt x="661" y="-220" on="0"/>
      </contour>
      <contour>
        <pt x="480" y="300" on="1"/>
        <pt x="400" y="525" on="1"/>
        <pt x="355" y="658" on="1"/>
        <pt x="343" y="658" on="1"/>
        <pt x="298" y="524" on="1"/>
        <pt x="219" y="300" on="1"/>
      </contour>
    </TTGlyph>
    <TTGlyph name="Aogonek.sc" xMin="9" yMin="-170" xMax="625" yMax="577">
      <contour>
        <pt x="554" y="-170" on="1"/>
        <pt x="502" y="-170" on="0"/>
        <pt x="448" y="-134" on="0"/>
        <pt x="448" y="-101" on="1"/>
        <pt x="448" y="-73" on="0"/>
        <pt x="487" y="-23" on="0"/>
        <pt x="530" y="0" on="1"/>
        <pt x="518" y="0" on="1"/>
        <pt x="456" y="150" on="1"/>
        <pt x="177" y="150" on="1"/>
        <pt x="115" y="0" on="1"/>
        <pt x="9" y="0" on="1"/>
        <pt x="9" y="6" on="1"/>
        <pt x="236" y="577" on="1"/>
        <pt x="399" y="577" on="1"/>
        <pt x="625" y="6" on="1"/>
        <pt x="625" y="-9" on="1"/>
        <pt x="566" y="-31" on="0"/>
        <pt x="521" y="-67" on="0"/>
        <pt x="521" y="-85" on="1"/>
        <pt x="521" y="-99" on="0"/>
        <pt x="539" y="-109" on="0"/>
        <pt x="556" y="-109" on="1"/>
        <pt x="570" y="-109" on="0"/>
        <pt x="611" y="-105" on="0"/>
        <pt x="625" y="-100" on="1"/>
        <pt x="625" y="-160" on="1"/>
        <pt x="608" y="-165" on="0"/>
        <pt x="572" y="-170" on="0"/>
      </contour>
      <contour>
        <pt x="431" y="230" on="1"/>
        <pt x="361" y="405" on="1"/>
        <pt x="321" y="501" on="1"/>
        <pt x="311" y="501" on="1"/>
        <pt x="272" y="404" on="1"/>
        <pt x="200" y="230" on="1"/>
      </contour>
    </TTGlyph>
    <TTGlyph name="Aring" xMin="5" yMin="0" xMax="694" yMax="1000">
      <contour>
        <pt x="5" y="7" on="1"/>
        <pt x="264" y="740" on="1"/>
        <pt x="435" y="740" on="1"/>
        <pt x="694" y="7" on="1"/>
        <pt x="694" y="0" on="1"/>
        <pt x="582" y="0" on="1"/>
        <pt x="509" y="207" on="1"/>
        <pt x="189" y="207" on="1"/>
        <pt x="116" y="0" on="1"/>
        <pt x="5" y="0" on="1"/>
      </contour>
      <contour>
        <pt x="480" y="300" on="1"/>
        <pt x="400" y="525" on="1"/>
        <pt x="355" y="658" on="1"/>
        <pt x="343" y="658" on="1"/>
        <pt x="298" y="524" on="1"/>
        <pt x="219" y="300" on="1"/>
      </contour>
      <contour>
        <pt x="351" y="780" on="1"/>
        <pt x="324" y="780" on="0"/>
        <pt x="278" y="796" on="0"/>
        <pt x="245" y="825" on="0"/>
        <pt x="226" y="865" on="0"/>
        <pt x="226" y="889" on="1"/>
        <pt x="226" y="913" on="0"/>
        <pt x="245" y="954" on="0"/>
        <pt x="278" y="983" on="0"/>
        <pt x="324" y="1000" on="0"/>
        <pt x="351" y="1000" on="1"/>
        <pt x="378" y="1000" on="0"/>
        <pt x="423" y="983" on="0"/>
        <pt x="456" y="954" on="0"/>
        <pt x="474" y="913" on="0"/>
        <pt x="474" y="889" on="1"/>
        <pt x="474" y="841" on="0"/>
        <pt x="405" y="780" on="0"/>
      </contour>
      <contour>
        <pt x="351" y="828" on="1"/>
        <pt x="420" y="828" on="0"/>
        <pt x="420" y="889" on="1"/>
        <pt x="420" y="919" on="0"/>
        <pt x="386" y="952" on="0"/>
        <pt x="351" y="952" on="1"/>
        <pt x="315" y="952" on="0"/>
        <pt x="280" y="919" on="0"/>
        <pt x="280" y="889" on="1"/>
        <pt x="280" y="828" on="0"/>
      </contour>
    </TTGlyph>
    <TTGlyph name="Aring.sc" xMin="10" yMin="0" xMax="626" yMax="793">
      <contour>
        <pt x="10" y="6" on="1"/>
        <pt x="237" y="577" on="1"/>
        <pt x="399" y="577" on="1"/>
        <pt x="626" y="6" on="1"/>
        <pt x="626" y="0" on="1"/>
        <pt x="519" y="0" on="1"/>
        <pt x="457" y="150" on="1"/>
        <pt x="178" y="150" on="1"/>
        <pt x="116" y="0" on="1"/>
        <pt x="10" y="0" on="1"/>
      </contour>
      <contour>
        <pt x="433" y="230" on="1"/>
        <pt x="362" y="402" on="1"/>
        <pt x="322" y="501" on="1"/>
        <pt x="312" y="501" on="1"/>
        <pt x="273" y="401" on="1"/>
        <pt x="202" y="230" on="1"/>
      </contour>
      <contour>
        <pt x="319" y="618" on="1"/>
        <pt x="271" y="618" on="0"/>
        <pt x="207" y="667" on="0"/>
        <pt x="207" y="705" on="1"/>
        <pt x="207" y="743" on="0"/>
        <pt x="271" y="793" on="0"/>
        <pt x="319" y="793" on="1"/>
        <pt x="367" y="793" on="0"/>
        <pt x="429" y="743" on="0"/>
        <pt x="429" y="705" on="1"/>
        <pt x="429" y="667" on="0"/>
        <pt x="367" y="618" on="0"/>
      </contour>
      <contour>
        <pt x="319" y="659" on="1"/>
        <pt x="379" y="659" on="0"/>
        <pt x="379" y="705" on="1"/>
        <pt x="379" y="751" on="0"/>
        <pt x="319" y="751" on="1"/>
        <pt x="257" y="751" on="0"/>
        <pt x="257" y="705" on="1"/>
        <pt x="257" y="659" on="0"/>
      </contour>
    </TTGlyph>
    <TTGlyph name="Aringacute" xMin="5" yMin="0" xMax="694" yMax="982">
      <contour>
        <pt x="5" y="7" on="1"/>
        <pt x="239" y="666" on="1"/>
        <pt x="197" y="697" on="0"/>
        <pt x="197" y="751" on="1"/>
        <pt x="197" y="799" on="0"/>
        <pt x="260" y="866" on="0"/>
        <pt x="314" y="875" on="1"/>
        <pt x="371" y="982" on="1"/>
        <pt x="487" y="982" on="1"/>
        <pt x="411" y="867" on="1"/>
        <pt x="453" y="854" on="0"/>
        <pt x="502" y="793" on="0"/>
        <pt x="502" y="751" on="1"/>
        <pt x="502" y="725" on="0"/>
        <pt x="480" y="680" on="0"/>
        <pt x="460" y="665" on="1"/>
        <pt x="694" y="7" on="1"/>
        <pt x="694" y="0" on="1"/>
        <pt x="583" y="0" on="1"/>
        <pt x="510" y="206" on="1"/>
        <pt x="189" y="206" on="1"/>
        <pt x="116" y="0" on="1"/>
        <pt x="5" y="0" on="1"/>
      </contour>
      <contour>
        <pt x="349" y="686" on="1"/>
        <pt x="385" y="686" on="0"/>
        <pt x="429" y="722" on="0"/>
        <pt x="429" y="751" on="1"/>
        <pt x="429" y="782" on="0"/>
        <pt x="385" y="817" on="0"/>
        <pt x="349" y="817" on="1"/>
        <pt x="313" y="817" on="0"/>
        <pt x="271" y="782" on="0"/>
        <pt x="271" y="751" on="1"/>
        <pt x="271" y="722" on="0"/>
        <pt x="313" y="686" on="0"/>
      </contour>
      <contour>
        <pt x="479" y="301" on="1"/>
        <pt x="401" y="525" on="1"/>
        <pt x="369" y="620" on="1"/>
        <pt x="330" y="620" on="1"/>
        <pt x="297" y="524" on="1"/>
        <pt x="219" y="301" on="1"/>
      </contour>
    </TTGlyph>
    <TTGlyph name="Aringacute.sc" xMin="10" yMin="0" xMax="626" yMax="775">
      <contour>
        <pt x="10" y="6" on="1"/>
        <pt x="215" y="522" on="1"/>
        <pt x="180" y="548" on="0"/>
        <pt x="180" y="588" on="1"/>
        <pt x="180" y="627" on="0"/>
        <pt x="236" y="681" on="0"/>
        <pt x="285" y="689" on="1"/>
        <pt x="333" y="775" on="1"/>
        <pt x="444" y="775" on="1"/>
        <pt x="376" y="682" on="1"/>
        <pt x="414" y="671" on="0"/>
        <pt x="458" y="621" on="0"/>
        <pt x="458" y="588" on="1"/>
        <pt x="458" y="568" on="0"/>
        <pt x="438" y="534" on="0"/>
        <pt x="421" y="521" on="1"/>
        <pt x="626" y="6" on="1"/>
        <pt x="626" y="0" on="1"/>
        <pt x="520" y="0" on="1"/>
        <pt x="458" y="150" on="1"/>
        <pt x="178" y="150" on="1"/>
        <pt x="116" y="0" on="1"/>
        <pt x="10" y="0" on="1"/>
      </contour>
      <contour>
        <pt x="318" y="539" on="1"/>
        <pt x="350" y="539" on="0"/>
        <pt x="388" y="566" on="0"/>
        <pt x="388" y="588" on="1"/>
        <pt x="388" y="611" on="0"/>
        <pt x="350" y="638" on="0"/>
        <pt x="318" y="638" on="1"/>
        <pt x="285" y="638" on="0"/>
        <pt x="248" y="611" on="0"/>
        <pt x="248" y="588" on="1"/>
        <pt x="248" y="566" on="0"/>
        <pt x="286" y="539" on="0"/>
      </contour>
      <contour>
        <pt x="433" y="230" on="1"/>
        <pt x="362" y="402" on="1"/>
        <pt x="334" y="478" on="1"/>
        <pt x="301" y="478" on="1"/>
        <pt x="274" y="401" on="1"/>
        <pt x="203" y="230" on="1"/>
      </contour>
    </TTGlyph>
    <TTGlyph name="Atilde" xMin="5" yMin="0" xMax="694" yMax="948">
      <contour>
        <pt x="5" y="7" on="1"/>
        <pt x="264" y="740" on="1"/>
        <pt x="435" y="740" on="1"/>
        <pt x="694" y="7" on="1"/>
        <pt x="694" y="0" on="1"/>
        <pt x="582" y="0" on="1"/>
        <pt x="509" y="207" on="1"/>
        <pt x="189" y="207" on="1"/>
        <pt x="116" y="0" on="1"/>
        <pt x="5" y="0" on="1"/>
      </contour>
      <contour>
        <pt x="480" y="300" on="1"/>
        <pt x="400" y="525" on="1"/>
        <pt x="355" y="658" on="1"/>
        <pt x="343" y="658" on="1"/>
        <pt x="298" y="524" on="1"/>
        <pt x="219" y="300" on="1"/>
      </contour>
      <contour>
        <pt x="145" y="860" on="1"/>
        <pt x="174" y="903" on="0"/>
        <pt x="246" y="948" on="0"/>
        <pt x="280" y="948" on="1"/>
        <pt x="304" y="948" on="0"/>
        <pt x="348" y="935" on="0"/>
        <pt x="391" y="920" on="0"/>
        <pt x="434" y="907" on="0"/>
        <pt x="457" y="907" on="1"/>
        <pt x="480" y="907" on="0"/>
        <pt x="524" y="925" on="0"/>
        <pt x="548" y="945" on="1"/>
        <pt x="572" y="917" on="1"/>
        <pt x="543" y="874" on="0"/>
        <pt x="469" y="829" on="0"/>
        <pt x="433" y="829" on="1"/>
        <pt x="410" y="829" on="0"/>
        <pt x="367" y="841" on="0"/>
        <pt x="324" y="856" on="0"/>
        <pt x="281" y="868" on="0"/>
        <pt x="259" y="868" on="1"/>
        <pt x="236" y="868" on="0"/>
        <pt x="192" y="852" on="0"/>
        <pt x="169" y="832" on="1"/>
      </contour>
    </TTGlyph>
    <TTGlyph name="Atilde.sc" xMin="10" yMin="0" xMax="626" yMax="750">
      <contour>
        <pt x="10" y="6" on="1"/>
        <pt x="237" y="577" on="1"/>
        <pt x="399" y="577" on="1"/>
        <pt x="626" y="6" on="1"/>
        <pt x="626" y="0" on="1"/>
        <pt x="519" y="0" on="1"/>
        <pt x="457" y="150" on="1"/>
        <pt x="178" y="150" on="1"/>
        <pt x="116" y="0" on="1"/>
        <pt x="10" y="0" on="1"/>
      </contour>
      <contour>
        <pt x="433" y="230" on="1"/>
        <pt x="362" y="402" on="1"/>
        <pt x="322" y="501" on="1"/>
        <pt x="312" y="501" on="1"/>
        <pt x="273" y="401" on="1"/>
        <pt x="202" y="230" on="1"/>
      </contour>
      <contour>
        <pt x="133" y="671" on="1"/>
        <pt x="159" y="710" on="0"/>
        <pt x="224" y="750" on="0"/>
        <pt x="256" y="750" on="1"/>
        <pt x="277" y="750" on="0"/>
        <pt x="317" y="740" on="0"/>
        <pt x="355" y="729" on="0"/>
        <pt x="394" y="719" on="0"/>
        <pt x="414" y="719" on="1"/>
        <pt x="434" y="719" on="0"/>
        <pt x="474" y="732" on="0"/>
        <pt x="497" y="748" on="1"/>
        <pt x="517" y="725" on="1"/>
        <pt x="491" y="686" on="0"/>
        <pt x="424" y="645" on="0"/>
        <pt x="392" y="645" on="1"/>
        <pt x="371" y="645" on="0"/>
        <pt x="331" y="655" on="0"/>
        <pt x="292" y="666" on="0"/>
        <pt x="253" y="676" on="0"/>
        <pt x="234" y="676" on="1"/>
        <pt x="214" y="676" on="0"/>
        <pt x="175" y="664" on="0"/>
        <pt x="153" y="647" on="1"/>
      </contour>
    </TTGlyph>
    <TTGlyph name="B" xMin="84" yMin="-10" xMax="636" yMax="749">
      <contour>
        <pt x="339" y="-10" on="1"/>
        <pt x="217" y="-10" on="0"/>
        <pt x="84" y="5" on="1"/>
        <pt x="84" y="735" on="1"/>
        <pt x="157" y="743" on="0"/>
        <pt x="269" y="749" on="0"/>
        <pt x="323" y="749" on="1"/>
        <pt x="475" y="749" on="0"/>
        <pt x="612" y="653" on="0"/>
        <pt x="612" y="547" on="1"/>
        <pt x="612" y="481" on="0"/>
        <pt x="546" y="394" on="0"/>
        <pt x="486" y="380" on="1"/>
        <pt x="486" y="376" on="1"/>
        <pt x="559" y="362" on="0"/>
        <pt x="636" y="271" on="0"/>
        <pt x="636" y="197" on="1"/>
        <pt x="636" y="-10" on="0"/>
      </contour>
      <contour>
        <pt x="337" y="75" on="1"/>
        <pt x="432" y="75" on="0"/>
        <pt x="522" y="139" on="0"/>
        <pt x="522" y="206" on="1"/>
        <pt x="522" y="272" on="0"/>
        <pt x="438" y="335" on="0"/>
        <pt x="347" y="335" on="1"/>
        <pt x="193" y="335" on="1"/>
        <pt x="193" y="83" on="1"/>
        <pt x="214" y="78" on="0"/>
        <pt x="283" y="75" on="0"/>
      </contour>
      <contour>
        <pt x="339" y="415" on="1"/>
        <pt x="426" y="415" on="0"/>
        <pt x="499" y="472" on="0"/>
        <pt x="499" y="540" on="1"/>
        <pt x="499" y="607" on="0"/>
        <pt x="420" y="664" on="0"/>
        <pt x="328" y="664" on="1"/>
        <pt x="286" y="664" on="0"/>
        <pt x="222" y="661" on="0"/>
        <pt x="193" y="657" on="1"/>
        <pt x="193" y="415" on="1"/>
      </contour>
    </TTGlyph>
    <TTGlyph name="B.sc" xMin="79" yMin="-8" xMax="575" yMax="584">
      <contour>
        <pt x="311" y="-8" on="1"/>
        <pt x="203" y="-8" on="0"/>
        <pt x="79" y="4" on="1"/>
        <pt x="79" y="573" on="1"/>
        <pt x="145" y="579" on="0"/>
        <pt x="247" y="584" on="0"/>
        <pt x="295" y="584" on="1"/>
        <pt x="432" y="584" on="0"/>
        <pt x="553" y="509" on="0"/>
        <pt x="553" y="425" on="1"/>
        <pt x="553" y="375" on="0"/>
        <pt x="494" y="308" on="0"/>
        <pt x="440" y="297" on="1"/>
        <pt x="440" y="294" on="1"/>
        <pt x="506" y="283" on="0"/>
        <pt x="575" y="212" on="0"/>
        <pt x="575" y="155" on="1"/>
        <pt x="575" y="-8" on="0"/>
      </contour>
      <contour>
        <pt x="309" y="69" on="1"/>
        <pt x="390" y="69" on="0"/>
        <pt x="466" y="115" on="0"/>
        <pt x="466" y="164" on="1"/>
        <pt x="466" y="213" on="0"/>
        <pt x="396" y="257" on="0"/>
        <pt x="318" y="257" on="1"/>
        <pt x="183" y="257" on="1"/>
        <pt x="183" y="75" on="1"/>
        <pt x="202" y="72" on="0"/>
        <pt x="259" y="69" on="0"/>
      </contour>
      <contour>
        <pt x="310" y="327" on="1"/>
        <pt x="384" y="327" on="0"/>
        <pt x="446" y="368" on="0"/>
        <pt x="446" y="418" on="1"/>
        <pt x="446" y="467" on="0"/>
        <pt x="380" y="507" on="0"/>
        <pt x="300" y="507" on="1"/>
        <pt x="265" y="507" on="0"/>
        <pt x="207" y="505" on="0"/>
        <pt x="183" y="502" on="1"/>
        <pt x="183" y="327" on="1"/>
      </contour>
    </TTGlyph>
    <TTGlyph name="C" xMin="48" yMin="-10" xMax="556" yMax="751">
      <contour>
        <pt x="393" y="-10" on="1"/>
        <pt x="48" y="-10" on="0"/>
        <pt x="48" y="368" on="1"/>
        <pt x="48" y="563" on="0"/>
        <pt x="217" y="751" on="0"/>
        <pt x="389" y="751" on="1"/>
        <pt x="424" y="751" on="0"/>
        <pt x="509" y="742" on="0"/>
        <pt x="556" y="734" on="1"/>
        <pt x="556" y="639" on="1"/>
        <pt x="505" y="647" on="0"/>
        <pt x="432" y="655" on="0"/>
        <pt x="402" y="655" on="1"/>
        <pt x="339" y="655" on="0"/>
        <pt x="249" y="623" on="0"/>
        <pt x="191" y="554" on="0"/>
        <pt x="164" y="445" on="0"/>
        <pt x="164" y="369" on="1"/>
        <pt x="164" y="219" on="0"/>
        <pt x="274" y="86" on="0"/>
        <pt x="396" y="86" on="1"/>
        <pt x="412" y="86" on="0"/>
        <pt x="455" y="89" on="0"/>
        <pt x="500" y="93" on="0"/>
        <pt x="541" y="100" on="0"/>
        <pt x="556" y="103" on="1"/>
        <pt x="556" y="10" on="1"/>
        <pt x="521" y="1" on="0"/>
        <pt x="431" y="-10" on="0"/>
      </contour>
    </TTGlyph>
    <TTGlyph name="C.sc" xMin="47" yMin="-9" xMax="500" yMax="586">
      <contour>
        <pt x="355" y="-9" on="1"/>
        <pt x="47" y="-8" on="0"/>
        <pt x="47" y="287" on="1"/>
        <pt x="47" y="586" on="0"/>
        <pt x="350" y="586" on="1"/>
        <pt x="383" y="586" on="0"/>
        <pt x="460" y="579" on="0"/>
        <pt x="500" y="573" on="1"/>
        <pt x="500" y="484" on="1"/>
        <pt x="458" y="490" on="0"/>
        <pt x="393" y="496" on="0"/>
        <pt x="363" y="496" on="1"/>
        <pt x="307" y="496" on="0"/>
        <pt x="230" y="473" on="0"/>
        <pt x="182" y="423" on="0"/>
        <pt x="160" y="344" on="0"/>
        <pt x="160" y="288" on="1"/>
        <pt x="160" y="232" on="0"/>
        <pt x="181" y="154" on="0"/>
        <pt x="229" y="105" on="0"/>
        <pt x="304" y="82" on="0"/>
        <pt x="358" y="82" on="1"/>
        <pt x="372" y="82" on="0"/>
        <pt x="411" y="84" on="0"/>
        <pt x="450" y="88" on="0"/>
        <pt x="487" y="93" on="0"/>
        <pt x="500" y="95" on="1"/>
        <pt x="500" y="7" on="1"/>
        <pt x="470" y="0" on="0"/>
        <pt x="390" y="-9" on="0"/>
      </contour>
    </TTGlyph>
    <TTGlyph name="Cacute" xMin="48" yMin="-10" xMax="556" yMax="957">
      <contour>
        <pt x="393" y="-10" on="1"/>
        <pt x="48" y="-10" on="0"/>
        <pt x="48" y="368" on="1"/>
        <pt x="48" y="563" on="0"/>
        <pt x="217" y="751" on="0"/>
        <pt x="389" y="751" on="1"/>
        <pt x="424" y="751" on="0"/>
        <pt x="509" y="742" on="0"/>
        <pt x="556" y="734" on="1"/>
        <pt x="556" y="639" on="1"/>
        <pt x="505" y="647" on="0"/>
        <pt x="432" y="655" on="0"/>
        <pt x="402" y="655" on="1"/>
        <pt x="339" y="655" on="0"/>
        <pt x="249" y="623" on="0"/>
        <pt x="191" y="554" on="0"/>
        <pt x="164" y="445" on="0"/>
        <pt x="164" y="369" on="1"/>
        <pt x="164" y="219" on="0"/>
        <pt x="274" y="86" on="0"/>
        <pt x="396" y="86" on="1"/>
        <pt x="412" y="86" on="0"/>
        <pt x="455" y="89" on="0"/>
        <pt x="500" y="93" on="0"/>
        <pt x="541" y="100" on="0"/>
        <pt x="556" y="103" on="1"/>
        <pt x="556" y="10" on="1"/>
        <pt x="521" y="1" on="0"/>
        <pt x="431" y="-10" on="0"/>
      </contour>
      <contour>
        <pt x="297" y="808" on="1"/>
        <pt x="369" y="957" on="1"/>
        <pt x="486" y="957" on="1"/>
        <pt x="382" y="801" on="1"/>
      </contour>
    </TTGlyph>
    <TTGlyph name="Cacute.sc" xMin="47" yMin="-9" xMax="500" yMax="756">
      <contour>
        <pt x="355" y="-9" on="1"/>
        <pt x="47" y="-8" on="0"/>
        <pt x="47" y="287" on="1"/>
        <pt x="47" y="586" on="0"/>
        <pt x="350" y="586" on="1"/>
        <pt x="380" y="586" on="0"/>
        <pt x="456" y="580" on="0"/>
        <pt x="500" y="573" on="1"/>
        <pt x="500" y="484" on="1"/>
        <pt x="452" y="490" on="0"/>
        <pt x="388" y="496" on="0"/>
        <pt x="362" y="496" on="1"/>
        <pt x="308" y="496" on="0"/>
        <pt x="231" y="474" on="0"/>
        <pt x="182" y="424" on="0"/>
        <pt x="159" y="345" on="0"/>
        <pt x="159" y="288" on="1"/>
        <pt x="159" y="232" on="0"/>
        <pt x="181" y="154" on="0"/>
        <pt x="229" y="104" on="0"/>
        <pt x="305" y="82" on="0"/>
        <pt x="358" y="82" on="1"/>
        <pt x="372" y="82" on="0"/>
        <pt x="410" y="84" on="0"/>
        <pt x="450" y="88" on="0"/>
        <pt x="487" y="93" on="0"/>
        <pt x="500" y="95" on="1"/>
        <pt x="500" y="7" on="1"/>
        <pt x="468" y="0" on="0"/>
        <pt x="388" y="-9" on="0"/>
      </contour>
      <contour>
        <pt x="265" y="632" on="1"/>
        <pt x="327" y="756" on="1"/>
        <pt x="438" y="756" on="1"/>
        <pt x="345" y="626" on="1"/>
      </contour>
    </TTGlyph>
    <TTGlyph name="Ccaron" xMin="48" yMin="-10" xMax="556" yMax="964">
      <contour>
        <pt x="393" y="-10" on="1"/>
        <pt x="48" y="-10" on="0"/>
        <pt x="48" y="368" on="1"/>
        <pt x="48" y="563" on="0"/>
        <pt x="217" y="751" on="0"/>
        <pt x="389" y="751" on="1"/>
        <pt x="424" y="751" on="0"/>
        <pt x="509" y="742" on="0"/>
        <pt x="556" y="734" on="1"/>
        <pt x="556" y="639" on="1"/>
        <pt x="505" y="647" on="0"/>
        <pt x="432" y="655" on="0"/>
        <pt x="402" y="655" on="1"/>
        <pt x="339" y="655" on="0"/>
        <pt x="249" y="623" on="0"/>
        <pt x="191" y="554" on="0"/>
        <pt x="164" y="445" on="0"/>
        <pt x="164" y="369" on="1"/>
        <pt x="164" y="219" on="0"/>
        <pt x="274" y="86" on="0"/>
        <pt x="396" y="86" on="1"/>
        <pt x="412" y="86" on="0"/>
        <pt x="455" y="89" on="0"/>
        <pt x="500" y="93" on="0"/>
        <pt x="541" y="100" on="0"/>
        <pt x="556" y="103" on="1"/>
        <pt x="556" y="10" on="1"/>
        <pt x="521" y="1" on="0"/>
        <pt x="431" y="-10" on="0"/>
      </contour>
      <contour>
        <pt x="173" y="964" on="1"/>
        <pt x="348" y="889" on="1"/>
        <pt x="523" y="964" on="1"/>
        <pt x="523" y="880" on="1"/>
        <pt x="347" y="805" on="1"/>
        <pt x="173" y="880" on="1"/>
      </contour>
    </TTGlyph>
    <TTGlyph name="Ccaron.sc" xMin="47" yMin="-9" xMax="500" yMax="762">
      <contour>
        <pt x="355" y="-9" on="1"/>
        <pt x="47" y="-8" on="0"/>
        <pt x="47" y="287" on="1"/>
        <pt x="47" y="586" on="0"/>
        <pt x="350" y="586" on="1"/>
        <pt x="380" y="586" on="0"/>
        <pt x="456" y="580" on="0"/>
        <pt x="500" y="573" on="1"/>
        <pt x="500" y="484" on="1"/>
        <pt x="452" y="490" on="0"/>
        <pt x="388" y="496" on="0"/>
        <pt x="362" y="496" on="1"/>
        <pt x="308" y="496" on="0"/>
        <pt x="231" y="474" on="0"/>
        <pt x="182" y="424" on="0"/>
        <pt x="159" y="345" on="0"/>
        <pt x="159" y="288" on="1"/>
        <pt x="159" y="232" on="0"/>
        <pt x="181" y="154" on="0"/>
        <pt x="229" y="104" on="0"/>
        <pt x="305" y="82" on="0"/>
        <pt x="358" y="82" on="1"/>
        <pt x="372" y="82" on="0"/>
        <pt x="410" y="84" on="0"/>
        <pt x="450" y="88" on="0"/>
        <pt x="487" y="93" on="0"/>
        <pt x="500" y="95" on="1"/>
        <pt x="500" y="7" on="1"/>
        <pt x="468" y="0" on="0"/>
        <pt x="388" y="-9" on="0"/>
      </contour>
      <contour>
        <pt x="154" y="762" on="1"/>
        <pt x="313" y="703" on="1"/>
        <pt x="471" y="762" on="1"/>
        <pt x="471" y="687" on="1"/>
        <pt x="312" y="627" on="1"/>
        <pt x="154" y="687" on="1"/>
      </contour>
    </TTGlyph>
    <TTGlyph name="Ccedilla" xMin="48" yMin="-220" xMax="556" yMax="751">
      <contour>
        <pt x="319" y="-220" on="1"/>
        <pt x="299" y="-220" on="0"/>
        <pt x="250" y="-213" on="0"/>
        <pt x="227" y="-208" on="1"/>
        <pt x="227" y="-137" on="1"/>
        <pt x="260" y="-148" on="0"/>
        <pt x="299" y="-148" on="1"/>
        <pt x="333" y="-148" on="0"/>
        <pt x="363" y="-123" on="0"/>
        <pt x="363" y="-97" on="1"/>
        <pt x="363" y="-77" on="0"/>
        <pt x="347" y="-35" on="0"/>
        <pt x="327" y="-6" on="1"/>
        <pt x="48" y="27" on="0"/>
        <pt x="48" y="368" on="1"/>
        <pt x="48" y="563" on="0"/>
        <pt x="217" y="751" on="0"/>
        <pt x="389" y="751" on="1"/>
        <pt x="424" y="751" on="0"/>
        <pt x="509" y="742" on="0"/>
        <pt x="556" y="734" on="1"/>
        <pt x="556" y="639" on="1"/>
        <pt x="505" y="647" on="0"/>
        <pt x="432" y="655" on="0"/>
        <pt x="402" y="655" on="1"/>
        <pt x="339" y="655" on="0"/>
        <pt x="249" y="623" on="0"/>
        <pt x="191" y="554" on="0"/>
        <pt x="164" y="445" on="0"/>
        <pt x="164" y="369" on="1"/>
        <pt x="164" y="219" on="0"/>
        <pt x="274" y="86" on="0"/>
        <pt x="396" y="86" on="1"/>
        <pt x="412" y="86" on="0"/>
        <pt x="455" y="89" on="0"/>
        <pt x="500" y="93" on="0"/>
        <pt x="541" y="100" on="0"/>
        <pt x="556" y="103" on="1"/>
        <pt x="556" y="10" on="1"/>
        <pt x="524" y="2" on="0"/>
        <pt x="442" y="-9" on="0"/>
        <pt x="406" y="-10" on="1"/>
        <pt x="427" y="-42" on="0"/>
        <pt x="442" y="-85" on="0"/>
        <pt x="442" y="-108" on="1"/>
        <pt x="442" y="-162" on="0"/>
        <pt x="377" y="-220" on="0"/>
      </contour>
    </TTGlyph>
    <TTGlyph name="Ccedilla.sc" xMin="47" yMin="-172" xMax="500" yMax="586">
      <contour>
        <pt x="291" y="-172" on="1"/>
        <pt x="274" y="-172" on="0"/>
        <pt x="230" y="-167" on="0"/>
        <pt x="207" y="-162" on="1"/>
        <pt x="207" y="-98" on="1"/>
        <pt x="241" y="-106" on="0"/>
        <pt x="274" y="-106" on="1"/>
        <pt x="303" y="-106" on="0"/>
        <pt x="326" y="-88" on="0"/>
        <pt x="326" y="-69" on="1"/>
        <pt x="326" y="-58" on="0"/>
        <pt x="314" y="-29" on="0"/>
        <pt x="299" y="-6" on="1"/>
        <pt x="47" y="15" on="0"/>
        <pt x="47" y="287" on="1"/>
        <pt x="47" y="586" on="0"/>
        <pt x="350" y="586" on="1"/>
        <pt x="380" y="586" on="0"/>
        <pt x="456" y="580" on="0"/>
        <pt x="500" y="573" on="1"/>
        <pt x="500" y="484" on="1"/>
        <pt x="452" y="490" on="0"/>
        <pt x="389" y="496" on="0"/>
        <pt x="363" y="496" on="1"/>
        <pt x="309" y="496" on="0"/>
        <pt x="232" y="474" on="0"/>
        <pt x="183" y="424" on="0"/>
        <pt x="160" y="345" on="0"/>
        <pt x="160" y="288" on="1"/>
        <pt x="160" y="232" on="0"/>
        <pt x="182" y="154" on="0"/>
        <pt x="230" y="104" on="0"/>
        <pt x="305" y="82" on="0"/>
        <pt x="358" y="82" on="1"/>
        <pt x="372" y="82" on="0"/>
        <pt x="411" y="84" on="0"/>
        <pt x="450" y="88" on="0"/>
        <pt x="487" y="93" on="0"/>
        <pt x="500" y="95" on="1"/>
        <pt x="500" y="7" on="1"/>
        <pt x="472" y="1" on="0"/>
        <pt x="403" y="-7" on="0"/>
        <pt x="373" y="-8" on="1"/>
        <pt x="388" y="-33" on="0"/>
        <pt x="400" y="-66" on="0"/>
        <pt x="400" y="-83" on="1"/>
        <pt x="400" y="-125" on="0"/>
        <pt x="343" y="-172" on="0"/>
      </contour>
    </TTGlyph>
    <TTGlyph name="Ccircumflex" xMin="48" yMin="-10" xMax="556" yMax="967">
      <contour>
        <pt x="393" y="-10" on="1"/>
        <pt x="48" y="-10" on="0"/>
        <pt x="48" y="368" on="1"/>
        <pt x="48" y="563" on="0"/>
        <pt x="217" y="751" on="0"/>
        <pt x="389" y="751" on="1"/>
        <pt x="424" y="751" on="0"/>
        <pt x="509" y="742" on="0"/>
        <pt x="556" y="734" on="1"/>
        <pt x="556" y="639" on="1"/>
        <pt x="505" y="647" on="0"/>
        <pt x="432" y="655" on="0"/>
        <pt x="402" y="655" on="1"/>
        <pt x="339" y="655" on="0"/>
        <pt x="249" y="623" on="0"/>
        <pt x="191" y="554" on="0"/>
        <pt x="164" y="445" on="0"/>
        <pt x="164" y="369" on="1"/>
        <pt x="164" y="219" on="0"/>
        <pt x="274" y="86" on="0"/>
        <pt x="396" y="86" on="1"/>
        <pt x="412" y="86" on="0"/>
        <pt x="455" y="89" on="0"/>
        <pt x="500" y="93" on="0"/>
        <pt x="541" y="100" on="0"/>
        <pt x="556" y="103" on="1"/>
        <pt x="556" y="10" on="1"/>
        <pt x="521" y="1" on="0"/>
        <pt x="431" y="-10" on="0"/>
      </contour>
      <contour>
        <pt x="170" y="892" on="1"/>
        <pt x="345" y="967" on="1"/>
        <pt x="521" y="892" on="1"/>
        <pt x="521" y="808" on="1"/>
        <pt x="345" y="883" on="1"/>
        <pt x="170" y="808" on="1"/>
      </contour>
    </TTGlyph>
    <TTGlyph name="Ccircumflex.sc" xMin="47" yMin="-9" xMax="500" yMax="764">
      <contour>
        <pt x="355" y="-9" on="1"/>
        <pt x="47" y="-8" on="0"/>
        <pt x="47" y="287" on="1"/>
        <pt x="47" y="586" on="0"/>
        <pt x="350" y="586" on="1"/>
        <pt x="380" y="586" on="0"/>
        <pt x="456" y="580" on="0"/>
        <pt x="500" y="573" on="1"/>
        <pt x="500" y="484" on="1"/>
        <pt x="452" y="490" on="0"/>
        <pt x="388" y="496" on="0"/>
        <pt x="362" y="496" on="1"/>
        <pt x="308" y="496" on="0"/>
        <pt x="231" y="474" on="0"/>
        <pt x="182" y="424" on="0"/>
        <pt x="159" y="345" on="0"/>
        <pt x="159" y="288" on="1"/>
        <pt x="159" y="232" on="0"/>
        <pt x="181" y="154" on="0"/>
        <pt x="229" y="104" on="0"/>
        <pt x="305" y="82" on="0"/>
        <pt x="358" y="82" on="1"/>
        <pt x="372" y="82" on="0"/>
        <pt x="410" y="84" on="0"/>
        <pt x="450" y="88" on="0"/>
        <pt x="487" y="93" on="0"/>
        <pt x="500" y="95" on="1"/>
        <pt x="500" y="7" on="1"/>
        <pt x="468" y="0" on="0"/>
        <pt x="388" y="-9" on="0"/>
      </contour>
      <contour>
        <pt x="152" y="704" on="1"/>
        <pt x="310" y="764" on="1"/>
        <pt x="469" y="704" on="1"/>
        <pt x="469" y="628" on="1"/>
        <pt x="311" y="688" on="1"/>
        <pt x="152" y="628" on="1"/>
      </contour>
    </TTGlyph>
    <TTGlyph name="Cdotaccent" xMin="48" yMin="-10" xMax="556" yMax="942">
      <contour>
        <pt x="354" y="810" on="1"/>
        <pt x="319" y="810" on="0"/>
        <pt x="286" y="841" on="0"/>
        <pt x="286" y="876" on="1"/>
        <pt x="286" y="911" on="0"/>
        <pt x="319" y="942" on="0"/>
        <pt x="354" y="942" on="1"/>
        <pt x="389" y="942" on="0"/>
        <pt x="422" y="911" on="0"/>
        <pt x="422" y="876" on="1"/>
        <pt x="422" y="810" on="0"/>
      </contour>
      <contour>
        <pt x="393" y="-10" on="1"/>
        <pt x="48" y="-10" on="0"/>
        <pt x="48" y="368" on="1"/>
        <pt x="48" y="563" on="0"/>
        <pt x="217" y="751" on="0"/>
        <pt x="389" y="751" on="1"/>
        <pt x="424" y="751" on="0"/>
        <pt x="509" y="742" on="0"/>
        <pt x="556" y="734" on="1"/>
        <pt x="556" y="639" on="1"/>
        <pt x="505" y="647" on="0"/>
        <pt x="432" y="655" on="0"/>
        <pt x="402" y="655" on="1"/>
        <pt x="339" y="655" on="0"/>
        <pt x="249" y="623" on="0"/>
        <pt x="191" y="554" on="0"/>
        <pt x="164" y="445" on="0"/>
        <pt x="164" y="369" on="1"/>
        <pt x="164" y="219" on="0"/>
        <pt x="274" y="86" on="0"/>
        <pt x="396" y="86" on="1"/>
        <pt x="412" y="86" on="0"/>
        <pt x="455" y="89" on="0"/>
        <pt x="500" y="93" on="0"/>
        <pt x="541" y="100" on="0"/>
        <pt x="556" y="103" on="1"/>
        <pt x="556" y="10" on="1"/>
        <pt x="521" y="1" on="0"/>
        <pt x="431" y="-10" on="0"/>
      </contour>
    </TTGlyph>
    <TTGlyph name="Cdotaccent.sc" xMin="47" yMin="-9" xMax="500" yMax="750">
      <contour>
        <pt x="355" y="-9" on="1"/>
        <pt x="47" y="-8" on="0"/>
        <pt x="47" y="287" on="1"/>
        <pt x="47" y="586" on="0"/>
        <pt x="350" y="586" on="1"/>
        <pt x="380" y="586" on="0"/>
        <pt x="456" y="580" on="0"/>
        <pt x="500" y="573" on="1"/>
        <pt x="500" y="484" on="1"/>
        <pt x="452" y="490" on="0"/>
        <pt x="388" y="496" on="0"/>
        <pt x="362" y="496" on="1"/>
        <pt x="308" y="496" on="0"/>
        <pt x="231" y="474" on="0"/>
        <pt x="182" y="424" on="0"/>
        <pt x="159" y="345" on="0"/>
        <pt x="159" y="288" on="1"/>
        <pt x="159" y="232" on="0"/>
        <pt x="181" y="154" on="0"/>
        <pt x="229" y="104" on="0"/>
        <pt x="305" y="82" on="0"/>
        <pt x="358" y="82" on="1"/>
        <pt x="372" y="82" on="0"/>
        <pt x="410" y="84" on="0"/>
        <pt x="450" y="88" on="0"/>
        <pt x="487" y="93" on="0"/>
        <pt x="500" y="95" on="1"/>
        <pt x="500" y="7" on="1"/>
        <pt x="468" y="0" on="0"/>
        <pt x="388" y="-9" on="0"/>
      </contour>
      <contour>
        <pt x="320" y="630" on="1"/>
        <pt x="288" y="630" on="0"/>
        <pt x="257" y="658" on="0"/>
        <pt x="257" y="690" on="1"/>
        <pt x="257" y="722" on="0"/>
        <pt x="288" y="750" on="0"/>
        <pt x="320" y="750" on="1"/>
        <pt x="384" y="750" on="0"/>
        <pt x="384" y="690" on="1"/>
        <pt x="384" y="630" on="0"/>
      </contour>
    </TTGlyph>
    <TTGlyph name="D" xMin="84" yMin="-11" xMax="695" yMax="749">
      <contour>
        <pt x="280" y="-11" on="1"/>
        <pt x="221" y="-11" on="0"/>
        <pt x="115" y="-4" on="0"/>
        <pt x="84" y="3" on="1"/>
        <pt x="84" y="738" on="1"/>
        <pt x="144" y="743" on="0"/>
        <pt x="263" y="749" on="0"/>
        <pt x="304" y="749" on="1"/>
        <pt x="506" y="749" on="0"/>
        <pt x="695" y="566" on="0"/>
        <pt x="695" y="370" on="1"/>
        <pt x="695" y="270" on="0"/>
        <pt x="647" y="126" on="0"/>
        <pt x="547" y="33" on="0"/>
        <pt x="389" y="-11" on="0"/>
      </contour>
      <contour>
        <pt x="318" y="82" on="1"/>
        <pt x="387" y="82" on="0"/>
        <pt x="485" y="115" on="0"/>
        <pt x="548" y="184" on="0"/>
        <pt x="578" y="293" on="0"/>
        <pt x="578" y="370" on="1"/>
        <pt x="578" y="446" on="0"/>
        <pt x="548" y="554" on="0"/>
        <pt x="485" y="623" on="0"/>
        <pt x="387" y="655" on="0"/>
        <pt x="318" y="655" on="1"/>
        <pt x="293" y="655" on="0"/>
        <pt x="228" y="651" on="0"/>
        <pt x="197" y="648" on="1"/>
        <pt x="197" y="92" on="1"/>
        <pt x="231" y="87" on="0"/>
        <pt x="286" y="82" on="0"/>
      </contour>
    </TTGlyph>
    <TTGlyph name="D.sc" xMin="79" yMin="-8" xMax="627" yMax="584">
      <contour>
        <pt x="274" y="-8" on="1"/>
        <pt x="217" y="-8" on="0"/>
        <pt x="111" y="-2" on="0"/>
        <pt x="79" y="3" on="1"/>
        <pt x="79" y="576" on="1"/>
        <pt x="133" y="580" on="0"/>
        <pt x="241" y="584" on="0"/>
        <pt x="279" y="584" on="1"/>
        <pt x="459" y="584" on="0"/>
        <pt x="627" y="441" on="0"/>
        <pt x="627" y="288" on="1"/>
        <pt x="627" y="134" on="0"/>
        <pt x="457" y="-8" on="0"/>
      </contour>
      <contour>
        <pt x="294" y="80" on="1"/>
        <pt x="353" y="80" on="0"/>
        <pt x="437" y="103" on="0"/>
        <pt x="490" y="153" on="0"/>
        <pt x="515" y="232" on="0"/>
        <pt x="515" y="288" on="1"/>
        <pt x="515" y="344" on="0"/>
        <pt x="490" y="423" on="0"/>
        <pt x="436" y="473" on="0"/>
        <pt x="352" y="496" on="0"/>
        <pt x="293" y="496" on="1"/>
        <pt x="271" y="496" on="0"/>
        <pt x="214" y="493" on="0"/>
        <pt x="188" y="491" on="1"/>
        <pt x="188" y="87" on="1"/>
        <pt x="217" y="82" on="0"/>
        <pt x="265" y="80" on="0"/>
      </contour>
    </TTGlyph>
    <TTGlyph name="Dcaron" xMin="84" yMin="-11" xMax="695" yMax="964">
      <contour>
        <pt x="175" y="964" on="1"/>
        <pt x="350" y="889" on="1"/>
        <pt x="525" y="964" on="1"/>
        <pt x="525" y="880" on="1"/>
        <pt x="349" y="805" on="1"/>
        <pt x="175" y="880" on="1"/>
      </contour>
      <contour>
        <pt x="280" y="-11" on="1"/>
        <pt x="221" y="-11" on="0"/>
        <pt x="115" y="-4" on="0"/>
        <pt x="84" y="3" on="1"/>
        <pt x="84" y="738" on="1"/>
        <pt x="144" y="743" on="0"/>
        <pt x="263" y="749" on="0"/>
        <pt x="304" y="749" on="1"/>
        <pt x="506" y="749" on="0"/>
        <pt x="695" y="566" on="0"/>
        <pt x="695" y="370" on="1"/>
        <pt x="695" y="270" on="0"/>
        <pt x="647" y="126" on="0"/>
        <pt x="547" y="33" on="0"/>
        <pt x="389" y="-11" on="0"/>
      </contour>
      <contour>
        <pt x="318" y="82" on="1"/>
        <pt x="387" y="82" on="0"/>
        <pt x="485" y="115" on="0"/>
        <pt x="548" y="184" on="0"/>
        <pt x="578" y="293" on="0"/>
        <pt x="578" y="370" on="1"/>
        <pt x="578" y="446" on="0"/>
        <pt x="548" y="554" on="0"/>
        <pt x="485" y="623" on="0"/>
        <pt x="387" y="655" on="0"/>
        <pt x="318" y="655" on="1"/>
        <pt x="293" y="655" on="0"/>
        <pt x="228" y="651" on="0"/>
        <pt x="197" y="648" on="1"/>
        <pt x="197" y="92" on="1"/>
        <pt x="231" y="87" on="0"/>
        <pt x="286" y="82" on="0"/>
      </contour>
    </TTGlyph>
    <TTGlyph name="Dcaron.sc" xMin="79" yMin="-8" xMax="627" yMax="762">
      <contour>
        <pt x="274" y="-8" on="1"/>
        <pt x="217" y="-8" on="0"/>
        <pt x="111" y="-2" on="0"/>
        <pt x="79" y="3" on="1"/>
        <pt x="79" y="576" on="1"/>
        <pt x="133" y="580" on="0"/>
        <pt x="241" y="584" on="0"/>
        <pt x="279" y="584" on="1"/>
        <pt x="459" y="584" on="0"/>
        <pt x="627" y="441" on="0"/>
        <pt x="627" y="288" on="1"/>
        <pt x="627" y="134" on="0"/>
        <pt x="457" y="-8" on="0"/>
      </contour>
      <contour>
        <pt x="294" y="80" on="1"/>
        <pt x="353" y="80" on="0"/>
        <pt x="437" y="103" on="0"/>
        <pt x="490" y="153" on="0"/>
        <pt x="515" y="232" on="0"/>
        <pt x="515" y="288" on="1"/>
        <pt x="515" y="344" on="0"/>
        <pt x="490" y="423" on="0"/>
        <pt x="436" y="473" on="0"/>
        <pt x="352" y="496" on="0"/>
        <pt x="293" y="496" on="1"/>
        <pt x="271" y="496" on="0"/>
        <pt x="214" y="493" on="0"/>
        <pt x="188" y="491" on="1"/>
        <pt x="188" y="87" on="1"/>
        <pt x="217" y="82" on="0"/>
        <pt x="265" y="80" on="0"/>
      </contour>
      <contour>
        <pt x="163" y="687" on="1"/>
        <pt x="163" y="762" on="1"/>
        <pt x="321" y="703" on="1"/>
        <pt x="480" y="762" on="1"/>
        <pt x="480" y="687" on="1"/>
        <pt x="320" y="627" on="1"/>
      </contour>
    </TTGlyph>
    <TTGlyph name="Dcroat" xMin="4" yMin="-11" xMax="709" yMax="749">
      <contour>
        <pt x="4" y="415" on="1"/>
        <pt x="98" y="415" on="1"/>
        <pt x="98" y="738" on="1"/>
        <pt x="158" y="743" on="0"/>
        <pt x="277" y="749" on="0"/>
        <pt x="318" y="749" on="1"/>
        <pt x="520" y="749" on="0"/>
        <pt x="709" y="566" on="0"/>
        <pt x="709" y="370" on="1"/>
        <pt x="709" y="270" on="0"/>
        <pt x="661" y="126" on="0"/>
        <pt x="561" y="33" on="0"/>
        <pt x="403" y="-11" on="0"/>
        <pt x="294" y="-11" on="1"/>
        <pt x="235" y="-11" on="0"/>
        <pt x="129" y="-4" on="0"/>
        <pt x="98" y="3" on="1"/>
        <pt x="98" y="326" on="1"/>
        <pt x="4" y="326" on="1"/>
      </contour>
      <contour>
        <pt x="332" y="82" on="1"/>
        <pt x="401" y="82" on="0"/>
        <pt x="499" y="115" on="0"/>
        <pt x="562" y="184" on="0"/>
        <pt x="592" y="293" on="0"/>
        <pt x="592" y="370" on="1"/>
        <pt x="592" y="446" on="0"/>
        <pt x="562" y="554" on="0"/>
        <pt x="499" y="623" on="0"/>
        <pt x="401" y="655" on="0"/>
        <pt x="332" y="655" on="1"/>
        <pt x="307" y="655" on="0"/>
        <pt x="242" y="651" on="0"/>
        <pt x="211" y="648" on="1"/>
        <pt x="211" y="415" on="1"/>
        <pt x="376" y="415" on="1"/>
        <pt x="376" y="326" on="1"/>
        <pt x="211" y="326" on="1"/>
        <pt x="211" y="92" on="1"/>
        <pt x="245" y="87" on="0"/>
        <pt x="300" y="82" on="0"/>
      </contour>
    </TTGlyph>
    <TTGlyph name="Dcroat.sc" xMin="13" yMin="-8" xMax="642" yMax="584">
      <contour>
        <pt x="13" y="332" on="1"/>
        <pt x="95" y="332" on="1"/>
        <pt x="95" y="576" on="1"/>
        <pt x="122" y="578" on="0"/>
        <pt x="178" y="581" on="0"/>
        <pt x="230" y="583" on="0"/>
        <pt x="276" y="584" on="0"/>
        <pt x="294" y="584" on="1"/>
        <pt x="475" y="584" on="0"/>
        <pt x="642" y="442" on="0"/>
        <pt x="642" y="288" on="1"/>
        <pt x="642" y="210" on="0"/>
        <pt x="600" y="98" on="0"/>
        <pt x="510" y="26" on="0"/>
        <pt x="369" y="-8" on="0"/>
        <pt x="271" y="-8" on="1"/>
        <pt x="218" y="-8" on="0"/>
        <pt x="122" y="-2" on="0"/>
        <pt x="95" y="3" on="1"/>
        <pt x="95" y="247" on="1"/>
        <pt x="13" y="247" on="1"/>
      </contour>
      <contour>
        <pt x="310" y="80" on="1"/>
        <pt x="369" y="80" on="0"/>
        <pt x="453" y="103" on="0"/>
        <pt x="506" y="153" on="0"/>
        <pt x="531" y="232" on="0"/>
        <pt x="531" y="288" on="1"/>
        <pt x="531" y="400" on="0"/>
        <pt x="427" y="496" on="0"/>
        <pt x="309" y="496" on="1"/>
        <pt x="287" y="496" on="0"/>
        <pt x="231" y="493" on="0"/>
        <pt x="203" y="491" on="1"/>
        <pt x="203" y="332" on="1"/>
        <pt x="343" y="332" on="1"/>
        <pt x="343" y="247" on="1"/>
        <pt x="203" y="247" on="1"/>
        <pt x="203" y="87" on="1"/>
        <pt x="232" y="83" on="0"/>
        <pt x="282" y="80" on="0"/>
      </contour>
    </TTGlyph>
    <TTGlyph name="Ddotbelow" xMin="84" yMin="-189" xMax="695" yMax="749">
      <contour>
        <pt x="354" y="-189" on="1"/>
        <pt x="325" y="-189" on="0"/>
        <pt x="296" y="-163" on="0"/>
        <pt x="296" y="-133" on="1"/>
        <pt x="296" y="-103" on="0"/>
        <pt x="325" y="-76" on="0"/>
        <pt x="354" y="-76" on="1"/>
        <pt x="384" y="-76" on="0"/>
        <pt x="413" y="-103" on="0"/>
        <pt x="413" y="-133" on="1"/>
        <pt x="413" y="-163" on="0"/>
        <pt x="384" y="-189" on="0"/>
      </contour>
      <contour>
        <pt x="280" y="-11" on="1"/>
        <pt x="221" y="-11" on="0"/>
        <pt x="115" y="-4" on="0"/>
        <pt x="84" y="3" on="1"/>
        <pt x="84" y="738" on="1"/>
        <pt x="144" y="743" on="0"/>
        <pt x="263" y="749" on="0"/>
        <pt x="304" y="749" on="1"/>
        <pt x="506" y="749" on="0"/>
        <pt x="695" y="566" on="0"/>
        <pt x="695" y="370" on="1"/>
        <pt x="695" y="270" on="0"/>
        <pt x="647" y="126" on="0"/>
        <pt x="547" y="33" on="0"/>
        <pt x="389" y="-11" on="0"/>
      </contour>
      <contour>
        <pt x="318" y="82" on="1"/>
        <pt x="387" y="82" on="0"/>
        <pt x="485" y="115" on="0"/>
        <pt x="548" y="184" on="0"/>
        <pt x="578" y="293" on="0"/>
        <pt x="578" y="370" on="1"/>
        <pt x="578" y="446" on="0"/>
        <pt x="548" y="554" on="0"/>
        <pt x="485" y="623" on="0"/>
        <pt x="387" y="655" on="0"/>
        <pt x="318" y="655" on="1"/>
        <pt x="293" y="655" on="0"/>
        <pt x="228" y="651" on="0"/>
        <pt x="197" y="648" on="1"/>
        <pt x="197" y="92" on="1"/>
        <pt x="231" y="87" on="0"/>
        <pt x="286" y="82" on="0"/>
      </contour>
    </TTGlyph>
    <TTGlyph name="Ddotbelow.sc" xMin="79" yMin="-153" xMax="627" yMax="584">
      <contour>
        <pt x="274" y="-8" on="1"/>
        <pt x="217" y="-8" on="0"/>
        <pt x="111" y="-2" on="0"/>
        <pt x="79" y="3" on="1"/>
        <pt x="79" y="576" on="1"/>
        <pt x="133" y="580" on="0"/>
        <pt x="241" y="584" on="0"/>
        <pt x="279" y="584" on="1"/>
        <pt x="459" y="584" on="0"/>
        <pt x="627" y="441" on="0"/>
        <pt x="627" y="288" on="1"/>
        <pt x="627" y="134" on="0"/>
        <pt x="457" y="-8" on="0"/>
      </contour>
      <contour>
        <pt x="294" y="80" on="1"/>
        <pt x="353" y="80" on="0"/>
        <pt x="437" y="103" on="0"/>
        <pt x="490" y="153" on="0"/>
        <pt x="515" y="232" on="0"/>
        <pt x="515" y="288" on="1"/>
        <pt x="515" y="344" on="0"/>
        <pt x="490" y="423" on="0"/>
        <pt x="436" y="473" on="0"/>
        <pt x="352" y="496" on="0"/>
        <pt x="293" y="496" on="1"/>
        <pt x="271" y="496" on="0"/>
        <pt x="214" y="493" on="0"/>
        <pt x="188" y="491" on="1"/>
        <pt x="188" y="87" on="1"/>
        <pt x="217" y="82" on="0"/>
        <pt x="265" y="80" on="0"/>
      </contour>
      <contour>
        <pt x="324" y="-153" on="1"/>
        <pt x="296" y="-153" on="0"/>
        <pt x="270" y="-130" on="0"/>
        <pt x="270" y="-104" on="1"/>
        <pt x="270" y="-54" on="0"/>
        <pt x="324" y="-54" on="1"/>
        <pt x="378" y="-54" on="0"/>
        <pt x="378" y="-104" on="1"/>
        <pt x="378" y="-153" on="0"/>
      </contour>
    </TTGlyph>
    <TTGlyph name="Delta" xMin="24" yMin="0" xMax="747" yMax="740">
      <contour>
        <pt x="317" y="740" on="1"/>
        <pt x="454" y="740" on="1"/>
        <pt x="747" y="0" on="1"/>
        <pt x="24" y="0" on="1"/>
      </contour>
      <contour>
        <pt x="604" y="91" on="1"/>
        <pt x="385" y="643" on="1"/>
        <pt x="166" y="91" on="1"/>
      </contour>
    </TTGlyph>
    <TTGlyph name="E" xMin="84" yMin="0" xMax="583" yMax="740">
      <contour>
        <pt x="84" y="740" on="1"/>
        <pt x="574" y="740" on="1"/>
        <pt x="574" y="648" on="1"/>
        <pt x="198" y="648" on="1"/>
        <pt x="198" y="420" on="1"/>
        <pt x="546" y="420" on="1"/>
        <pt x="546" y="328" on="1"/>
        <pt x="198" y="328" on="1"/>
        <pt x="198" y="92" on="1"/>
        <pt x="583" y="92" on="1"/>
        <pt x="583" y="0" on="1"/>
        <pt x="84" y="0" on="1"/>
      </contour>
    </TTGlyph>
    <TTGlyph name="E.sc" xMin="80" yMin="0" xMax="527" yMax="577">
      <contour>
        <pt x="80" y="577" on="1"/>
        <pt x="520" y="577" on="1"/>
        <pt x="520" y="493" on="1"/>
        <pt x="189" y="493" on="1"/>
        <pt x="189" y="330" on="1"/>
        <pt x="494" y="330" on="1"/>
        <pt x="494" y="254" on="1"/>
        <pt x="189" y="254" on="1"/>
        <pt x="189" y="84" on="1"/>
        <pt x="527" y="84" on="1"/>
        <pt x="527" y="0" on="1"/>
        <pt x="80" y="0" on="1"/>
      </contour>
    </TTGlyph>
    <TTGlyph name="Eacute" xMin="84" yMin="0" xMax="583" yMax="957">
      <contour>
        <pt x="280" y="808" on="1"/>
        <pt x="352" y="957" on="1"/>
        <pt x="469" y="957" on="1"/>
        <pt x="365" y="801" on="1"/>
      </contour>
      <contour>
        <pt x="84" y="740" on="1"/>
        <pt x="574" y="740" on="1"/>
        <pt x="574" y="648" on="1"/>
        <pt x="198" y="648" on="1"/>
        <pt x="198" y="420" on="1"/>
        <pt x="546" y="420" on="1"/>
        <pt x="546" y="328" on="1"/>
        <pt x="198" y="328" on="1"/>
        <pt x="198" y="92" on="1"/>
        <pt x="583" y="92" on="1"/>
        <pt x="583" y="0" on="1"/>
        <pt x="84" y="0" on="1"/>
      </contour>
    </TTGlyph>
    <TTGlyph name="Eacute.sc" xMin="80" yMin="0" xMax="527" yMax="756">
      <contour>
        <pt x="80" y="577" on="1"/>
        <pt x="520" y="577" on="1"/>
        <pt x="520" y="493" on="1"/>
        <pt x="189" y="493" on="1"/>
        <pt x="189" y="330" on="1"/>
        <pt x="494" y="330" on="1"/>
        <pt x="494" y="254" on="1"/>
        <pt x="189" y="254" on="1"/>
        <pt x="189" y="84" on="1"/>
        <pt x="527" y="84" on="1"/>
        <pt x="527" y="0" on="1"/>
        <pt x="80" y="0" on="1"/>
      </contour>
      <contour>
        <pt x="253" y="632" on="1"/>
        <pt x="315" y="756" on="1"/>
        <pt x="425" y="756" on="1"/>
        <pt x="333" y="626" on="1"/>
      </contour>
    </TTGlyph>
    <TTGlyph name="Ebreve" xMin="84" yMin="0" xMax="583" yMax="969">
      <contour>
        <pt x="327" y="812" on="1"/>
        <pt x="228" y="812" on="0"/>
        <pt x="135" y="899" on="0"/>
        <pt x="135" y="969" on="1"/>
        <pt x="215" y="969" on="1"/>
        <pt x="215" y="923" on="0"/>
        <pt x="269" y="874" on="0"/>
        <pt x="327" y="874" on="1"/>
        <pt x="385" y="874" on="0"/>
        <pt x="439" y="923" on="0"/>
        <pt x="439" y="969" on="1"/>
        <pt x="519" y="969" on="1"/>
        <pt x="519" y="898" on="0"/>
        <pt x="426" y="812" on="0"/>
      </contour>
      <contour>
        <pt x="84" y="740" on="1"/>
        <pt x="574" y="740" on="1"/>
        <pt x="574" y="648" on="1"/>
        <pt x="198" y="648" on="1"/>
        <pt x="198" y="420" on="1"/>
        <pt x="546" y="420" on="1"/>
        <pt x="546" y="328" on="1"/>
        <pt x="198" y="328" on="1"/>
        <pt x="198" y="92" on="1"/>
        <pt x="583" y="92" on="1"/>
        <pt x="583" y="0" on="1"/>
        <pt x="84" y="0" on="1"/>
      </contour>
    </TTGlyph>
    <TTGlyph name="Ebreve.sc" xMin="80" yMin="0" xMax="527" yMax="762">
      <contour>
        <pt x="297" y="632" on="1"/>
        <pt x="207" y="632" on="0"/>
        <pt x="124" y="706" on="0"/>
        <pt x="124" y="762" on="1"/>
        <pt x="199" y="762" on="1"/>
        <pt x="199" y="726" on="0"/>
        <pt x="246" y="688" on="0"/>
        <pt x="297" y="688" on="1"/>
        <pt x="349" y="688" on="0"/>
        <pt x="396" y="726" on="0"/>
        <pt x="396" y="762" on="1"/>
        <pt x="470" y="762" on="1"/>
        <pt x="470" y="704" on="0"/>
        <pt x="388" y="632" on="0"/>
      </contour>
      <contour>
        <pt x="80" y="577" on="1"/>
        <pt x="520" y="577" on="1"/>
        <pt x="520" y="493" on="1"/>
        <pt x="189" y="493" on="1"/>
        <pt x="189" y="330" on="1"/>
        <pt x="494" y="330" on="1"/>
        <pt x="494" y="254" on="1"/>
        <pt x="189" y="254" on="1"/>
        <pt x="189" y="84" on="1"/>
        <pt x="527" y="84" on="1"/>
        <pt x="527" y="0" on="1"/>
        <pt x="80" y="0" on="1"/>
      </contour>
    </TTGlyph>
    <TTGlyph name="Ecaron" xMin="84" yMin="0" xMax="583" yMax="964">
      <contour>
        <pt x="156" y="964" on="1"/>
        <pt x="331" y="889" on="1"/>
        <pt x="506" y="964" on="1"/>
        <pt x="506" y="880" on="1"/>
        <pt x="330" y="805" on="1"/>
        <pt x="156" y="880" on="1"/>
      </contour>
      <contour>
        <pt x="84" y="740" on="1"/>
        <pt x="574" y="740" on="1"/>
        <pt x="574" y="648" on="1"/>
        <pt x="198" y="648" on="1"/>
        <pt x="198" y="420" on="1"/>
        <pt x="546" y="420" on="1"/>
        <pt x="546" y="328" on="1"/>
        <pt x="198" y="328" on="1"/>
        <pt x="198" y="92" on="1"/>
        <pt x="583" y="92" on="1"/>
        <pt x="583" y="0" on="1"/>
        <pt x="84" y="0" on="1"/>
      </contour>
    </TTGlyph>
    <TTGlyph name="Ecaron.sc" xMin="80" yMin="0" xMax="527" yMax="762">
      <contour>
        <pt x="80" y="577" on="1"/>
        <pt x="520" y="577" on="1"/>
        <pt x="520" y="493" on="1"/>
        <pt x="189" y="493" on="1"/>
        <pt x="189" y="330" on="1"/>
        <pt x="494" y="330" on="1"/>
        <pt x="494" y="254" on="1"/>
        <pt x="189" y="254" on="1"/>
        <pt x="189" y="84" on="1"/>
        <pt x="527" y="84" on="1"/>
        <pt x="527" y="0" on="1"/>
        <pt x="80" y="0" on="1"/>
      </contour>
      <contour>
        <pt x="143" y="687" on="1"/>
        <pt x="143" y="762" on="1"/>
        <pt x="302" y="703" on="1"/>
        <pt x="460" y="762" on="1"/>
        <pt x="460" y="687" on="1"/>
        <pt x="301" y="627" on="1"/>
      </contour>
    </TTGlyph>
    <TTGlyph name="Ecircumflex" xMin="84" yMin="0" xMax="583" yMax="967">
      <contour>
        <pt x="84" y="740" on="1"/>
        <pt x="574" y="740" on="1"/>
        <pt x="574" y="648" on="1"/>
        <pt x="198" y="648" on="1"/>
        <pt x="198" y="420" on="1"/>
        <pt x="546" y="420" on="1"/>
        <pt x="546" y="328" on="1"/>
        <pt x="198" y="328" on="1"/>
        <pt x="198" y="92" on="1"/>
        <pt x="583" y="92" on="1"/>
        <pt x="583" y="0" on="1"/>
        <pt x="84" y="0" on="1"/>
      </contour>
      <contour>
        <pt x="161" y="892" on="1"/>
        <pt x="336" y="967" on="1"/>
        <pt x="512" y="892" on="1"/>
        <pt x="512" y="808" on="1"/>
        <pt x="336" y="883" on="1"/>
        <pt x="161" y="808" on="1"/>
      </contour>
    </TTGlyph>
    <TTGlyph name="Ecircumflex.sc" xMin="80" yMin="0" xMax="527" yMax="764">
      <contour>
        <pt x="80" y="577" on="1"/>
        <pt x="520" y="577" on="1"/>
        <pt x="520" y="493" on="1"/>
        <pt x="189" y="493" on="1"/>
        <pt x="189" y="330" on="1"/>
        <pt x="494" y="330" on="1"/>
        <pt x="494" y="254" on="1"/>
        <pt x="189" y="254" on="1"/>
        <pt x="189" y="84" on="1"/>
        <pt x="527" y="84" on="1"/>
        <pt x="527" y="0" on="1"/>
        <pt x="80" y="0" on="1"/>
      </contour>
      <contour>
        <pt x="149" y="704" on="1"/>
        <pt x="307" y="764" on="1"/>
        <pt x="466" y="704" on="1"/>
        <pt x="466" y="628" on="1"/>
        <pt x="308" y="688" on="1"/>
        <pt x="149" y="628" on="1"/>
      </contour>
    </TTGlyph>
    <TTGlyph name="Edblgrave" xMin="84" yMin="0" xMax="583" yMax="953">
      <contour>
        <pt x="84" y="740" on="1"/>
        <pt x="574" y="740" on="1"/>
        <pt x="574" y="648" on="1"/>
        <pt x="198" y="648" on="1"/>
        <pt x="198" y="420" on="1"/>
        <pt x="546" y="420" on="1"/>
        <pt x="546" y="328" on="1"/>
        <pt x="198" y="328" on="1"/>
        <pt x="198" y="92" on="1"/>
        <pt x="583" y="92" on="1"/>
        <pt x="583" y="0" on="1"/>
        <pt x="84" y="0" on="1"/>
      </contour>
      <contour>
        <pt x="203" y="796" on="1"/>
        <pt x="100" y="953" on="1"/>
        <pt x="211" y="953" on="1"/>
        <pt x="282" y="809" on="1"/>
      </contour>
      <contour>
        <pt x="377" y="796" on="1"/>
        <pt x="273" y="953" on="1"/>
        <pt x="384" y="953" on="1"/>
        <pt x="456" y="809" on="1"/>
      </contour>
    </TTGlyph>
    <TTGlyph name="Edblgrave.sc" xMin="80" yMin="0" xMax="527" yMax="753">
      <contour>
        <pt x="80" y="577" on="1"/>
        <pt x="520" y="577" on="1"/>
        <pt x="520" y="493" on="1"/>
        <pt x="189" y="493" on="1"/>
        <pt x="189" y="330" on="1"/>
        <pt x="494" y="330" on="1"/>
        <pt x="494" y="254" on="1"/>
        <pt x="189" y="254" on="1"/>
        <pt x="189" y="84" on="1"/>
        <pt x="527" y="84" on="1"/>
        <pt x="527" y="0" on="1"/>
        <pt x="80" y="0" on="1"/>
      </contour>
      <contour>
        <pt x="90" y="753" on="1"/>
        <pt x="197" y="753" on="1"/>
        <pt x="258" y="632" on="1"/>
        <pt x="183" y="623" on="1"/>
      </contour>
      <contour>
        <pt x="248" y="753" on="1"/>
        <pt x="354" y="753" on="1"/>
        <pt x="416" y="632" on="1"/>
        <pt x="341" y="623" on="1"/>
      </contour>
    </TTGlyph>
    <TTGlyph name="Edieresis" xMin="84" yMin="0" xMax="583" yMax="947">
      <contour>
        <pt x="200" y="815" on="1"/>
        <pt x="165" y="815" on="0"/>
        <pt x="133" y="846" on="0"/>
        <pt x="133" y="881" on="1"/>
        <pt x="133" y="916" on="0"/>
        <pt x="165" y="947" on="0"/>
        <pt x="200" y="947" on="1"/>
        <pt x="268" y="947" on="0"/>
        <pt x="268" y="881" on="1"/>
        <pt x="268" y="846" on="0"/>
        <pt x="234" y="815" on="0"/>
      </contour>
      <contour>
        <pt x="469" y="815" on="1"/>
        <pt x="434" y="815" on="0"/>
        <pt x="401" y="846" on="0"/>
        <pt x="401" y="881" on="1"/>
        <pt x="401" y="916" on="0"/>
        <pt x="434" y="947" on="0"/>
        <pt x="469" y="947" on="1"/>
        <pt x="537" y="947" on="0"/>
        <pt x="537" y="881" on="1"/>
        <pt x="537" y="846" on="0"/>
        <pt x="503" y="815" on="0"/>
      </contour>
      <contour>
        <pt x="84" y="740" on="1"/>
        <pt x="574" y="740" on="1"/>
        <pt x="574" y="648" on="1"/>
        <pt x="198" y="648" on="1"/>
        <pt x="198" y="420" on="1"/>
        <pt x="546" y="420" on="1"/>
        <pt x="546" y="328" on="1"/>
        <pt x="198" y="328" on="1"/>
        <pt x="198" y="92" on="1"/>
        <pt x="583" y="92" on="1"/>
        <pt x="583" y="0" on="1"/>
        <pt x="84" y="0" on="1"/>
      </contour>
    </TTGlyph>
    <TTGlyph name="Edieresis.sc" xMin="80" yMin="0" xMax="527" yMax="753">
      <contour>
        <pt x="185" y="633" on="1"/>
        <pt x="152" y="633" on="0"/>
        <pt x="121" y="661" on="0"/>
        <pt x="121" y="693" on="1"/>
        <pt x="121" y="725" on="0"/>
        <pt x="152" y="753" on="0"/>
        <pt x="185" y="753" on="1"/>
        <pt x="248" y="753" on="0"/>
        <pt x="248" y="693" on="1"/>
        <pt x="248" y="661" on="0"/>
        <pt x="217" y="633" on="0"/>
      </contour>
      <contour>
        <pt x="425" y="633" on="1"/>
        <pt x="393" y="633" on="0"/>
        <pt x="362" y="661" on="0"/>
        <pt x="362" y="693" on="1"/>
        <pt x="362" y="725" on="0"/>
        <pt x="393" y="753" on="0"/>
        <pt x="425" y="753" on="1"/>
        <pt x="488" y="753" on="0"/>
        <pt x="488" y="693" on="1"/>
        <pt x="488" y="661" on="0"/>
        <pt x="457" y="633" on="0"/>
      </contour>
      <contour>
        <pt x="80" y="577" on="1"/>
        <pt x="520" y="577" on="1"/>
        <pt x="520" y="493" on="1"/>
        <pt x="189" y="493" on="1"/>
        <pt x="189" y="330" on="1"/>
        <pt x="494" y="330" on="1"/>
        <pt x="494" y="254" on="1"/>
        <pt x="189" y="254" on="1"/>
        <pt x="189" y="84" on="1"/>
        <pt x="527" y="84" on="1"/>
        <pt x="527" y="0" on="1"/>
        <pt x="80" y="0" on="1"/>
      </contour>
    </TTGlyph>
    <TTGlyph name="Edotaccent" xMin="84" yMin="0" xMax="583" yMax="942">
      <contour>
        <pt x="327" y="810" on="1"/>
        <pt x="292" y="810" on="0"/>
        <pt x="259" y="841" on="0"/>
        <pt x="259" y="876" on="1"/>
        <pt x="259" y="911" on="0"/>
        <pt x="292" y="942" on="0"/>
        <pt x="327" y="942" on="1"/>
        <pt x="362" y="942" on="0"/>
        <pt x="395" y="911" on="0"/>
        <pt x="395" y="876" on="1"/>
        <pt x="395" y="810" on="0"/>
      </contour>
      <contour>
        <pt x="84" y="740" on="1"/>
        <pt x="574" y="740" on="1"/>
        <pt x="574" y="648" on="1"/>
        <pt x="198" y="648" on="1"/>
        <pt x="198" y="420" on="1"/>
        <pt x="546" y="420" on="1"/>
        <pt x="546" y="328" on="1"/>
        <pt x="198" y="328" on="1"/>
        <pt x="198" y="92" on="1"/>
        <pt x="583" y="92" on="1"/>
        <pt x="583" y="0" on="1"/>
        <pt x="84" y="0" on="1"/>
      </contour>
    </TTGlyph>
    <TTGlyph name="Edotaccent.sc" xMin="80" yMin="0" xMax="527" yMax="750">
      <contour>
        <pt x="298" y="630" on="1"/>
        <pt x="265" y="630" on="0"/>
        <pt x="235" y="658" on="0"/>
        <pt x="235" y="690" on="1"/>
        <pt x="235" y="722" on="0"/>
        <pt x="265" y="750" on="0"/>
        <pt x="298" y="750" on="1"/>
        <pt x="361" y="750" on="0"/>
        <pt x="361" y="690" on="1"/>
        <pt x="361" y="630" on="0"/>
      </contour>
      <contour>
        <pt x="80" y="577" on="1"/>
        <pt x="520" y="577" on="1"/>
        <pt x="520" y="493" on="1"/>
        <pt x="189" y="493" on="1"/>
        <pt x="189" y="330" on="1"/>
        <pt x="494" y="330" on="1"/>
        <pt x="494" y="254" on="1"/>
        <pt x="189" y="254" on="1"/>
        <pt x="189" y="84" on="1"/>
        <pt x="527" y="84" on="1"/>
        <pt x="527" y="0" on="1"/>
        <pt x="80" y="0" on="1"/>
      </contour>
    </TTGlyph>
    <TTGlyph name="Edotbelow" xMin="84" yMin="-189" xMax="583" yMax="740">
      <contour>
        <pt x="84" y="740" on="1"/>
        <pt x="574" y="740" on="1"/>
        <pt x="574" y="648" on="1"/>
        <pt x="198" y="648" on="1"/>
        <pt x="198" y="420" on="1"/>
        <pt x="546" y="420" on="1"/>
        <pt x="546" y="328" on="1"/>
        <pt x="198" y="328" on="1"/>
        <pt x="198" y="92" on="1"/>
        <pt x="583" y="92" on="1"/>
        <pt x="583" y="0" on="1"/>
        <pt x="84" y="0" on="1"/>
      </contour>
      <contour>
        <pt x="347" y="-189" on="1"/>
        <pt x="318" y="-189" on="0"/>
        <pt x="289" y="-163" on="0"/>
        <pt x="289" y="-133" on="1"/>
        <pt x="289" y="-103" on="0"/>
        <pt x="318" y="-76" on="0"/>
        <pt x="347" y="-76" on="1"/>
        <pt x="377" y="-76" on="0"/>
        <pt x="406" y="-103" on="0"/>
        <pt x="406" y="-133" on="1"/>
        <pt x="406" y="-163" on="0"/>
        <pt x="377" y="-189" on="0"/>
      </contour>
    </TTGlyph>
    <TTGlyph name="Edotbelow.sc" xMin="80" yMin="-153" xMax="527" yMax="577">
      <contour>
        <pt x="316" y="-153" on="1"/>
        <pt x="288" y="-153" on="0"/>
        <pt x="263" y="-130" on="0"/>
        <pt x="263" y="-104" on="1"/>
        <pt x="263" y="-54" on="0"/>
        <pt x="316" y="-54" on="1"/>
        <pt x="370" y="-54" on="0"/>
        <pt x="370" y="-104" on="1"/>
        <pt x="370" y="-153" on="0"/>
      </contour>
      <contour>
        <pt x="80" y="577" on="1"/>
        <pt x="520" y="577" on="1"/>
        <pt x="520" y="493" on="1"/>
        <pt x="189" y="493" on="1"/>
        <pt x="189" y="330" on="1"/>
        <pt x="494" y="330" on="1"/>
        <pt x="494" y="254" on="1"/>
        <pt x="189" y="254" on="1"/>
        <pt x="189" y="84" on="1"/>
        <pt x="527" y="84" on="1"/>
        <pt x="527" y="0" on="1"/>
        <pt x="80" y="0" on="1"/>
      </contour>
    </TTGlyph>
    <TTGlyph name="Egrave" xMin="84" yMin="0" xMax="583" yMax="957">
      <contour>
        <pt x="299" y="801" on="1"/>
        <pt x="195" y="957" on="1"/>
        <pt x="312" y="957" on="1"/>
        <pt x="384" y="813" on="1"/>
      </contour>
      <contour>
        <pt x="84" y="740" on="1"/>
        <pt x="574" y="740" on="1"/>
        <pt x="574" y="648" on="1"/>
        <pt x="198" y="648" on="1"/>
        <pt x="198" y="420" on="1"/>
        <pt x="546" y="420" on="1"/>
        <pt x="546" y="328" on="1"/>
        <pt x="198" y="328" on="1"/>
        <pt x="198" y="92" on="1"/>
        <pt x="583" y="92" on="1"/>
        <pt x="583" y="0" on="1"/>
        <pt x="84" y="0" on="1"/>
      </contour>
    </TTGlyph>
    <TTGlyph name="Egrave.sc" xMin="80" yMin="0" xMax="527" yMax="756">
      <contour>
        <pt x="80" y="577" on="1"/>
        <pt x="520" y="577" on="1"/>
        <pt x="520" y="493" on="1"/>
        <pt x="189" y="493" on="1"/>
        <pt x="189" y="330" on="1"/>
        <pt x="494" y="330" on="1"/>
        <pt x="494" y="254" on="1"/>
        <pt x="189" y="254" on="1"/>
        <pt x="189" y="84" on="1"/>
        <pt x="527" y="84" on="1"/>
        <pt x="527" y="0" on="1"/>
        <pt x="80" y="0" on="1"/>
      </contour>
      <contour>
        <pt x="179" y="756" on="1"/>
        <pt x="290" y="756" on="1"/>
        <pt x="352" y="635" on="1"/>
        <pt x="272" y="626" on="1"/>
      </contour>
    </TTGlyph>
    <TTGlyph name="Einvertedbreve" xMin="84" yMin="0" xMax="583" yMax="974">
      <contour>
        <pt x="84" y="740" on="1"/>
        <pt x="574" y="740" on="1"/>
        <pt x="574" y="648" on="1"/>
        <pt x="198" y="648" on="1"/>
        <pt x="198" y="420" on="1"/>
        <pt x="546" y="420" on="1"/>
        <pt x="546" y="328" on="1"/>
        <pt x="198" y="328" on="1"/>
        <pt x="198" y="92" on="1"/>
        <pt x="583" y="92" on="1"/>
        <pt x="583" y="0" on="1"/>
        <pt x="84" y="0" on="1"/>
      </contour>
      <contour>
        <pt x="442" y="818" on="1"/>
        <pt x="442" y="863" on="0"/>
        <pt x="388" y="913" on="0"/>
        <pt x="331" y="913" on="1"/>
        <pt x="273" y="913" on="0"/>
        <pt x="218" y="863" on="0"/>
        <pt x="218" y="818" on="1"/>
        <pt x="139" y="818" on="1"/>
        <pt x="139" y="888" on="0"/>
        <pt x="231" y="974" on="0"/>
        <pt x="331" y="974" on="1"/>
        <pt x="430" y="974" on="0"/>
        <pt x="523" y="889" on="0"/>
        <pt x="523" y="818" on="1"/>
      </contour>
    </TTGlyph>
    <TTGlyph name="Einvertedbreve.sc" xMin="80" yMin="0" xMax="527" yMax="767">
      <contour>
        <pt x="128" y="638" on="1"/>
        <pt x="128" y="666" on="0"/>
        <pt x="148" y="713" on="0"/>
        <pt x="190" y="747" on="0"/>
        <pt x="256" y="767" on="0"/>
        <pt x="301" y="767" on="1"/>
        <pt x="391" y="767" on="0"/>
        <pt x="474" y="695" on="0"/>
        <pt x="474" y="638" on="1"/>
        <pt x="399" y="638" on="1"/>
        <pt x="399" y="673" on="0"/>
        <pt x="353" y="711" on="0"/>
        <pt x="301" y="711" on="1"/>
        <pt x="249" y="711" on="0"/>
        <pt x="203" y="673" on="0"/>
        <pt x="203" y="638" on="1"/>
      </contour>
      <contour>
        <pt x="80" y="577" on="1"/>
        <pt x="520" y="577" on="1"/>
        <pt x="520" y="493" on="1"/>
        <pt x="189" y="493" on="1"/>
        <pt x="189" y="330" on="1"/>
        <pt x="494" y="330" on="1"/>
        <pt x="494" y="254" on="1"/>
        <pt x="189" y="254" on="1"/>
        <pt x="189" y="84" on="1"/>
        <pt x="527" y="84" on="1"/>
        <pt x="527" y="0" on="1"/>
        <pt x="80" y="0" on="1"/>
      </contour>
    </TTGlyph>
    <TTGlyph name="Emacron" xMin="84" yMin="0" xMax="583" yMax="921">
      <contour>
        <pt x="159" y="921" on="1"/>
        <pt x="501" y="921" on="1"/>
        <pt x="501" y="841" on="1"/>
        <pt x="159" y="841" on="1"/>
      </contour>
      <contour>
        <pt x="84" y="740" on="1"/>
        <pt x="574" y="740" on="1"/>
        <pt x="574" y="648" on="1"/>
        <pt x="198" y="648" on="1"/>
        <pt x="198" y="420" on="1"/>
        <pt x="546" y="420" on="1"/>
        <pt x="546" y="328" on="1"/>
        <pt x="198" y="328" on="1"/>
        <pt x="198" y="92" on="1"/>
        <pt x="583" y="92" on="1"/>
        <pt x="583" y="0" on="1"/>
        <pt x="84" y="0" on="1"/>
      </contour>
    </TTGlyph>
    <TTGlyph name="Emacron.sc" xMin="80" yMin="0" xMax="527" yMax="730">
      <contour>
        <pt x="80" y="577" on="1"/>
        <pt x="520" y="577" on="1"/>
        <pt x="520" y="493" on="1"/>
        <pt x="189" y="493" on="1"/>
        <pt x="189" y="330" on="1"/>
        <pt x="494" y="330" on="1"/>
        <pt x="494" y="254" on="1"/>
        <pt x="189" y="254" on="1"/>
        <pt x="189" y="84" on="1"/>
        <pt x="527" y="84" on="1"/>
        <pt x="527" y="0" on="1"/>
        <pt x="80" y="0" on="1"/>
      </contour>
      <contour>
        <pt x="146" y="730" on="1"/>
        <pt x="457" y="730" on="1"/>
        <pt x="457" y="656" on="1"/>
        <pt x="146" y="656" on="1"/>
      </contour>
    </TTGlyph>
    <TTGlyph name="Eng" xMin="84" yMin="-196" xMax="707" yMax="740">
      <contour>
        <pt x="521" y="-172" on="1"/>
        <pt x="549" y="-118" on="0"/>
        <pt x="585" y="-15" on="0"/>
        <pt x="590" y="29" on="1"/>
        <pt x="254" y="480" on="1"/>
        <pt x="194" y="568" on="1"/>
        <pt x="187" y="568" on="1"/>
        <pt x="187" y="0" on="1"/>
        <pt x="84" y="0" on="1"/>
        <pt x="84" y="740" on="1"/>
        <pt x="176" y="740" on="1"/>
        <pt x="537" y="258" on="1"/>
        <pt x="596" y="171" on="1"/>
        <pt x="604" y="171" on="1"/>
        <pt x="604" y="740" on="1"/>
        <pt x="707" y="740" on="1"/>
        <pt x="707" y="95" on="1"/>
        <pt x="707" y="66" on="0"/>
        <pt x="690" y="-9" on="0"/>
        <pt x="662" y="-87" on="0"/>
        <pt x="622" y="-164" on="0"/>
        <pt x="600" y="-196" on="1"/>
      </contour>
    </TTGlyph>
    <TTGlyph name="Eng.sc" xMin="80" yMin="-158" xMax="626" yMax="577">
      <contour>
        <pt x="461" y="-134" on="1"/>
        <pt x="510" y="-43" on="0"/>
        <pt x="521" y="21" on="1"/>
        <pt x="239" y="349" on="1"/>
        <pt x="184" y="419" on="1"/>
        <pt x="177" y="419" on="1"/>
        <pt x="177" y="0" on="1"/>
        <pt x="80" y="0" on="1"/>
        <pt x="80" y="577" on="1"/>
        <pt x="167" y="577" on="1"/>
        <pt x="469" y="225" on="1"/>
        <pt x="522" y="157" on="1"/>
        <pt x="528" y="157" on="1"/>
        <pt x="528" y="577" on="1"/>
        <pt x="626" y="577" on="1"/>
        <pt x="626" y="82" on="1"/>
        <pt x="626" y="57" on="0"/>
        <pt x="613" y="-2" on="0"/>
        <pt x="589" y="-65" on="0"/>
        <pt x="555" y="-129" on="0"/>
        <pt x="535" y="-158" on="1"/>
      </contour>
    </TTGlyph>
    <TTGlyph name="Eogonek" xMin="84" yMin="-220" xMax="583" yMax="740">
      <contour>
        <pt x="84" y="740" on="1"/>
        <pt x="574" y="740" on="1"/>
        <pt x="574" y="648" on="1"/>
        <pt x="198" y="648" on="1"/>
        <pt x="198" y="420" on="1"/>
        <pt x="546" y="420" on="1"/>
        <pt x="546" y="328" on="1"/>
        <pt x="198" y="328" on="1"/>
        <pt x="198" y="92" on="1"/>
        <pt x="583" y="92" on="1"/>
        <pt x="583" y="-15" on="1"/>
        <pt x="520" y="-44" on="0"/>
        <pt x="466" y="-97" on="0"/>
        <pt x="466" y="-123" on="1"/>
        <pt x="466" y="-154" on="0"/>
        <pt x="508" y="-154" on="1"/>
        <pt x="522" y="-154" on="0"/>
        <pt x="564" y="-148" on="0"/>
        <pt x="583" y="-143" on="1"/>
        <pt x="583" y="-208" on="1"/>
        <pt x="550" y="-220" on="0"/>
        <pt x="506" y="-220" on="1"/>
        <pt x="389" y="-220" on="0"/>
        <pt x="389" y="-133" on="1"/>
        <pt x="389" y="-96" on="0"/>
        <pt x="437" y="-33" on="0"/>
        <pt x="491" y="0" on="1"/>
        <pt x="84" y="0" on="1"/>
      </contour>
    </TTGlyph>
    <TTGlyph name="Eogonek.sc" xMin="80" yMin="-172" xMax="527" yMax="577">
      <contour>
        <pt x="457" y="-172" on="1"/>
        <pt x="402" y="-172" on="0"/>
        <pt x="351" y="-137" on="0"/>
        <pt x="351" y="-102" on="1"/>
        <pt x="351" y="-72" on="0"/>
        <pt x="390" y="-25" on="0"/>
        <pt x="436" y="0" on="1"/>
        <pt x="80" y="0" on="1"/>
        <pt x="80" y="577" on="1"/>
        <pt x="520" y="577" on="1"/>
        <pt x="520" y="493" on="1"/>
        <pt x="189" y="493" on="1"/>
        <pt x="189" y="330" on="1"/>
        <pt x="494" y="330" on="1"/>
        <pt x="494" y="254" on="1"/>
        <pt x="189" y="254" on="1"/>
        <pt x="189" y="84" on="1"/>
        <pt x="527" y="84" on="1"/>
        <pt x="527" y="-10" on="1"/>
        <pt x="469" y="-32" on="0"/>
        <pt x="423" y="-68" on="0"/>
        <pt x="423" y="-88" on="1"/>
        <pt x="423" y="-102" on="0"/>
        <pt x="442" y="-112" on="0"/>
        <pt x="459" y="-112" on="1"/>
        <pt x="473" y="-112" on="0"/>
        <pt x="513" y="-106" on="0"/>
        <pt x="527" y="-102" on="1"/>
        <pt x="527" y="-162" on="1"/>
        <pt x="510" y="-167" on="0"/>
        <pt x="475" y="-172" on="0"/>
      </contour>
    </TTGlyph>
    <TTGlyph name="Eth" xMin="4" yMin="-11" xMax="709" yMax="749">
      <contour>
        <pt x="4" y="415" on="1"/>
        <pt x="98" y="415" on="1"/>
        <pt x="98" y="738" on="1"/>
        <pt x="158" y="743" on="0"/>
        <pt x="277" y="749" on="0"/>
        <pt x="318" y="749" on="1"/>
        <pt x="520" y="749" on="0"/>
        <pt x="709" y="566" on="0"/>
        <pt x="709" y="370" on="1"/>
        <pt x="709" y="270" on="0"/>
        <pt x="661" y="126" on="0"/>
        <pt x="561" y="33" on="0"/>
        <pt x="403" y="-11" on="0"/>
        <pt x="294" y="-11" on="1"/>
        <pt x="235" y="-11" on="0"/>
        <pt x="129" y="-4" on="0"/>
        <pt x="98" y="3" on="1"/>
        <pt x="98" y="326" on="1"/>
        <pt x="4" y="326" on="1"/>
      </contour>
      <contour>
        <pt x="332" y="82" on="1"/>
        <pt x="401" y="82" on="0"/>
        <pt x="499" y="115" on="0"/>
        <pt x="562" y="184" on="0"/>
        <pt x="592" y="293" on="0"/>
        <pt x="592" y="370" on="1"/>
        <pt x="592" y="446" on="0"/>
        <pt x="562" y="554" on="0"/>
        <pt x="499" y="623" on="0"/>
        <pt x="401" y="655" on="0"/>
        <pt x="332" y="655" on="1"/>
        <pt x="307" y="655" on="0"/>
        <pt x="242" y="651" on="0"/>
        <pt x="211" y="648" on="1"/>
        <pt x="211" y="415" on="1"/>
        <pt x="376" y="415" on="1"/>
        <pt x="376" y="326" on="1"/>
        <pt x="211" y="326" on="1"/>
        <pt x="211" y="92" on="1"/>
        <pt x="245" y="87" on="0"/>
        <pt x="300" y="82" on="0"/>
      </contour>
    </TTGlyph>
    <TTGlyph name="Eth.sc" xMin="12" yMin="-8" xMax="641" yMax="584">
      <contour>
        <pt x="12" y="329" on="1"/>
        <pt x="94" y="329" on="1"/>
        <pt x="94" y="576" on="1"/>
        <pt x="149" y="580" on="0"/>
        <pt x="258" y="584" on="0"/>
        <pt x="294" y="584" on="1"/>
        <pt x="474" y="584" on="0"/>
        <pt x="641" y="442" on="0"/>
        <pt x="641" y="288" on="1"/>
        <pt x="641" y="210" on="0"/>
        <pt x="599" y="98" on="0"/>
        <pt x="509" y="26" on="0"/>
        <pt x="368" y="-8" on="0"/>
        <pt x="270" y="-8" on="1"/>
        <pt x="217" y="-8" on="0"/>
        <pt x="121" y="-2" on="0"/>
        <pt x="94" y="3" on="1"/>
        <pt x="94" y="249" on="1"/>
        <pt x="12" y="249" on="1"/>
      </contour>
      <contour>
        <pt x="309" y="80" on="1"/>
        <pt x="368" y="80" on="0"/>
        <pt x="452" y="103" on="0"/>
        <pt x="505" y="153" on="0"/>
        <pt x="530" y="232" on="0"/>
        <pt x="530" y="288" on="1"/>
        <pt x="530" y="400" on="0"/>
        <pt x="426" y="496" on="0"/>
        <pt x="308" y="496" on="1"/>
        <pt x="286" y="496" on="0"/>
        <pt x="230" y="493" on="0"/>
        <pt x="202" y="491" on="1"/>
        <pt x="202" y="329" on="1"/>
        <pt x="342" y="329" on="1"/>
        <pt x="342" y="249" on="1"/>
        <pt x="202" y="249" on="1"/>
        <pt x="202" y="87" on="1"/>
        <pt x="231" y="83" on="0"/>
        <pt x="281" y="80" on="0"/>
      </contour>
    </TTGlyph>
    <TTGlyph name="Etilde" xMin="84" yMin="0" xMax="583" yMax="948">
      <contour>
        <pt x="125" y="860" on="1"/>
        <pt x="154" y="903" on="0"/>
        <pt x="226" y="948" on="0"/>
        <pt x="260" y="948" on="1"/>
        <pt x="284" y="948" on="0"/>
        <pt x="328" y="935" on="0"/>
        <pt x="371" y="920" on="0"/>
        <pt x="414" y="907" on="0"/>
        <pt x="437" y="907" on="1"/>
        <pt x="460" y="907" on="0"/>
        <pt x="504" y="925" on="0"/>
        <pt x="528" y="945" on="1"/>
        <pt x="552" y="917" on="1"/>
        <pt x="523" y="874" on="0"/>
        <pt x="449" y="829" on="0"/>
        <pt x="413" y="829" on="1"/>
        <pt x="390" y="829" on="0"/>
        <pt x="347" y="841" on="0"/>
        <pt x="304" y="856" on="0"/>
        <pt x="261" y="868" on="0"/>
        <pt x="239" y="868" on="1"/>
        <pt x="216" y="868" on="0"/>
        <pt x="172" y="852" on="0"/>
        <pt x="149" y="832" on="1"/>
      </contour>
      <contour>
        <pt x="84" y="740" on="1"/>
        <pt x="574" y="740" on="1"/>
        <pt x="574" y="648" on="1"/>
        <pt x="198" y="648" on="1"/>
        <pt x="198" y="420" on="1"/>
        <pt x="546" y="420" on="1"/>
        <pt x="546" y="328" on="1"/>
        <pt x="198" y="328" on="1"/>
        <pt x="198" y="92" on="1"/>
        <pt x="583" y="92" on="1"/>
        <pt x="583" y="0" on="1"/>
        <pt x="84" y="0" on="1"/>
      </contour>
    </TTGlyph>
    <TTGlyph name="Etilde.sc" xMin="80" yMin="0" xMax="527" yMax="750">
      <contour>
        <pt x="116" y="671" on="1"/>
        <pt x="142" y="710" on="0"/>
        <pt x="207" y="750" on="0"/>
        <pt x="238" y="750" on="1"/>
        <pt x="260" y="750" on="0"/>
        <pt x="299" y="740" on="0"/>
        <pt x="338" y="729" on="0"/>
        <pt x="377" y="719" on="0"/>
        <pt x="398" y="719" on="1"/>
        <pt x="418" y="719" on="0"/>
        <pt x="457" y="732" on="0"/>
        <pt x="479" y="748" on="1"/>
        <pt x="500" y="725" on="1"/>
        <pt x="474" y="686" on="0"/>
        <pt x="407" y="645" on="0"/>
        <pt x="375" y="645" on="1"/>
        <pt x="354" y="645" on="0"/>
        <pt x="314" y="655" on="0"/>
        <pt x="275" y="666" on="0"/>
        <pt x="236" y="676" on="0"/>
        <pt x="216" y="676" on="1"/>
        <pt x="196" y="676" on="0"/>
        <pt x="157" y="664" on="0"/>
        <pt x="136" y="647" on="1"/>
      </contour>
      <contour>
        <pt x="80" y="577" on="1"/>
        <pt x="520" y="577" on="1"/>
        <pt x="520" y="493" on="1"/>
        <pt x="189" y="493" on="1"/>
        <pt x="189" y="330" on="1"/>
        <pt x="494" y="330" on="1"/>
        <pt x="494" y="254" on="1"/>
        <pt x="189" y="254" on="1"/>
        <pt x="189" y="84" on="1"/>
        <pt x="527" y="84" on="1"/>
        <pt x="527" y="0" on="1"/>
        <pt x="80" y="0" on="1"/>
      </contour>
    </TTGlyph>
    <TTGlyph name="Euro" xMin="41" yMin="-10" xMax="610" yMax="749">
      <contour>
        <pt x="41" y="488" on="1"/>
        <pt x="130" y="488" on="1"/>
        <pt x="153" y="623" on="0"/>
        <pt x="327" y="749" on="0"/>
        <pt x="490" y="749" on="1"/>
        <pt x="532" y="749" on="0"/>
        <pt x="588" y="742" on="0"/>
        <pt x="610" y="739" on="1"/>
        <pt x="578" y="646" on="1"/>
        <pt x="567" y="648" on="0"/>
        <pt x="531" y="651" on="0"/>
        <pt x="511" y="651" on="1"/>
        <pt x="448" y="651" on="0"/>
        <pt x="356" y="634" on="0"/>
        <pt x="292" y="596" on="0"/>
        <pt x="254" y="533" on="0"/>
        <pt x="245" y="488" on="1"/>
        <pt x="530" y="488" on="1"/>
        <pt x="512" y="419" on="1"/>
        <pt x="237" y="419" on="1"/>
        <pt x="236" y="407" on="0"/>
        <pt x="236" y="383" on="0"/>
        <pt x="236" y="370" on="1"/>
        <pt x="236" y="356" on="0"/>
        <pt x="236" y="331" on="0"/>
        <pt x="237" y="320" on="1"/>
        <pt x="493" y="320" on="1"/>
        <pt x="475" y="251" on="1"/>
        <pt x="246" y="251" on="1"/>
        <pt x="255" y="206" on="0"/>
        <pt x="294" y="144" on="0"/>
        <pt x="357" y="105" on="0"/>
        <pt x="447" y="88" on="0"/>
        <pt x="509" y="88" on="1"/>
        <pt x="529" y="88" on="0"/>
        <pt x="575" y="91" on="0"/>
        <pt x="599" y="96" on="1"/>
        <pt x="599" y="-1" on="1"/>
        <pt x="564" y="-10" on="0"/>
        <pt x="496" y="-10" on="1"/>
        <pt x="331" y="-8" on="0"/>
        <pt x="154" y="117" on="0"/>
        <pt x="130" y="251" on="1"/>
        <pt x="41" y="251" on="1"/>
        <pt x="41" y="320" on="1"/>
        <pt x="122" y="320" on="1"/>
        <pt x="121" y="332" on="0"/>
        <pt x="121" y="356" on="0"/>
        <pt x="121" y="369" on="1"/>
        <pt x="121" y="382" on="0"/>
        <pt x="121" y="407" on="0"/>
        <pt x="122" y="419" on="1"/>
        <pt x="41" y="419" on="1"/>
      </contour>
    </TTGlyph>
    <TTGlyph name="Euro.tab" xMin="15" yMin="-10" xMax="564" yMax="749">
      <contour>
        <pt x="15" y="488" on="1"/>
        <pt x="102" y="488" on="1"/>
        <pt x="124" y="624" on="0"/>
        <pt x="290" y="749" on="0"/>
        <pt x="446" y="749" on="1"/>
        <pt x="486" y="749" on="0"/>
        <pt x="542" y="742" on="0"/>
        <pt x="564" y="739" on="1"/>
        <pt x="533" y="646" on="1"/>
        <pt x="522" y="648" on="0"/>
        <pt x="486" y="651" on="0"/>
        <pt x="467" y="651" on="1"/>
        <pt x="353" y="651" on="0"/>
        <pt x="235" y="577" on="0"/>
        <pt x="218" y="488" on="1"/>
        <pt x="486" y="488" on="1"/>
        <pt x="470" y="419" on="1"/>
        <pt x="206" y="419" on="1"/>
        <pt x="205" y="410" on="0"/>
        <pt x="205" y="381" on="0"/>
        <pt x="205" y="370" on="1"/>
        <pt x="205" y="359" on="0"/>
        <pt x="205" y="330" on="0"/>
        <pt x="206" y="320" on="1"/>
        <pt x="452" y="320" on="1"/>
        <pt x="435" y="251" on="1"/>
        <pt x="218" y="251" on="1"/>
        <pt x="237" y="165" on="0"/>
        <pt x="354" y="88" on="0"/>
        <pt x="466" y="88" on="1"/>
        <pt x="486" y="88" on="0"/>
        <pt x="530" y="91" on="0"/>
        <pt x="553" y="96" on="1"/>
        <pt x="553" y="-1" on="1"/>
        <pt x="536" y="-6" on="0"/>
        <pt x="484" y="-10" on="0"/>
        <pt x="452" y="-10" on="1"/>
        <pt x="294" y="-8" on="0"/>
        <pt x="125" y="117" on="0"/>
        <pt x="102" y="251" on="1"/>
        <pt x="15" y="251" on="1"/>
        <pt x="15" y="320" on="1"/>
        <pt x="93" y="320" on="1"/>
        <pt x="92" y="331" on="0"/>
        <pt x="92" y="358" on="0"/>
        <pt x="92" y="369" on="1"/>
        <pt x="92" y="380" on="0"/>
        <pt x="92" y="409" on="0"/>
        <pt x="93" y="419" on="1"/>
        <pt x="15" y="419" on="1"/>
      </contour>
    </TTGlyph>
    <TTGlyph name="F" xMin="84" yMin="0" xMax="570" yMax="740">
      <contour>
        <pt x="84" y="740" on="1"/>
        <pt x="570" y="740" on="1"/>
        <pt x="570" y="648" on="1"/>
        <pt x="198" y="648" on="1"/>
        <pt x="198" y="409" on="1"/>
        <pt x="535" y="409" on="1"/>
        <pt x="535" y="317" on="1"/>
        <pt x="198" y="317" on="1"/>
        <pt x="198" y="0" on="1"/>
        <pt x="84" y="0" on="1"/>
      </contour>
    </TTGlyph>
    <TTGlyph name="F.sc" xMin="80" yMin="0" xMax="517" yMax="577">
      <contour>
        <pt x="80" y="577" on="1"/>
        <pt x="517" y="577" on="1"/>
        <pt x="517" y="491" on="1"/>
        <pt x="189" y="491" on="1"/>
        <pt x="189" y="319" on="1"/>
        <pt x="486" y="319" on="1"/>
        <pt x="486" y="240" on="1"/>
        <pt x="189" y="240" on="1"/>
        <pt x="189" y="0" on="1"/>
        <pt x="80" y="0" on="1"/>
      </contour>
    </TTGlyph>
    <TTGlyph name="F_B.sc" xMin="80" yMin="-8" xMax="1110" yMax="584">
      <contour>
        <pt x="80" y="577" on="1"/>
        <pt x="517" y="577" on="1"/>
        <pt x="517" y="491" on="1"/>
        <pt x="189" y="491" on="1"/>
        <pt x="189" y="319" on="1"/>
        <pt x="486" y="319" on="1"/>
        <pt x="486" y="240" on="1"/>
        <pt x="189" y="240" on="1"/>
        <pt x="189" y="0" on="1"/>
        <pt x="80" y="0" on="1"/>
      </contour>
      <contour>
        <pt x="846" y="-8" on="1"/>
        <pt x="738" y="-8" on="0"/>
        <pt x="614" y="4" on="1"/>
        <pt x="614" y="573" on="1"/>
        <pt x="680" y="579" on="0"/>
        <pt x="782" y="584" on="0"/>
        <pt x="830" y="584" on="1"/>
        <pt x="967" y="584" on="0"/>
        <pt x="1088" y="509" on="0"/>
        <pt x="1088" y="425" on="1"/>
        <pt x="1088" y="375" on="0"/>
        <pt x="1029" y="308" on="0"/>
        <pt x="975" y="297" on="1"/>
        <pt x="975" y="294" on="1"/>
        <pt x="1041" y="283" on="0"/>
        <pt x="1110" y="212" on="0"/>
        <pt x="1110" y="155" on="1"/>
        <pt x="1110" y="-8" on="0"/>
      </contour>
      <contour>
        <pt x="844" y="69" on="1"/>
        <pt x="925" y="69" on="0"/>
        <pt x="1001" y="115" on="0"/>
        <pt x="1001" y="164" on="1"/>
        <pt x="1001" y="213" on="0"/>
        <pt x="931" y="257" on="0"/>
        <pt x="853" y="257" on="1"/>
        <pt x="718" y="257" on="1"/>
        <pt x="718" y="75" on="1"/>
        <pt x="737" y="72" on="0"/>
        <pt x="794" y="69" on="0"/>
      </contour>
      <contour>
        <pt x="845" y="327" on="1"/>
        <pt x="919" y="327" on="0"/>
        <pt x="981" y="368" on="0"/>
        <pt x="981" y="418" on="1"/>
        <pt x="981" y="467" on="0"/>
        <pt x="915" y="507" on="0"/>
        <pt x="835" y="507" on="1"/>
        <pt x="800" y="507" on="0"/>
        <pt x="742" y="505" on="0"/>
        <pt x="718" y="502" on="1"/>
        <pt x="718" y="327" on="1"/>
      </contour>
    </TTGlyph>
    <TTGlyph name="F_F.sc" xMin="80" yMin="0" xMax="1051" yMax="577">
      <contour>
        <pt x="80" y="577" on="1"/>
        <pt x="517" y="577" on="1"/>
        <pt x="517" y="491" on="1"/>
        <pt x="189" y="491" on="1"/>
        <pt x="189" y="319" on="1"/>
        <pt x="486" y="319" on="1"/>
        <pt x="486" y="240" on="1"/>
        <pt x="189" y="240" on="1"/>
        <pt x="189" y="0" on="1"/>
        <pt x="80" y="0" on="1"/>
      </contour>
      <contour>
        <pt x="614" y="577" on="1"/>
        <pt x="1051" y="577" on="1"/>
        <pt x="1051" y="491" on="1"/>
        <pt x="723" y="491" on="1"/>
        <pt x="723" y="319" on="1"/>
        <pt x="1020" y="319" on="1"/>
        <pt x="1020" y="240" on="1"/>
        <pt x="723" y="240" on="1"/>
        <pt x="723" y="0" on="1"/>
        <pt x="614" y="0" on="1"/>
      </contour>
    </TTGlyph>
    <TTGlyph name="F_F_B.sc" xMin="80" yMin="-8" xMax="1643" yMax="584">
      <contour>
        <pt x="80" y="577" on="1"/>
        <pt x="517" y="577" on="1"/>
        <pt x="517" y="491" on="1"/>
        <pt x="189" y="491" on="1"/>
        <pt x="189" y="319" on="1"/>
        <pt x="486" y="319" on="1"/>
        <pt x="486" y="240" on="1"/>
        <pt x="189" y="240" on="1"/>
        <pt x="189" y="0" on="1"/>
        <pt x="80" y="0" on="1"/>
      </contour>
      <contour>
        <pt x="614" y="577" on="1"/>
        <pt x="1051" y="577" on="1"/>
        <pt x="1051" y="491" on="1"/>
        <pt x="723" y="491" on="1"/>
        <pt x="723" y="319" on="1"/>
        <pt x="1020" y="319" on="1"/>
        <pt x="1020" y="240" on="1"/>
        <pt x="723" y="240" on="1"/>
        <pt x="723" y="0" on="1"/>
        <pt x="614" y="0" on="1"/>
      </contour>
      <contour>
        <pt x="1379" y="-8" on="1"/>
        <pt x="1271" y="-8" on="0"/>
        <pt x="1147" y="4" on="1"/>
        <pt x="1147" y="573" on="1"/>
        <pt x="1213" y="579" on="0"/>
        <pt x="1315" y="584" on="0"/>
        <pt x="1363" y="584" on="1"/>
        <pt x="1500" y="584" on="0"/>
        <pt x="1621" y="509" on="0"/>
        <pt x="1621" y="425" on="1"/>
        <pt x="1621" y="375" on="0"/>
        <pt x="1562" y="308" on="0"/>
        <pt x="1508" y="297" on="1"/>
        <pt x="1508" y="294" on="1"/>
        <pt x="1574" y="283" on="0"/>
        <pt x="1643" y="212" on="0"/>
        <pt x="1643" y="155" on="1"/>
        <pt x="1643" y="-8" on="0"/>
      </contour>
      <contour>
        <pt x="1377" y="69" on="1"/>
        <pt x="1458" y="69" on="0"/>
        <pt x="1534" y="115" on="0"/>
        <pt x="1534" y="164" on="1"/>
        <pt x="1534" y="213" on="0"/>
        <pt x="1464" y="257" on="0"/>
        <pt x="1386" y="257" on="1"/>
        <pt x="1251" y="257" on="1"/>
        <pt x="1251" y="75" on="1"/>
        <pt x="1270" y="72" on="0"/>
        <pt x="1327" y="69" on="0"/>
      </contour>
      <contour>
        <pt x="1378" y="327" on="1"/>
        <pt x="1452" y="327" on="0"/>
        <pt x="1514" y="368" on="0"/>
        <pt x="1514" y="418" on="1"/>
        <pt x="1514" y="467" on="0"/>
        <pt x="1448" y="507" on="0"/>
        <pt x="1368" y="507" on="1"/>
        <pt x="1333" y="507" on="0"/>
        <pt x="1275" y="505" on="0"/>
        <pt x="1251" y="502" on="1"/>
        <pt x="1251" y="327" on="1"/>
      </contour>
    </TTGlyph>
    <TTGlyph name="F_F_H.sc" xMin="80" yMin="0" xMax="1698" yMax="577">
      <contour>
        <pt x="80" y="577" on="1"/>
        <pt x="517" y="577" on="1"/>
        <pt x="517" y="491" on="1"/>
        <pt x="189" y="491" on="1"/>
        <pt x="189" y="319" on="1"/>
        <pt x="486" y="319" on="1"/>
        <pt x="486" y="240" on="1"/>
        <pt x="189" y="240" on="1"/>
        <pt x="189" y="0" on="1"/>
        <pt x="80" y="0" on="1"/>
      </contour>
      <contour>
        <pt x="614" y="577" on="1"/>
        <pt x="1051" y="577" on="1"/>
        <pt x="1051" y="491" on="1"/>
        <pt x="723" y="491" on="1"/>
        <pt x="723" y="319" on="1"/>
        <pt x="1020" y="319" on="1"/>
        <pt x="1020" y="240" on="1"/>
        <pt x="723" y="240" on="1"/>
        <pt x="723" y="0" on="1"/>
        <pt x="614" y="0" on="1"/>
      </contour>
      <contour>
        <pt x="1147" y="577" on="1"/>
        <pt x="1256" y="577" on="1"/>
        <pt x="1256" y="339" on="1"/>
        <pt x="1588" y="339" on="1"/>
        <pt x="1588" y="577" on="1"/>
        <pt x="1698" y="577" on="1"/>
        <pt x="1698" y="0" on="1"/>
        <pt x="1588" y="0" on="1"/>
        <pt x="1588" y="253" on="1"/>
        <pt x="1256" y="253" on="1"/>
        <pt x="1256" y="0" on="1"/>
        <pt x="1147" y="0" on="1"/>
      </contour>
    </TTGlyph>
    <TTGlyph name="F_F_I.sc" xMin="80" yMin="0" xMax="1256" yMax="577">
      <contour>
        <pt x="80" y="577" on="1"/>
        <pt x="517" y="577" on="1"/>
        <pt x="517" y="491" on="1"/>
        <pt x="189" y="491" on="1"/>
        <pt x="189" y="319" on="1"/>
        <pt x="486" y="319" on="1"/>
        <pt x="486" y="240" on="1"/>
        <pt x="189" y="240" on="1"/>
        <pt x="189" y="0" on="1"/>
        <pt x="80" y="0" on="1"/>
      </contour>
      <contour>
        <pt x="614" y="577" on="1"/>
        <pt x="1051" y="577" on="1"/>
        <pt x="1051" y="491" on="1"/>
        <pt x="723" y="491" on="1"/>
        <pt x="723" y="319" on="1"/>
        <pt x="1020" y="319" on="1"/>
        <pt x="1020" y="240" on="1"/>
        <pt x="723" y="240" on="1"/>
        <pt x="723" y="0" on="1"/>
        <pt x="614" y="0" on="1"/>
      </contour>
      <contour>
        <pt x="1147" y="577" on="1"/>
        <pt x="1256" y="577" on="1"/>
        <pt x="1256" y="0" on="1"/>
        <pt x="1147" y="0" on="1"/>
      </contour>
    </TTGlyph>
    <TTGlyph name="F_F_J.sc" xMin="80" yMin="-156" xMax="1266" yMax="577">
      <contour>
        <pt x="80" y="577" on="1"/>
        <pt x="517" y="577" on="1"/>
        <pt x="517" y="491" on="1"/>
        <pt x="189" y="491" on="1"/>
        <pt x="189" y="319" on="1"/>
        <pt x="486" y="319" on="1"/>
        <pt x="486" y="240" on="1"/>
        <pt x="189" y="240" on="1"/>
        <pt x="189" y="0" on="1"/>
        <pt x="80" y="0" on="1"/>
      </contour>
      <contour>
        <pt x="614" y="577" on="1"/>
        <pt x="1051" y="577" on="1"/>
        <pt x="1051" y="491" on="1"/>
        <pt x="723" y="491" on="1"/>
        <pt x="723" y="319" on="1"/>
        <pt x="1020" y="319" on="1"/>
        <pt x="1020" y="240" on="1"/>
        <pt x="723" y="240" on="1"/>
        <pt x="723" y="0" on="1"/>
        <pt x="614" y="0" on="1"/>
      </contour>
      <contour>
        <pt x="1089" y="-124" on="1"/>
        <pt x="1108" y="-86" on="0"/>
        <pt x="1135" y="-21" on="0"/>
        <pt x="1150" y="43" on="0"/>
        <pt x="1157" y="109" on="0"/>
        <pt x="1157" y="149" on="1"/>
        <pt x="1157" y="577" on="1"/>
        <pt x="1266" y="577" on="1"/>
        <pt x="1266" y="142" on="1"/>
        <pt x="1266" y="102" on="0"/>
        <pt x="1255" y="32" on="0"/>
        <pt x="1231" y="-37" on="0"/>
        <pt x="1191" y="-112" on="0"/>
        <pt x="1161" y="-156" on="1"/>
      </contour>
    </TTGlyph>
    <TTGlyph name="F_F_K.sc" xMin="80" yMin="0" xMax="1685" yMax="577">
      <contour>
        <pt x="80" y="577" on="1"/>
        <pt x="517" y="577" on="1"/>
        <pt x="517" y="491" on="1"/>
        <pt x="189" y="491" on="1"/>
        <pt x="189" y="319" on="1"/>
        <pt x="486" y="319" on="1"/>
        <pt x="486" y="240" on="1"/>
        <pt x="189" y="240" on="1"/>
        <pt x="189" y="0" on="1"/>
        <pt x="80" y="0" on="1"/>
      </contour>
      <contour>
        <pt x="614" y="577" on="1"/>
        <pt x="1051" y="577" on="1"/>
        <pt x="1051" y="491" on="1"/>
        <pt x="723" y="491" on="1"/>
        <pt x="723" y="319" on="1"/>
        <pt x="1020" y="319" on="1"/>
        <pt x="1020" y="240" on="1"/>
        <pt x="723" y="240" on="1"/>
        <pt x="723" y="0" on="1"/>
        <pt x="614" y="0" on="1"/>
      </contour>
      <contour>
        <pt x="1147" y="577" on="1"/>
        <pt x="1256" y="577" on="1"/>
        <pt x="1256" y="335" on="1"/>
        <pt x="1368" y="335" on="1"/>
        <pt x="1547" y="577" on="1"/>
        <pt x="1670" y="577" on="1"/>
        <pt x="1478" y="322" on="1"/>
        <pt x="1442" y="302" on="1"/>
        <pt x="1442" y="296" on="1"/>
        <pt x="1480" y="276" on="1"/>
        <pt x="1685" y="0" on="1"/>
        <pt x="1562" y="0" on="1"/>
        <pt x="1376" y="249" on="1"/>
        <pt x="1256" y="249" on="1"/>
        <pt x="1256" y="0" on="1"/>
        <pt x="1147" y="0" on="1"/>
      </contour>
    </TTGlyph>
    <TTGlyph name="F_F_L.sc" xMin="80" yMin="0" xMax="1548" yMax="577">
      <contour>
        <pt x="1147" y="577" on="1"/>
        <pt x="1256" y="577" on="1"/>
        <pt x="1256" y="86" on="1"/>
        <pt x="1548" y="86" on="1"/>
        <pt x="1548" y="0" on="1"/>
        <pt x="1147" y="0" on="1"/>
      </contour>
      <contour>
        <pt x="80" y="577" on="1"/>
        <pt x="517" y="577" on="1"/>
        <pt x="517" y="491" on="1"/>
        <pt x="189" y="491" on="1"/>
        <pt x="189" y="319" on="1"/>
        <pt x="486" y="319" on="1"/>
        <pt x="486" y="240" on="1"/>
        <pt x="189" y="240" on="1"/>
        <pt x="189" y="0" on="1"/>
        <pt x="80" y="0" on="1"/>
      </contour>
      <contour>
        <pt x="614" y="577" on="1"/>
        <pt x="1051" y="577" on="1"/>
        <pt x="1051" y="491" on="1"/>
        <pt x="723" y="491" on="1"/>
        <pt x="723" y="319" on="1"/>
        <pt x="1020" y="319" on="1"/>
        <pt x="1020" y="240" on="1"/>
        <pt x="723" y="240" on="1"/>
        <pt x="723" y="0" on="1"/>
        <pt x="614" y="0" on="1"/>
      </contour>
    </TTGlyph>
    <TTGlyph name="F_F_T.sc" xMin="80" yMin="0" xMax="1588" yMax="577">
      <contour>
        <pt x="1277" y="491" on="1"/>
        <pt x="1074" y="491" on="1"/>
        <pt x="1074" y="577" on="1"/>
        <pt x="1588" y="577" on="1"/>
        <pt x="1588" y="491" on="1"/>
        <pt x="1386" y="491" on="1"/>
        <pt x="1386" y="0" on="1"/>
        <pt x="1277" y="0" on="1"/>
      </contour>
      <contour>
        <pt x="80" y="577" on="1"/>
        <pt x="517" y="577" on="1"/>
        <pt x="517" y="491" on="1"/>
        <pt x="189" y="491" on="1"/>
        <pt x="189" y="319" on="1"/>
        <pt x="486" y="319" on="1"/>
        <pt x="486" y="240" on="1"/>
        <pt x="189" y="240" on="1"/>
        <pt x="189" y="0" on="1"/>
        <pt x="80" y="0" on="1"/>
      </contour>
      <contour>
        <pt x="614" y="577" on="1"/>
        <pt x="1051" y="577" on="1"/>
        <pt x="1051" y="491" on="1"/>
        <pt x="723" y="491" on="1"/>
        <pt x="723" y="319" on="1"/>
        <pt x="1020" y="319" on="1"/>
        <pt x="1020" y="240" on="1"/>
        <pt x="723" y="240" on="1"/>
        <pt x="723" y="0" on="1"/>
        <pt x="614" y="0" on="1"/>
      </contour>
    </TTGlyph>
    <TTGlyph name="F_H.sc" xMin="80" yMin="0" xMax="1165" yMax="577">
      <contour>
        <pt x="80" y="577" on="1"/>
        <pt x="517" y="577" on="1"/>
        <pt x="517" y="491" on="1"/>
        <pt x="189" y="491" on="1"/>
        <pt x="189" y="319" on="1"/>
        <pt x="486" y="319" on="1"/>
        <pt x="486" y="240" on="1"/>
        <pt x="189" y="240" on="1"/>
        <pt x="189" y="0" on="1"/>
        <pt x="80" y="0" on="1"/>
      </contour>
      <contour>
        <pt x="614" y="577" on="1"/>
        <pt x="723" y="577" on="1"/>
        <pt x="723" y="339" on="1"/>
        <pt x="1055" y="339" on="1"/>
        <pt x="1055" y="577" on="1"/>
        <pt x="1165" y="577" on="1"/>
        <pt x="1165" y="0" on="1"/>
        <pt x="1055" y="0" on="1"/>
        <pt x="1055" y="253" on="1"/>
        <pt x="723" y="253" on="1"/>
        <pt x="723" y="0" on="1"/>
        <pt x="614" y="0" on="1"/>
      </contour>
    </TTGlyph>
    <TTGlyph name="F_I.sc" xMin="80" yMin="0" xMax="723" yMax="577">
      <contour>
        <pt x="80" y="577" on="1"/>
        <pt x="517" y="577" on="1"/>
        <pt x="517" y="491" on="1"/>
        <pt x="189" y="491" on="1"/>
        <pt x="189" y="319" on="1"/>
        <pt x="486" y="319" on="1"/>
        <pt x="486" y="240" on="1"/>
        <pt x="189" y="240" on="1"/>
        <pt x="189" y="0" on="1"/>
        <pt x="80" y="0" on="1"/>
      </contour>
      <contour>
        <pt x="614" y="577" on="1"/>
        <pt x="723" y="577" on="1"/>
        <pt x="723" y="0" on="1"/>
        <pt x="614" y="0" on="1"/>
      </contour>
    </TTGlyph>
    <TTGlyph name="F_J.sc" xMin="80" yMin="-156" xMax="732" yMax="577">
      <contour>
        <pt x="80" y="577" on="1"/>
        <pt x="517" y="577" on="1"/>
        <pt x="517" y="491" on="1"/>
        <pt x="189" y="491" on="1"/>
        <pt x="189" y="319" on="1"/>
        <pt x="486" y="319" on="1"/>
        <pt x="486" y="240" on="1"/>
        <pt x="189" y="240" on="1"/>
        <pt x="189" y="0" on="1"/>
        <pt x="80" y="0" on="1"/>
      </contour>
      <contour>
        <pt x="555" y="-124" on="1"/>
        <pt x="574" y="-86" on="0"/>
        <pt x="601" y="-21" on="0"/>
        <pt x="616" y="43" on="0"/>
        <pt x="623" y="109" on="0"/>
        <pt x="623" y="149" on="1"/>
        <pt x="623" y="577" on="1"/>
        <pt x="732" y="577" on="1"/>
        <pt x="732" y="142" on="1"/>
        <pt x="732" y="102" on="0"/>
        <pt x="721" y="32" on="0"/>
        <pt x="697" y="-37" on="0"/>
        <pt x="657" y="-112" on="0"/>
        <pt x="627" y="-156" on="1"/>
      </contour>
    </TTGlyph>
    <TTGlyph name="F_K.sc" xMin="80" yMin="0" xMax="1152" yMax="577">
      <contour>
        <pt x="80" y="577" on="1"/>
        <pt x="517" y="577" on="1"/>
        <pt x="517" y="491" on="1"/>
        <pt x="189" y="491" on="1"/>
        <pt x="189" y="319" on="1"/>
        <pt x="486" y="319" on="1"/>
        <pt x="486" y="240" on="1"/>
        <pt x="189" y="240" on="1"/>
        <pt x="189" y="0" on="1"/>
        <pt x="80" y="0" on="1"/>
      </contour>
      <contour>
        <pt x="614" y="577" on="1"/>
        <pt x="723" y="577" on="1"/>
        <pt x="723" y="335" on="1"/>
        <pt x="835" y="335" on="1"/>
        <pt x="1014" y="577" on="1"/>
        <pt x="1137" y="577" on="1"/>
        <pt x="945" y="322" on="1"/>
        <pt x="909" y="302" on="1"/>
        <pt x="909" y="296" on="1"/>
        <pt x="947" y="276" on="1"/>
        <pt x="1152" y="0" on="1"/>
        <pt x="1029" y="0" on="1"/>
        <pt x="843" y="249" on="1"/>
        <pt x="723" y="249" on="1"/>
        <pt x="723" y="0" on="1"/>
        <pt x="614" y="0" on="1"/>
      </contour>
    </TTGlyph>
    <TTGlyph name="F_L.sc" xMin="80" yMin="0" xMax="1015" yMax="577">
      <contour>
        <pt x="614" y="577" on="1"/>
        <pt x="723" y="577" on="1"/>
        <pt x="723" y="86" on="1"/>
        <pt x="1015" y="86" on="1"/>
        <pt x="1015" y="0" on="1"/>
        <pt x="614" y="0" on="1"/>
      </contour>
      <contour>
        <pt x="80" y="577" on="1"/>
        <pt x="517" y="577" on="1"/>
        <pt x="517" y="491" on="1"/>
        <pt x="189" y="491" on="1"/>
        <pt x="189" y="319" on="1"/>
        <pt x="486" y="319" on="1"/>
        <pt x="486" y="240" on="1"/>
        <pt x="189" y="240" on="1"/>
        <pt x="189" y="0" on="1"/>
        <pt x="80" y="0" on="1"/>
      </contour>
    </TTGlyph>
    <TTGlyph name="F_T.sc" xMin="80" yMin="0" xMax="1055" yMax="577">
      <contour>
        <pt x="744" y="491" on="1"/>
        <pt x="541" y="491" on="1"/>
        <pt x="541" y="577" on="1"/>
        <pt x="1055" y="577" on="1"/>
        <pt x="1055" y="491" on="1"/>
        <pt x="853" y="491" on="1"/>
        <pt x="853" y="0" on="1"/>
        <pt x="744" y="0" on="1"/>
      </contour>
      <contour>
        <pt x="80" y="577" on="1"/>
        <pt x="517" y="577" on="1"/>
        <pt x="517" y="491" on="1"/>
        <pt x="189" y="491" on="1"/>
        <pt x="189" y="319" on="1"/>
        <pt x="486" y="319" on="1"/>
        <pt x="486" y="240" on="1"/>
        <pt x="189" y="240" on="1"/>
        <pt x="189" y="0" on="1"/>
        <pt x="80" y="0" on="1"/>
      </contour>
    </TTGlyph>
    <TTGlyph name="G" xMin="47" yMin="-10" xMax="614" yMax="751">
      <contour>
        <pt x="399" y="-10" on="1"/>
        <pt x="47" y="-10" on="0"/>
        <pt x="47" y="368" on="1"/>
        <pt x="47" y="751" on="0"/>
        <pt x="412" y="751" on="1"/>
        <pt x="457" y="751" on="0"/>
        <pt x="559" y="738" on="0"/>
        <pt x="606" y="727" on="1"/>
        <pt x="606" y="632" on="1"/>
        <pt x="545" y="645" on="0"/>
        <pt x="459" y="655" on="0"/>
        <pt x="420" y="655" on="1"/>
        <pt x="352" y="655" on="0"/>
        <pt x="255" y="622" on="0"/>
        <pt x="193" y="553" on="0"/>
        <pt x="164" y="445" on="0"/>
        <pt x="164" y="369" on="1"/>
        <pt x="164" y="220" on="0"/>
        <pt x="277" y="86" on="0"/>
        <pt x="402" y="86" on="1"/>
        <pt x="423" y="86" on="0"/>
        <pt x="480" y="91" on="0"/>
        <pt x="508" y="95" on="1"/>
        <pt x="508" y="376" on="1"/>
        <pt x="614" y="376" on="1"/>
        <pt x="614" y="23" on="1"/>
        <pt x="561" y="8" on="0"/>
        <pt x="444" y="-10" on="0"/>
      </contour>
    </TTGlyph>
    <TTGlyph name="G.sc" xMin="47" yMin="-9" xMax="554" yMax="586">
      <contour>
        <pt x="360" y="-9" on="1"/>
        <pt x="47" y="-8" on="0"/>
        <pt x="47" y="287" on="1"/>
        <pt x="47" y="586" on="0"/>
        <pt x="371" y="586" on="1"/>
        <pt x="413" y="586" on="0"/>
        <pt x="505" y="576" on="0"/>
        <pt x="546" y="567" on="1"/>
        <pt x="546" y="480" on="1"/>
        <pt x="491" y="488" on="0"/>
        <pt x="413" y="496" on="0"/>
        <pt x="380" y="496" on="1"/>
        <pt x="319" y="496" on="0"/>
        <pt x="235" y="473" on="0"/>
        <pt x="182" y="422" on="0"/>
        <pt x="159" y="343" on="0"/>
        <pt x="159" y="288" on="1"/>
        <pt x="159" y="178" on="0"/>
        <pt x="253" y="82" on="0"/>
        <pt x="363" y="82" on="1"/>
        <pt x="370" y="82" on="0"/>
        <pt x="394" y="83" on="0"/>
        <pt x="419" y="86" on="0"/>
        <pt x="444" y="89" on="0"/>
        <pt x="452" y="91" on="1"/>
        <pt x="452" y="293" on="1"/>
        <pt x="554" y="293" on="1"/>
        <pt x="554" y="19" on="1"/>
        <pt x="506" y="7" on="0"/>
        <pt x="400" y="-9" on="0"/>
      </contour>
    </TTGlyph>
    <TTGlyph name="Gacute" xMin="47" yMin="-10" xMax="614" yMax="957">
      <contour>
        <pt x="316" y="808" on="1"/>
        <pt x="388" y="957" on="1"/>
        <pt x="505" y="957" on="1"/>
        <pt x="401" y="801" on="1"/>
      </contour>
      <contour>
        <pt x="399" y="-10" on="1"/>
        <pt x="47" y="-10" on="0"/>
        <pt x="47" y="368" on="1"/>
        <pt x="47" y="751" on="0"/>
        <pt x="412" y="751" on="1"/>
        <pt x="457" y="751" on="0"/>
        <pt x="559" y="738" on="0"/>
        <pt x="606" y="727" on="1"/>
        <pt x="606" y="632" on="1"/>
        <pt x="545" y="645" on="0"/>
        <pt x="459" y="655" on="0"/>
        <pt x="420" y="655" on="1"/>
        <pt x="352" y="655" on="0"/>
        <pt x="255" y="622" on="0"/>
        <pt x="193" y="553" on="0"/>
        <pt x="164" y="445" on="0"/>
        <pt x="164" y="369" on="1"/>
        <pt x="164" y="220" on="0"/>
        <pt x="277" y="86" on="0"/>
        <pt x="402" y="86" on="1"/>
        <pt x="423" y="86" on="0"/>
        <pt x="480" y="91" on="0"/>
        <pt x="508" y="95" on="1"/>
        <pt x="508" y="376" on="1"/>
        <pt x="614" y="376" on="1"/>
        <pt x="614" y="23" on="1"/>
        <pt x="561" y="8" on="0"/>
        <pt x="444" y="-10" on="0"/>
      </contour>
    </TTGlyph>
    <TTGlyph name="Gacute.sc" xMin="47" yMin="-9" xMax="554" yMax="756">
      <contour>
        <pt x="360" y="-9" on="1"/>
        <pt x="47" y="-8" on="0"/>
        <pt x="47" y="287" on="1"/>
        <pt x="47" y="586" on="0"/>
        <pt x="371" y="586" on="1"/>
        <pt x="413" y="586" on="0"/>
        <pt x="505" y="576" on="0"/>
        <pt x="546" y="567" on="1"/>
        <pt x="546" y="478" on="1"/>
        <pt x="491" y="488" on="0"/>
        <pt x="413" y="496" on="0"/>
        <pt x="380" y="496" on="1"/>
        <pt x="320" y="496" on="0"/>
        <pt x="236" y="473" on="0"/>
        <pt x="183" y="423" on="0"/>
        <pt x="159" y="344" on="0"/>
        <pt x="159" y="288" on="1"/>
        <pt x="159" y="232" on="0"/>
        <pt x="182" y="154" on="0"/>
        <pt x="231" y="105" on="0"/>
        <pt x="309" y="82" on="0"/>
        <pt x="363" y="82" on="1"/>
        <pt x="370" y="82" on="0"/>
        <pt x="394" y="83" on="0"/>
        <pt x="419" y="86" on="0"/>
        <pt x="444" y="89" on="0"/>
        <pt x="452" y="91" on="1"/>
        <pt x="452" y="293" on="1"/>
        <pt x="554" y="293" on="1"/>
        <pt x="554" y="19" on="1"/>
        <pt x="507" y="7" on="0"/>
        <pt x="401" y="-9" on="0"/>
      </contour>
      <contour>
        <pt x="283" y="632" on="1"/>
        <pt x="345" y="756" on="1"/>
        <pt x="456" y="756" on="1"/>
        <pt x="363" y="626" on="1"/>
      </contour>
    </TTGlyph>
    <TTGlyph name="Gbreve" xMin="47" yMin="-10" xMax="614" yMax="969">
      <contour>
        <pt x="371" y="812" on="1"/>
        <pt x="272" y="812" on="0"/>
        <pt x="179" y="899" on="0"/>
        <pt x="179" y="969" on="1"/>
        <pt x="259" y="969" on="1"/>
        <pt x="259" y="923" on="0"/>
        <pt x="313" y="874" on="0"/>
        <pt x="371" y="874" on="1"/>
        <pt x="429" y="874" on="0"/>
        <pt x="483" y="923" on="0"/>
        <pt x="483" y="969" on="1"/>
        <pt x="563" y="969" on="1"/>
        <pt x="563" y="898" on="0"/>
        <pt x="470" y="812" on="0"/>
      </contour>
      <contour>
        <pt x="399" y="-10" on="1"/>
        <pt x="47" y="-10" on="0"/>
        <pt x="47" y="368" on="1"/>
        <pt x="47" y="751" on="0"/>
        <pt x="412" y="751" on="1"/>
        <pt x="457" y="751" on="0"/>
        <pt x="559" y="738" on="0"/>
        <pt x="606" y="727" on="1"/>
        <pt x="606" y="632" on="1"/>
        <pt x="545" y="645" on="0"/>
        <pt x="459" y="655" on="0"/>
        <pt x="420" y="655" on="1"/>
        <pt x="352" y="655" on="0"/>
        <pt x="255" y="622" on="0"/>
        <pt x="193" y="553" on="0"/>
        <pt x="164" y="445" on="0"/>
        <pt x="164" y="369" on="1"/>
        <pt x="164" y="220" on="0"/>
        <pt x="277" y="86" on="0"/>
        <pt x="402" y="86" on="1"/>
        <pt x="423" y="86" on="0"/>
        <pt x="480" y="91" on="0"/>
        <pt x="508" y="95" on="1"/>
        <pt x="508" y="376" on="1"/>
        <pt x="614" y="376" on="1"/>
        <pt x="614" y="23" on="1"/>
        <pt x="561" y="8" on="0"/>
        <pt x="444" y="-10" on="0"/>
      </contour>
    </TTGlyph>
    <TTGlyph name="Gbreve.sc" xMin="47" yMin="-9" xMax="554" yMax="762">
      <contour>
        <pt x="360" y="-9" on="1"/>
        <pt x="47" y="-8" on="0"/>
        <pt x="47" y="287" on="1"/>
        <pt x="47" y="586" on="0"/>
        <pt x="371" y="586" on="1"/>
        <pt x="413" y="586" on="0"/>
        <pt x="505" y="576" on="0"/>
        <pt x="546" y="567" on="1"/>
        <pt x="546" y="478" on="1"/>
        <pt x="491" y="488" on="0"/>
        <pt x="413" y="496" on="0"/>
        <pt x="380" y="496" on="1"/>
        <pt x="320" y="496" on="0"/>
        <pt x="236" y="473" on="0"/>
        <pt x="183" y="423" on="0"/>
        <pt x="159" y="344" on="0"/>
        <pt x="159" y="288" on="1"/>
        <pt x="159" y="232" on="0"/>
        <pt x="182" y="154" on="0"/>
        <pt x="231" y="105" on="0"/>
        <pt x="309" y="82" on="0"/>
        <pt x="363" y="82" on="1"/>
        <pt x="370" y="82" on="0"/>
        <pt x="394" y="83" on="0"/>
        <pt x="419" y="86" on="0"/>
        <pt x="444" y="89" on="0"/>
        <pt x="452" y="91" on="1"/>
        <pt x="452" y="293" on="1"/>
        <pt x="554" y="293" on="1"/>
        <pt x="554" y="19" on="1"/>
        <pt x="507" y="7" on="0"/>
        <pt x="401" y="-9" on="0"/>
      </contour>
      <contour>
        <pt x="334" y="632" on="1"/>
        <pt x="244" y="632" on="0"/>
        <pt x="162" y="706" on="0"/>
        <pt x="162" y="762" on="1"/>
        <pt x="236" y="762" on="1"/>
        <pt x="236" y="726" on="0"/>
        <pt x="283" y="688" on="0"/>
        <pt x="334" y="688" on="1"/>
        <pt x="386" y="688" on="0"/>
        <pt x="432" y="726" on="0"/>
        <pt x="432" y="762" on="1"/>
        <pt x="508" y="762" on="1"/>
        <pt x="508" y="704" on="0"/>
        <pt x="425" y="632" on="0"/>
      </contour>
    </TTGlyph>
    <TTGlyph name="Gcircumflex" xMin="47" yMin="-10" xMax="614" yMax="967">
      <contour>
        <pt x="399" y="-10" on="1"/>
        <pt x="47" y="-10" on="0"/>
        <pt x="47" y="368" on="1"/>
        <pt x="47" y="751" on="0"/>
        <pt x="412" y="751" on="1"/>
        <pt x="457" y="751" on="0"/>
        <pt x="559" y="738" on="0"/>
        <pt x="606" y="727" on="1"/>
        <pt x="606" y="632" on="1"/>
        <pt x="545" y="645" on="0"/>
        <pt x="459" y="655" on="0"/>
        <pt x="420" y="655" on="1"/>
        <pt x="352" y="655" on="0"/>
        <pt x="255" y="622" on="0"/>
        <pt x="193" y="553" on="0"/>
        <pt x="164" y="445" on="0"/>
        <pt x="164" y="369" on="1"/>
        <pt x="164" y="220" on="0"/>
        <pt x="277" y="86" on="0"/>
        <pt x="402" y="86" on="1"/>
        <pt x="423" y="86" on="0"/>
        <pt x="480" y="91" on="0"/>
        <pt x="508" y="95" on="1"/>
        <pt x="508" y="376" on="1"/>
        <pt x="614" y="376" on="1"/>
        <pt x="614" y="23" on="1"/>
        <pt x="561" y="8" on="0"/>
        <pt x="444" y="-10" on="0"/>
      </contour>
      <contour>
        <pt x="190" y="892" on="1"/>
        <pt x="365" y="967" on="1"/>
        <pt x="541" y="892" on="1"/>
        <pt x="541" y="808" on="1"/>
        <pt x="365" y="883" on="1"/>
        <pt x="190" y="808" on="1"/>
      </contour>
    </TTGlyph>
    <TTGlyph name="Gcircumflex.sc" xMin="47" yMin="-9" xMax="554" yMax="764">
      <contour>
        <pt x="360" y="-9" on="1"/>
        <pt x="47" y="-8" on="0"/>
        <pt x="47" y="287" on="1"/>
        <pt x="47" y="586" on="0"/>
        <pt x="371" y="586" on="1"/>
        <pt x="413" y="586" on="0"/>
        <pt x="505" y="576" on="0"/>
        <pt x="546" y="567" on="1"/>
        <pt x="546" y="478" on="1"/>
        <pt x="491" y="488" on="0"/>
        <pt x="413" y="496" on="0"/>
        <pt x="380" y="496" on="1"/>
        <pt x="320" y="496" on="0"/>
        <pt x="236" y="473" on="0"/>
        <pt x="183" y="423" on="0"/>
        <pt x="159" y="344" on="0"/>
        <pt x="159" y="288" on="1"/>
        <pt x="159" y="232" on="0"/>
        <pt x="182" y="154" on="0"/>
        <pt x="231" y="105" on="0"/>
        <pt x="309" y="82" on="0"/>
        <pt x="363" y="82" on="1"/>
        <pt x="370" y="82" on="0"/>
        <pt x="394" y="83" on="0"/>
        <pt x="419" y="86" on="0"/>
        <pt x="444" y="89" on="0"/>
        <pt x="452" y="91" on="1"/>
        <pt x="452" y="293" on="1"/>
        <pt x="554" y="293" on="1"/>
        <pt x="554" y="19" on="1"/>
        <pt x="507" y="7" on="0"/>
        <pt x="401" y="-9" on="0"/>
      </contour>
      <contour>
        <pt x="171" y="704" on="1"/>
        <pt x="328" y="764" on="1"/>
        <pt x="487" y="704" on="1"/>
        <pt x="487" y="628" on="1"/>
        <pt x="329" y="688" on="1"/>
        <pt x="171" y="628" on="1"/>
      </contour>
    </TTGlyph>
    <TTGlyph name="Gcommaaccent" xMin="47" yMin="-220" xMax="614" yMax="751">
      <contour>
        <pt x="318" y="-69" on="1"/>
        <pt x="434" y="-69" on="1"/>
        <pt x="360" y="-220" on="1"/>
        <pt x="271" y="-220" on="1"/>
      </contour>
      <contour>
        <pt x="399" y="-10" on="1"/>
        <pt x="47" y="-10" on="0"/>
        <pt x="47" y="368" on="1"/>
        <pt x="47" y="751" on="0"/>
        <pt x="412" y="751" on="1"/>
        <pt x="457" y="751" on="0"/>
        <pt x="559" y="738" on="0"/>
        <pt x="606" y="727" on="1"/>
        <pt x="606" y="632" on="1"/>
        <pt x="545" y="645" on="0"/>
        <pt x="459" y="655" on="0"/>
        <pt x="420" y="655" on="1"/>
        <pt x="352" y="655" on="0"/>
        <pt x="255" y="622" on="0"/>
        <pt x="193" y="553" on="0"/>
        <pt x="164" y="445" on="0"/>
        <pt x="164" y="369" on="1"/>
        <pt x="164" y="220" on="0"/>
        <pt x="277" y="86" on="0"/>
        <pt x="402" y="86" on="1"/>
        <pt x="423" y="86" on="0"/>
        <pt x="480" y="91" on="0"/>
        <pt x="508" y="95" on="1"/>
        <pt x="508" y="376" on="1"/>
        <pt x="614" y="376" on="1"/>
        <pt x="614" y="23" on="1"/>
        <pt x="561" y="8" on="0"/>
        <pt x="444" y="-10" on="0"/>
      </contour>
    </TTGlyph>
    <TTGlyph name="Gcommaaccent.sc" xMin="47" yMin="-172" xMax="554" yMax="586">
      <contour>
        <pt x="360" y="-9" on="1"/>
        <pt x="47" y="-8" on="0"/>
        <pt x="47" y="287" on="1"/>
        <pt x="47" y="586" on="0"/>
        <pt x="371" y="586" on="1"/>
        <pt x="413" y="586" on="0"/>
        <pt x="505" y="576" on="0"/>
        <pt x="546" y="567" on="1"/>
        <pt x="546" y="478" on="1"/>
        <pt x="491" y="488" on="0"/>
        <pt x="413" y="496" on="0"/>
        <pt x="380" y="496" on="1"/>
        <pt x="320" y="496" on="0"/>
        <pt x="236" y="473" on="0"/>
        <pt x="183" y="423" on="0"/>
        <pt x="159" y="344" on="0"/>
        <pt x="159" y="288" on="1"/>
        <pt x="159" y="232" on="0"/>
        <pt x="182" y="154" on="0"/>
        <pt x="231" y="105" on="0"/>
        <pt x="309" y="82" on="0"/>
        <pt x="363" y="82" on="1"/>
        <pt x="370" y="82" on="0"/>
        <pt x="394" y="83" on="0"/>
        <pt x="419" y="86" on="0"/>
        <pt x="444" y="89" on="0"/>
        <pt x="452" y="91" on="1"/>
        <pt x="452" y="293" on="1"/>
        <pt x="554" y="293" on="1"/>
        <pt x="554" y="19" on="1"/>
        <pt x="507" y="7" on="0"/>
        <pt x="401" y="-9" on="0"/>
      </contour>
      <contour>
        <pt x="282" y="-55" on="1"/>
        <pt x="393" y="-55" on="1"/>
        <pt x="327" y="-172" on="1"/>
        <pt x="243" y="-172" on="1"/>
      </contour>
    </TTGlyph>
    <TTGlyph name="Gdotaccent" xMin="47" yMin="-10" xMax="614" yMax="942">
      <contour>
        <pt x="372" y="810" on="1"/>
        <pt x="337" y="810" on="0"/>
        <pt x="304" y="841" on="0"/>
        <pt x="304" y="876" on="1"/>
        <pt x="304" y="911" on="0"/>
        <pt x="337" y="942" on="0"/>
        <pt x="372" y="942" on="1"/>
        <pt x="407" y="942" on="0"/>
        <pt x="440" y="911" on="0"/>
        <pt x="440" y="876" on="1"/>
        <pt x="440" y="810" on="0"/>
      </contour>
      <contour>
        <pt x="399" y="-10" on="1"/>
        <pt x="47" y="-10" on="0"/>
        <pt x="47" y="368" on="1"/>
        <pt x="47" y="751" on="0"/>
        <pt x="412" y="751" on="1"/>
        <pt x="457" y="751" on="0"/>
        <pt x="559" y="738" on="0"/>
        <pt x="606" y="727" on="1"/>
        <pt x="606" y="632" on="1"/>
        <pt x="545" y="645" on="0"/>
        <pt x="459" y="655" on="0"/>
        <pt x="420" y="655" on="1"/>
        <pt x="352" y="655" on="0"/>
        <pt x="255" y="622" on="0"/>
        <pt x="193" y="553" on="0"/>
        <pt x="164" y="445" on="0"/>
        <pt x="164" y="369" on="1"/>
        <pt x="164" y="220" on="0"/>
        <pt x="277" y="86" on="0"/>
        <pt x="402" y="86" on="1"/>
        <pt x="423" y="86" on="0"/>
        <pt x="480" y="91" on="0"/>
        <pt x="508" y="95" on="1"/>
        <pt x="508" y="376" on="1"/>
        <pt x="614" y="376" on="1"/>
        <pt x="614" y="23" on="1"/>
        <pt x="561" y="8" on="0"/>
        <pt x="444" y="-10" on="0"/>
      </contour>
    </TTGlyph>
    <TTGlyph name="Gdotaccent.sc" xMin="47" yMin="-9" xMax="554" yMax="750">
      <contour>
        <pt x="360" y="-9" on="1"/>
        <pt x="47" y="-8" on="0"/>
        <pt x="47" y="287" on="1"/>
        <pt x="47" y="586" on="0"/>
        <pt x="371" y="586" on="1"/>
        <pt x="413" y="586" on="0"/>
        <pt x="505" y="576" on="0"/>
        <pt x="546" y="567" on="1"/>
        <pt x="546" y="478" on="1"/>
        <pt x="491" y="488" on="0"/>
        <pt x="413" y="496" on="0"/>
        <pt x="380" y="496" on="1"/>
        <pt x="320" y="496" on="0"/>
        <pt x="236" y="473" on="0"/>
        <pt x="183" y="423" on="0"/>
        <pt x="159" y="344" on="0"/>
        <pt x="159" y="288" on="1"/>
        <pt x="159" y="232" on="0"/>
        <pt x="182" y="154" on="0"/>
        <pt x="231" y="105" on="0"/>
        <pt x="309" y="82" on="0"/>
        <pt x="363" y="82" on="1"/>
        <pt x="370" y="82" on="0"/>
        <pt x="394" y="83" on="0"/>
        <pt x="419" y="86" on="0"/>
        <pt x="444" y="89" on="0"/>
        <pt x="452" y="91" on="1"/>
        <pt x="452" y="293" on="1"/>
        <pt x="554" y="293" on="1"/>
        <pt x="554" y="19" on="1"/>
        <pt x="507" y="7" on="0"/>
        <pt x="401" y="-9" on="0"/>
      </contour>
      <contour>
        <pt x="336" y="630" on="1"/>
        <pt x="304" y="630" on="0"/>
        <pt x="273" y="658" on="0"/>
        <pt x="273" y="690" on="1"/>
        <pt x="273" y="722" on="0"/>
        <pt x="304" y="750" on="0"/>
        <pt x="336" y="750" on="1"/>
        <pt x="400" y="750" on="0"/>
        <pt x="400" y="690" on="1"/>
        <pt x="400" y="630" on="0"/>
      </contour>
    </TTGlyph>
    <TTGlyph name="H" xMin="84" yMin="0" xMax="698" yMax="740">
      <contour>
        <pt x="84" y="740" on="1"/>
        <pt x="198" y="740" on="1"/>
        <pt x="198" y="425" on="1"/>
        <pt x="584" y="425" on="1"/>
        <pt x="584" y="740" on="1"/>
        <pt x="698" y="740" on="1"/>
        <pt x="698" y="0" on="1"/>
        <pt x="584" y="0" on="1"/>
        <pt x="584" y="334" on="1"/>
        <pt x="198" y="334" on="1"/>
        <pt x="198" y="0" on="1"/>
        <pt x="84" y="0" on="1"/>
      </contour>
    </TTGlyph>
    <TTGlyph name="H.sc" xMin="80" yMin="0" xMax="631" yMax="577">
      <contour>
        <pt x="80" y="577" on="1"/>
        <pt x="189" y="577" on="1"/>
        <pt x="189" y="339" on="1"/>
        <pt x="521" y="339" on="1"/>
        <pt x="521" y="577" on="1"/>
        <pt x="631" y="577" on="1"/>
        <pt x="631" y="0" on="1"/>
        <pt x="521" y="0" on="1"/>
        <pt x="521" y="253" on="1"/>
        <pt x="189" y="253" on="1"/>
        <pt x="189" y="0" on="1"/>
        <pt x="80" y="0" on="1"/>
      </contour>
    </TTGlyph>
    <TTGlyph name="Hbar" xMin="6" yMin="0" xMax="793" yMax="740">
      <contour>
        <pt x="6" y="604" on="1"/>
        <pt x="92" y="604" on="1"/>
        <pt x="92" y="740" on="1"/>
        <pt x="206" y="740" on="1"/>
        <pt x="206" y="604" on="1"/>
        <pt x="592" y="604" on="1"/>
        <pt x="592" y="740" on="1"/>
        <pt x="706" y="740" on="1"/>
        <pt x="706" y="604" on="1"/>
        <pt x="793" y="604" on="1"/>
        <pt x="793" y="543" on="1"/>
        <pt x="706" y="543" on="1"/>
        <pt x="706" y="0" on="1"/>
        <pt x="592" y="0" on="1"/>
        <pt x="592" y="334" on="1"/>
        <pt x="206" y="334" on="1"/>
        <pt x="206" y="0" on="1"/>
        <pt x="92" y="0" on="1"/>
        <pt x="92" y="543" on="1"/>
        <pt x="6" y="543" on="1"/>
      </contour>
      <contour>
        <pt x="592" y="425" on="1"/>
        <pt x="592" y="543" on="1"/>
        <pt x="206" y="543" on="1"/>
        <pt x="206" y="425" on="1"/>
      </contour>
    </TTGlyph>
    <TTGlyph name="Hbar.sc" xMin="13" yMin="0" xMax="712" yMax="577">
      <contour>
        <pt x="13" y="477" on="1"/>
        <pt x="86" y="477" on="1"/>
        <pt x="86" y="577" on="1"/>
        <pt x="195" y="577" on="1"/>
        <pt x="195" y="477" on="1"/>
        <pt x="528" y="477" on="1"/>
        <pt x="528" y="577" on="1"/>
        <pt x="637" y="577" on="1"/>
        <pt x="637" y="477" on="1"/>
        <pt x="712" y="477" on="1"/>
        <pt x="712" y="422" on="1"/>
        <pt x="637" y="422" on="1"/>
        <pt x="637" y="0" on="1"/>
        <pt x="528" y="0" on="1"/>
        <pt x="528" y="247" on="1"/>
        <pt x="195" y="247" on="1"/>
        <pt x="195" y="0" on="1"/>
        <pt x="86" y="0" on="1"/>
        <pt x="86" y="422" on="1"/>
        <pt x="13" y="422" on="1"/>
      </contour>
      <contour>
        <pt x="528" y="333" on="1"/>
        <pt x="528" y="422" on="1"/>
        <pt x="195" y="422" on="1"/>
        <pt x="195" y="333" on="1"/>
      </contour>
    </TTGlyph>
    <TTGlyph name="Hcircumflex" xMin="84" yMin="0" xMax="698" yMax="967">
      <contour>
        <pt x="84" y="740" on="1"/>
        <pt x="198" y="740" on="1"/>
        <pt x="198" y="425" on="1"/>
        <pt x="584" y="425" on="1"/>
        <pt x="584" y="740" on="1"/>
        <pt x="698" y="740" on="1"/>
        <pt x="698" y="0" on="1"/>
        <pt x="584" y="0" on="1"/>
        <pt x="584" y="334" on="1"/>
        <pt x="198" y="334" on="1"/>
        <pt x="198" y="0" on="1"/>
        <pt x="84" y="0" on="1"/>
      </contour>
      <contour>
        <pt x="210" y="892" on="1"/>
        <pt x="385" y="967" on="1"/>
        <pt x="561" y="892" on="1"/>
        <pt x="561" y="808" on="1"/>
        <pt x="385" y="883" on="1"/>
        <pt x="210" y="808" on="1"/>
      </contour>
    </TTGlyph>
    <TTGlyph name="Hcircumflex.sc" xMin="80" yMin="0" xMax="631" yMax="764">
      <contour>
        <pt x="80" y="577" on="1"/>
        <pt x="189" y="577" on="1"/>
        <pt x="189" y="339" on="1"/>
        <pt x="521" y="339" on="1"/>
        <pt x="521" y="577" on="1"/>
        <pt x="631" y="577" on="1"/>
        <pt x="631" y="0" on="1"/>
        <pt x="521" y="0" on="1"/>
        <pt x="521" y="253" on="1"/>
        <pt x="189" y="253" on="1"/>
        <pt x="189" y="0" on="1"/>
        <pt x="80" y="0" on="1"/>
      </contour>
      <contour>
        <pt x="193" y="704" on="1"/>
        <pt x="351" y="764" on="1"/>
        <pt x="510" y="704" on="1"/>
        <pt x="510" y="628" on="1"/>
        <pt x="352" y="688" on="1"/>
        <pt x="193" y="628" on="1"/>
      </contour>
    </TTGlyph>
    <TTGlyph name="Hdotbelow" xMin="84" yMin="-189" xMax="698" yMax="740">
      <contour>
        <pt x="84" y="740" on="1"/>
        <pt x="198" y="740" on="1"/>
        <pt x="198" y="425" on="1"/>
        <pt x="584" y="425" on="1"/>
        <pt x="584" y="740" on="1"/>
        <pt x="698" y="740" on="1"/>
        <pt x="698" y="0" on="1"/>
        <pt x="584" y="0" on="1"/>
        <pt x="584" y="334" on="1"/>
        <pt x="198" y="334" on="1"/>
        <pt x="198" y="0" on="1"/>
        <pt x="84" y="0" on="1"/>
      </contour>
      <contour>
        <pt x="396" y="-189" on="1"/>
        <pt x="367" y="-189" on="0"/>
        <pt x="338" y="-163" on="0"/>
        <pt x="338" y="-133" on="1"/>
        <pt x="338" y="-103" on="0"/>
        <pt x="367" y="-76" on="0"/>
        <pt x="396" y="-76" on="1"/>
        <pt x="426" y="-76" on="0"/>
        <pt x="455" y="-103" on="0"/>
        <pt x="455" y="-133" on="1"/>
        <pt x="455" y="-163" on="0"/>
        <pt x="426" y="-189" on="0"/>
      </contour>
    </TTGlyph>
    <TTGlyph name="Hdotbelow.sc" xMin="80" yMin="-153" xMax="631" yMax="577">
      <contour>
        <pt x="80" y="577" on="1"/>
        <pt x="189" y="577" on="1"/>
        <pt x="189" y="339" on="1"/>
        <pt x="521" y="339" on="1"/>
        <pt x="521" y="577" on="1"/>
        <pt x="631" y="577" on="1"/>
        <pt x="631" y="0" on="1"/>
        <pt x="521" y="0" on="1"/>
        <pt x="521" y="253" on="1"/>
        <pt x="189" y="253" on="1"/>
        <pt x="189" y="0" on="1"/>
        <pt x="80" y="0" on="1"/>
      </contour>
      <contour>
        <pt x="359" y="-153" on="1"/>
        <pt x="332" y="-153" on="0"/>
        <pt x="306" y="-130" on="0"/>
        <pt x="306" y="-104" on="1"/>
        <pt x="306" y="-54" on="0"/>
        <pt x="359" y="-54" on="1"/>
        <pt x="413" y="-54" on="0"/>
        <pt x="413" y="-104" on="1"/>
        <pt x="413" y="-153" on="0"/>
      </contour>
    </TTGlyph>
    <TTGlyph name="I" xMin="84" yMin="0" xMax="198" yMax="740">
      <contour>
        <pt x="84" y="740" on="1"/>
        <pt x="198" y="740" on="1"/>
        <pt x="198" y="0" on="1"/>
        <pt x="84" y="0" on="1"/>
      </contour>
    </TTGlyph>
    <TTGlyph name="I.sc" xMin="80" yMin="0" xMax="189" yMax="577">
      <contour>
        <pt x="80" y="577" on="1"/>
        <pt x="189" y="577" on="1"/>
        <pt x="189" y="0" on="1"/>
        <pt x="80" y="0" on="1"/>
      </contour>
    </TTGlyph>
    <TTGlyph name="IJ" xMin="84" yMin="-194" xMax="481" yMax="740">
      <contour>
        <pt x="84" y="740" on="1"/>
        <pt x="198" y="740" on="1"/>
        <pt x="198" y="0" on="1"/>
        <pt x="84" y="0" on="1"/>
      </contour>
      <contour>
        <pt x="289" y="-159" on="1"/>
        <pt x="311" y="-110" on="0"/>
        <pt x="341" y="-28" on="0"/>
        <pt x="359" y="53" on="0"/>
        <pt x="367" y="138" on="0"/>
        <pt x="367" y="189" on="1"/>
        <pt x="367" y="740" on="1"/>
        <pt x="481" y="740" on="1"/>
        <pt x="481" y="181" on="1"/>
        <pt x="481" y="130" on="0"/>
        <pt x="469" y="42" on="0"/>
        <pt x="442" y="-45" on="0"/>
        <pt x="397" y="-139" on="0"/>
        <pt x="364" y="-194" on="1"/>
      </contour>
    </TTGlyph>
    <TTGlyph name="Iacute" xMin="84" yMin="0" xMax="283" yMax="957">
      <contour>
        <pt x="84" y="740" on="1"/>
        <pt x="198" y="740" on="1"/>
        <pt x="198" y="0" on="1"/>
        <pt x="84" y="0" on="1"/>
      </contour>
      <contour>
        <pt x="94" y="808" on="1"/>
        <pt x="166" y="957" on="1"/>
        <pt x="283" y="957" on="1"/>
        <pt x="179" y="801" on="1"/>
      </contour>
    </TTGlyph>
    <TTGlyph name="Iacute.sc" xMin="80" yMin="0" xMax="262" yMax="756">
      <contour>
        <pt x="80" y="577" on="1"/>
        <pt x="189" y="577" on="1"/>
        <pt x="189" y="0" on="1"/>
        <pt x="80" y="0" on="1"/>
      </contour>
      <contour>
        <pt x="90" y="632" on="1"/>
        <pt x="152" y="756" on="1"/>
        <pt x="262" y="756" on="1"/>
        <pt x="170" y="626" on="1"/>
      </contour>
    </TTGlyph>
    <TTGlyph name="Ibreve" xMin="-51" yMin="0" xMax="333" yMax="969">
      <contour>
        <pt x="84" y="740" on="1"/>
        <pt x="198" y="740" on="1"/>
        <pt x="198" y="0" on="1"/>
        <pt x="84" y="0" on="1"/>
      </contour>
      <contour>
        <pt x="141" y="812" on="1"/>
        <pt x="42" y="812" on="0"/>
        <pt x="-51" y="899" on="0"/>
        <pt x="-51" y="969" on="1"/>
        <pt x="29" y="969" on="1"/>
        <pt x="29" y="923" on="0"/>
        <pt x="83" y="874" on="0"/>
        <pt x="141" y="874" on="1"/>
        <pt x="199" y="874" on="0"/>
        <pt x="253" y="923" on="0"/>
        <pt x="253" y="969" on="1"/>
        <pt x="333" y="969" on="1"/>
        <pt x="333" y="898" on="0"/>
        <pt x="240" y="812" on="0"/>
      </contour>
    </TTGlyph>
    <TTGlyph name="Ibreve.sc" xMin="-39" yMin="0" xMax="307" yMax="762">
      <contour>
        <pt x="80" y="577" on="1"/>
        <pt x="189" y="577" on="1"/>
        <pt x="189" y="0" on="1"/>
        <pt x="80" y="0" on="1"/>
      </contour>
      <contour>
        <pt x="135" y="632" on="1"/>
        <pt x="43" y="632" on="0"/>
        <pt x="-39" y="706" on="0"/>
        <pt x="-39" y="762" on="1"/>
        <pt x="36" y="762" on="1"/>
        <pt x="36" y="726" on="0"/>
        <pt x="83" y="688" on="0"/>
        <pt x="135" y="688" on="1"/>
        <pt x="186" y="688" on="0"/>
        <pt x="232" y="726" on="0"/>
        <pt x="232" y="762" on="1"/>
        <pt x="307" y="762" on="1"/>
        <pt x="307" y="704" on="0"/>
        <pt x="225" y="632" on="0"/>
      </contour>
    </TTGlyph>
    <TTGlyph name="Icircumflex" xMin="-33" yMin="0" xMax="318" yMax="967">
      <contour>
        <pt x="84" y="740" on="1"/>
        <pt x="198" y="740" on="1"/>
        <pt x="198" y="0" on="1"/>
        <pt x="84" y="0" on="1"/>
      </contour>
      <contour>
        <pt x="-33" y="892" on="1"/>
        <pt x="142" y="967" on="1"/>
        <pt x="318" y="892" on="1"/>
        <pt x="318" y="808" on="1"/>
        <pt x="142" y="883" on="1"/>
        <pt x="-33" y="808" on="1"/>
      </contour>
    </TTGlyph>
    <TTGlyph name="Icircumflex.sc" xMin="-22" yMin="0" xMax="294" yMax="764">
      <contour>
        <pt x="80" y="577" on="1"/>
        <pt x="189" y="577" on="1"/>
        <pt x="189" y="0" on="1"/>
        <pt x="80" y="0" on="1"/>
      </contour>
      <contour>
        <pt x="-22" y="704" on="1"/>
        <pt x="135" y="764" on="1"/>
        <pt x="294" y="704" on="1"/>
        <pt x="294" y="628" on="1"/>
        <pt x="136" y="688" on="1"/>
        <pt x="-22" y="628" on="1"/>
      </contour>
    </TTGlyph>
    <TTGlyph name="Idblgrave" xMin="-81" yMin="0" xMax="275" yMax="953">
      <contour>
        <pt x="84" y="740" on="1"/>
        <pt x="198" y="740" on="1"/>
        <pt x="198" y="0" on="1"/>
        <pt x="84" y="0" on="1"/>
      </contour>
      <contour>
        <pt x="22" y="796" on="1"/>
        <pt x="-81" y="953" on="1"/>
        <pt x="30" y="953" on="1"/>
        <pt x="101" y="809" on="1"/>
      </contour>
      <contour>
        <pt x="196" y="796" on="1"/>
        <pt x="92" y="953" on="1"/>
        <pt x="203" y="953" on="1"/>
        <pt x="275" y="809" on="1"/>
      </contour>
    </TTGlyph>
    <TTGlyph name="Idblgrave.sc" xMin="-67" yMin="0" xMax="259" yMax="753">
      <contour>
        <pt x="80" y="577" on="1"/>
        <pt x="189" y="577" on="1"/>
        <pt x="189" y="0" on="1"/>
        <pt x="80" y="0" on="1"/>
      </contour>
      <contour>
        <pt x="26" y="623" on="1"/>
        <pt x="-67" y="753" on="1"/>
        <pt x="39" y="753" on="1"/>
        <pt x="101" y="632" on="1"/>
      </contour>
      <contour>
        <pt x="184" y="623" on="1"/>
        <pt x="91" y="753" on="1"/>
        <pt x="197" y="753" on="1"/>
        <pt x="259" y="632" on="1"/>
      </contour>
    </TTGlyph>
    <TTGlyph name="Idieresis" xMin="-59" yMin="0" xMax="345" yMax="947">
      <contour>
        <pt x="84" y="740" on="1"/>
        <pt x="198" y="740" on="1"/>
        <pt x="198" y="0" on="1"/>
        <pt x="84" y="0" on="1"/>
      </contour>
      <contour>
        <pt x="8" y="815" on="1"/>
        <pt x="-27" y="815" on="0"/>
        <pt x="-59" y="846" on="0"/>
        <pt x="-59" y="881" on="1"/>
        <pt x="-59" y="916" on="0"/>
        <pt x="-27" y="947" on="0"/>
        <pt x="8" y="947" on="1"/>
        <pt x="76" y="947" on="0"/>
        <pt x="76" y="881" on="1"/>
        <pt x="76" y="846" on="0"/>
        <pt x="42" y="815" on="0"/>
      </contour>
      <contour>
        <pt x="277" y="815" on="1"/>
        <pt x="242" y="815" on="0"/>
        <pt x="209" y="846" on="0"/>
        <pt x="209" y="881" on="1"/>
        <pt x="209" y="916" on="0"/>
        <pt x="242" y="947" on="0"/>
        <pt x="277" y="947" on="1"/>
        <pt x="345" y="947" on="0"/>
        <pt x="345" y="881" on="1"/>
        <pt x="345" y="846" on="0"/>
        <pt x="311" y="815" on="0"/>
      </contour>
    </TTGlyph>
    <TTGlyph name="Idieresis.sc" xMin="-47" yMin="0" xMax="320" yMax="753">
      <contour>
        <pt x="80" y="577" on="1"/>
        <pt x="189" y="577" on="1"/>
        <pt x="189" y="0" on="1"/>
        <pt x="80" y="0" on="1"/>
      </contour>
      <contour>
        <pt x="16" y="633" on="1"/>
        <pt x="-17" y="633" on="0"/>
        <pt x="-47" y="661" on="0"/>
        <pt x="-47" y="693" on="1"/>
        <pt x="-47" y="725" on="0"/>
        <pt x="-17" y="753" on="0"/>
        <pt x="16" y="753" on="1"/>
        <pt x="79" y="753" on="0"/>
        <pt x="79" y="693" on="1"/>
        <pt x="79" y="661" on="0"/>
        <pt x="48" y="633" on="0"/>
      </contour>
      <contour>
        <pt x="256" y="633" on="1"/>
        <pt x="224" y="633" on="0"/>
        <pt x="194" y="661" on="0"/>
        <pt x="194" y="693" on="1"/>
        <pt x="194" y="725" on="0"/>
        <pt x="224" y="753" on="0"/>
        <pt x="256" y="753" on="1"/>
        <pt x="320" y="753" on="0"/>
        <pt x="320" y="693" on="1"/>
        <pt x="320" y="661" on="0"/>
        <pt x="288" y="633" on="0"/>
      </contour>
    </TTGlyph>
    <TTGlyph name="Idotaccent" xMin="74" yMin="0" xMax="210" yMax="942">
      <contour>
        <pt x="84" y="740" on="1"/>
        <pt x="198" y="740" on="1"/>
        <pt x="198" y="0" on="1"/>
        <pt x="84" y="0" on="1"/>
      </contour>
      <contour>
        <pt x="142" y="810" on="1"/>
        <pt x="107" y="810" on="0"/>
        <pt x="74" y="841" on="0"/>
        <pt x="74" y="876" on="1"/>
        <pt x="74" y="911" on="0"/>
        <pt x="107" y="942" on="0"/>
        <pt x="142" y="942" on="1"/>
        <pt x="177" y="942" on="0"/>
        <pt x="210" y="911" on="0"/>
        <pt x="210" y="876" on="1"/>
        <pt x="210" y="810" on="0"/>
      </contour>
    </TTGlyph>
    <TTGlyph name="Idotaccent.sc" xMin="72" yMin="0" xMax="199" yMax="750">
      <contour>
        <pt x="80" y="577" on="1"/>
        <pt x="189" y="577" on="1"/>
        <pt x="189" y="0" on="1"/>
        <pt x="80" y="0" on="1"/>
      </contour>
      <contour>
        <pt x="135" y="630" on="1"/>
        <pt x="102" y="630" on="0"/>
        <pt x="72" y="658" on="0"/>
        <pt x="72" y="690" on="1"/>
        <pt x="72" y="722" on="0"/>
        <pt x="102" y="750" on="0"/>
        <pt x="135" y="750" on="1"/>
        <pt x="199" y="750" on="0"/>
        <pt x="199" y="690" on="1"/>
        <pt x="199" y="630" on="0"/>
      </contour>
    </TTGlyph>
    <TTGlyph name="Idotbelow" xMin="83" yMin="-189" xMax="200" yMax="740">
      <contour>
        <pt x="84" y="740" on="1"/>
        <pt x="198" y="740" on="1"/>
        <pt x="198" y="0" on="1"/>
        <pt x="84" y="0" on="1"/>
      </contour>
      <contour>
        <pt x="141" y="-189" on="1"/>
        <pt x="112" y="-189" on="0"/>
        <pt x="83" y="-163" on="0"/>
        <pt x="83" y="-133" on="1"/>
        <pt x="83" y="-103" on="0"/>
        <pt x="112" y="-76" on="0"/>
        <pt x="141" y="-76" on="1"/>
        <pt x="171" y="-76" on="0"/>
        <pt x="200" y="-103" on="0"/>
        <pt x="200" y="-133" on="1"/>
        <pt x="200" y="-163" on="0"/>
        <pt x="171" y="-189" on="0"/>
      </contour>
    </TTGlyph>
    <TTGlyph name="Idotbelow.sc" xMin="80" yMin="-153" xMax="189" yMax="577">
      <contour>
        <pt x="80" y="577" on="1"/>
        <pt x="189" y="577" on="1"/>
        <pt x="189" y="0" on="1"/>
        <pt x="80" y="0" on="1"/>
      </contour>
      <contour>
        <pt x="135" y="-153" on="1"/>
        <pt x="108" y="-153" on="0"/>
        <pt x="82" y="-130" on="0"/>
        <pt x="82" y="-104" on="1"/>
        <pt x="82" y="-54" on="0"/>
        <pt x="135" y="-54" on="1"/>
        <pt x="189" y="-54" on="0"/>
        <pt x="189" y="-104" on="1"/>
        <pt x="189" y="-153" on="0"/>
      </contour>
    </TTGlyph>
    <TTGlyph name="Igrave" xMin="3" yMin="0" xMax="198" yMax="957">
      <contour>
        <pt x="84" y="740" on="1"/>
        <pt x="198" y="740" on="1"/>
        <pt x="198" y="0" on="1"/>
        <pt x="84" y="0" on="1"/>
      </contour>
      <contour>
        <pt x="107" y="801" on="1"/>
        <pt x="3" y="957" on="1"/>
        <pt x="120" y="957" on="1"/>
        <pt x="192" y="813" on="1"/>
      </contour>
    </TTGlyph>
    <TTGlyph name="Igrave.sc" xMin="10" yMin="0" xMax="189" yMax="756">
      <contour>
        <pt x="80" y="577" on="1"/>
        <pt x="189" y="577" on="1"/>
        <pt x="189" y="0" on="1"/>
        <pt x="80" y="0" on="1"/>
      </contour>
      <contour>
        <pt x="103" y="626" on="1"/>
        <pt x="10" y="756" on="1"/>
        <pt x="121" y="756" on="1"/>
        <pt x="183" y="635" on="1"/>
      </contour>
    </TTGlyph>
    <TTGlyph name="Iinvertedbreve" xMin="-49" yMin="0" xMax="335" yMax="974">
      <contour>
        <pt x="84" y="740" on="1"/>
        <pt x="198" y="740" on="1"/>
        <pt x="198" y="0" on="1"/>
        <pt x="84" y="0" on="1"/>
      </contour>
      <contour>
        <pt x="254" y="818" on="1"/>
        <pt x="254" y="863" on="0"/>
        <pt x="200" y="913" on="0"/>
        <pt x="143" y="913" on="1"/>
        <pt x="85" y="913" on="0"/>
        <pt x="30" y="863" on="0"/>
        <pt x="30" y="818" on="1"/>
        <pt x="-49" y="818" on="1"/>
        <pt x="-49" y="888" on="0"/>
        <pt x="43" y="974" on="0"/>
        <pt x="143" y="974" on="1"/>
        <pt x="242" y="974" on="0"/>
        <pt x="335" y="889" on="0"/>
        <pt x="335" y="818" on="1"/>
      </contour>
    </TTGlyph>
    <TTGlyph name="Iinvertedbreve.sc" xMin="-37" yMin="0" xMax="309" yMax="767">
      <contour>
        <pt x="80" y="577" on="1"/>
        <pt x="189" y="577" on="1"/>
        <pt x="189" y="0" on="1"/>
        <pt x="80" y="0" on="1"/>
      </contour>
      <contour>
        <pt x="234" y="638" on="1"/>
        <pt x="234" y="673" on="0"/>
        <pt x="188" y="711" on="0"/>
        <pt x="136" y="711" on="1"/>
        <pt x="85" y="711" on="0"/>
        <pt x="38" y="673" on="0"/>
        <pt x="38" y="638" on="1"/>
        <pt x="-37" y="638" on="1"/>
        <pt x="-37" y="666" on="0"/>
        <pt x="-17" y="713" on="0"/>
        <pt x="25" y="747" on="0"/>
        <pt x="91" y="767" on="0"/>
        <pt x="136" y="767" on="1"/>
        <pt x="227" y="767" on="0"/>
        <pt x="309" y="695" on="0"/>
        <pt x="309" y="638" on="1"/>
      </contour>
    </TTGlyph>
    <TTGlyph name="Imacron" xMin="-28" yMin="0" xMax="314" yMax="921">
      <contour>
        <pt x="84" y="740" on="1"/>
        <pt x="198" y="740" on="1"/>
        <pt x="198" y="0" on="1"/>
        <pt x="84" y="0" on="1"/>
      </contour>
      <contour>
        <pt x="-28" y="921" on="1"/>
        <pt x="314" y="921" on="1"/>
        <pt x="314" y="841" on="1"/>
        <pt x="-28" y="841" on="1"/>
      </contour>
    </TTGlyph>
    <TTGlyph name="Imacron.sc" xMin="-19" yMin="0" xMax="292" yMax="730">
      <contour>
        <pt x="80" y="577" on="1"/>
        <pt x="189" y="577" on="1"/>
        <pt x="189" y="0" on="1"/>
        <pt x="80" y="0" on="1"/>
      </contour>
      <contour>
        <pt x="-19" y="730" on="1"/>
        <pt x="292" y="730" on="1"/>
        <pt x="292" y="656" on="1"/>
        <pt x="-19" y="656" on="1"/>
      </contour>
    </TTGlyph>
    <TTGlyph name="Iogonek" xMin="4" yMin="-220" xMax="198" yMax="740">
      <contour>
        <pt x="84" y="740" on="1"/>
        <pt x="198" y="740" on="1"/>
        <pt x="198" y="-15" on="1"/>
        <pt x="135" y="-44" on="0"/>
        <pt x="81" y="-97" on="0"/>
        <pt x="81" y="-123" on="1"/>
        <pt x="81" y="-154" on="0"/>
        <pt x="123" y="-154" on="1"/>
        <pt x="137" y="-154" on="0"/>
        <pt x="179" y="-148" on="0"/>
        <pt x="198" y="-143" on="1"/>
        <pt x="198" y="-208" on="1"/>
        <pt x="165" y="-220" on="0"/>
        <pt x="121" y="-220" on="1"/>
        <pt x="4" y="-220" on="0"/>
        <pt x="4" y="-133" on="1"/>
        <pt x="4" y="-96" on="0"/>
        <pt x="52" y="-33" on="0"/>
        <pt x="106" y="0" on="1"/>
        <pt x="84" y="0" on="1"/>
      </contour>
    </TTGlyph>
    <TTGlyph name="Iogonek.sc" xMin="12" yMin="-172" xMax="189" yMax="577">
      <contour>
        <pt x="80" y="577" on="1"/>
        <pt x="189" y="577" on="1"/>
        <pt x="189" y="-10" on="1"/>
        <pt x="130" y="-32" on="0"/>
        <pt x="85" y="-68" on="0"/>
        <pt x="85" y="-88" on="1"/>
        <pt x="85" y="-102" on="0"/>
        <pt x="103" y="-112" on="0"/>
        <pt x="121" y="-112" on="1"/>
        <pt x="135" y="-112" on="0"/>
        <pt x="174" y="-106" on="0"/>
        <pt x="188" y="-102" on="1"/>
        <pt x="188" y="-162" on="1"/>
        <pt x="172" y="-167" on="0"/>
        <pt x="136" y="-172" on="0"/>
        <pt x="117" y="-172" on="1"/>
        <pt x="12" y="-172" on="0"/>
        <pt x="12" y="-102" on="1"/>
        <pt x="12" y="-73" on="0"/>
        <pt x="52" y="-25" on="0"/>
        <pt x="97" y="0" on="1"/>
        <pt x="80" y="0" on="1"/>
      </contour>
    </TTGlyph>
    <TTGlyph name="Itilde" xMin="-63" yMin="0" xMax="364" yMax="948">
      <contour>
        <pt x="84" y="740" on="1"/>
        <pt x="198" y="740" on="1"/>
        <pt x="198" y="0" on="1"/>
        <pt x="84" y="0" on="1"/>
      </contour>
      <contour>
        <pt x="-63" y="860" on="1"/>
        <pt x="-34" y="903" on="0"/>
        <pt x="38" y="948" on="0"/>
        <pt x="72" y="948" on="1"/>
        <pt x="96" y="948" on="0"/>
        <pt x="140" y="935" on="0"/>
        <pt x="183" y="920" on="0"/>
        <pt x="226" y="907" on="0"/>
        <pt x="249" y="907" on="1"/>
        <pt x="272" y="907" on="0"/>
        <pt x="316" y="925" on="0"/>
        <pt x="340" y="945" on="1"/>
        <pt x="364" y="917" on="1"/>
        <pt x="335" y="874" on="0"/>
        <pt x="261" y="829" on="0"/>
        <pt x="225" y="829" on="1"/>
        <pt x="202" y="829" on="0"/>
        <pt x="159" y="841" on="0"/>
        <pt x="116" y="856" on="0"/>
        <pt x="73" y="868" on="0"/>
        <pt x="51" y="868" on="1"/>
        <pt x="28" y="868" on="0"/>
        <pt x="-16" y="852" on="0"/>
        <pt x="-39" y="832" on="1"/>
      </contour>
    </TTGlyph>
    <TTGlyph name="Itilde.sc" xMin="-51" yMin="0" xMax="334" yMax="750">
      <contour>
        <pt x="80" y="577" on="1"/>
        <pt x="189" y="577" on="1"/>
        <pt x="189" y="0" on="1"/>
        <pt x="80" y="0" on="1"/>
      </contour>
      <contour>
        <pt x="-51" y="671" on="1"/>
        <pt x="-24" y="710" on="0"/>
        <pt x="40" y="750" on="0"/>
        <pt x="72" y="750" on="1"/>
        <pt x="94" y="750" on="0"/>
        <pt x="133" y="740" on="0"/>
        <pt x="172" y="729" on="0"/>
        <pt x="211" y="719" on="0"/>
        <pt x="232" y="719" on="1"/>
        <pt x="252" y="719" on="0"/>
        <pt x="291" y="732" on="0"/>
        <pt x="313" y="748" on="1"/>
        <pt x="334" y="725" on="1"/>
        <pt x="308" y="686" on="0"/>
        <pt x="240" y="645" on="0"/>
        <pt x="208" y="645" on="1"/>
        <pt x="187" y="645" on="0"/>
        <pt x="148" y="655" on="0"/>
        <pt x="109" y="666" on="0"/>
        <pt x="70" y="676" on="0"/>
        <pt x="50" y="676" on="1"/>
        <pt x="30" y="676" on="0"/>
        <pt x="-8" y="664" on="0"/>
        <pt x="-30" y="647" on="1"/>
      </contour>
    </TTGlyph>
    <TTGlyph name="J" xMin="8" yMin="-194" xMax="200" yMax="740">
      <contour>
        <pt x="8" y="-159" on="1"/>
        <pt x="30" y="-110" on="0"/>
        <pt x="60" y="-28" on="0"/>
        <pt x="78" y="53" on="0"/>
        <pt x="86" y="138" on="0"/>
        <pt x="86" y="189" on="1"/>
        <pt x="86" y="740" on="1"/>
        <pt x="200" y="740" on="1"/>
        <pt x="200" y="181" on="1"/>
        <pt x="200" y="130" on="0"/>
        <pt x="188" y="42" on="0"/>
        <pt x="161" y="-45" on="0"/>
        <pt x="116" y="-139" on="0"/>
        <pt x="83" y="-194" on="1"/>
      </contour>
    </TTGlyph>
    <TTGlyph name="J.sc" xMin="14" yMin="-156" xMax="191" yMax="577">
      <contour>
        <pt x="14" y="-124" on="1"/>
        <pt x="33" y="-86" on="0"/>
        <pt x="60" y="-21" on="0"/>
        <pt x="75" y="43" on="0"/>
        <pt x="82" y="109" on="0"/>
        <pt x="82" y="149" on="1"/>
        <pt x="82" y="577" on="1"/>
        <pt x="191" y="577" on="1"/>
        <pt x="191" y="142" on="1"/>
        <pt x="191" y="102" on="0"/>
        <pt x="180" y="32" on="0"/>
        <pt x="156" y="-37" on="0"/>
        <pt x="116" y="-112" on="0"/>
        <pt x="86" y="-156" on="1"/>
      </contour>
    </TTGlyph>
    <TTGlyph name="Jcircumflex" xMin="-31" yMin="-194" xMax="320" yMax="967">
      <contour>
        <pt x="8" y="-159" on="1"/>
        <pt x="30" y="-110" on="0"/>
        <pt x="60" y="-28" on="0"/>
        <pt x="78" y="53" on="0"/>
        <pt x="86" y="138" on="0"/>
        <pt x="86" y="189" on="1"/>
        <pt x="86" y="740" on="1"/>
        <pt x="200" y="740" on="1"/>
        <pt x="200" y="181" on="1"/>
        <pt x="200" y="130" on="0"/>
        <pt x="188" y="42" on="0"/>
        <pt x="161" y="-45" on="0"/>
        <pt x="116" y="-139" on="0"/>
        <pt x="83" y="-194" on="1"/>
      </contour>
      <contour>
        <pt x="-31" y="892" on="1"/>
        <pt x="144" y="967" on="1"/>
        <pt x="320" y="892" on="1"/>
        <pt x="320" y="808" on="1"/>
        <pt x="144" y="883" on="1"/>
        <pt x="-31" y="808" on="1"/>
      </contour>
    </TTGlyph>
    <TTGlyph name="Jcircumflex.sc" xMin="-21" yMin="-156" xMax="295" yMax="764">
      <contour>
        <pt x="13" y="-124" on="1"/>
        <pt x="32" y="-86" on="0"/>
        <pt x="59" y="-21" on="0"/>
        <pt x="74" y="43" on="0"/>
        <pt x="81" y="109" on="0"/>
        <pt x="81" y="149" on="1"/>
        <pt x="81" y="577" on="1"/>
        <pt x="190" y="577" on="1"/>
        <pt x="190" y="142" on="1"/>
        <pt x="190" y="102" on="0"/>
        <pt x="179" y="32" on="0"/>
        <pt x="155" y="-37" on="0"/>
        <pt x="115" y="-112" on="0"/>
        <pt x="85" y="-156" on="1"/>
      </contour>
      <contour>
        <pt x="-21" y="704" on="1"/>
        <pt x="136" y="764" on="1"/>
        <pt x="295" y="704" on="1"/>
        <pt x="295" y="628" on="1"/>
        <pt x="137" y="688" on="1"/>
        <pt x="-21" y="628" on="1"/>
      </contour>
    </TTGlyph>
    <TTGlyph name="K" xMin="84" yMin="0" xMax="685" yMax="740">
      <contour>
        <pt x="84" y="740" on="1"/>
        <pt x="198" y="740" on="1"/>
        <pt x="198" y="422" on="1"/>
        <pt x="328" y="422" on="1"/>
        <pt x="538" y="740" on="1"/>
        <pt x="667" y="740" on="1"/>
        <pt x="444" y="411" on="1"/>
        <pt x="406" y="386" on="1"/>
        <pt x="406" y="379" on="1"/>
        <pt x="447" y="353" on="1"/>
        <pt x="685" y="0" on="1"/>
        <pt x="556" y="0" on="1"/>
        <pt x="338" y="330" on="1"/>
        <pt x="198" y="330" on="1"/>
        <pt x="198" y="0" on="1"/>
        <pt x="84" y="0" on="1"/>
      </contour>
    </TTGlyph>
    <TTGlyph name="K.sc" xMin="80" yMin="0" xMax="618" yMax="577">
      <contour>
        <pt x="80" y="577" on="1"/>
        <pt x="189" y="577" on="1"/>
        <pt x="189" y="335" on="1"/>
        <pt x="301" y="335" on="1"/>
        <pt x="480" y="577" on="1"/>
        <pt x="603" y="577" on="1"/>
        <pt x="411" y="322" on="1"/>
        <pt x="375" y="302" on="1"/>
        <pt x="375" y="296" on="1"/>
        <pt x="413" y="276" on="1"/>
        <pt x="618" y="0" on="1"/>
        <pt x="495" y="0" on="1"/>
        <pt x="309" y="249" on="1"/>
        <pt x="189" y="249" on="1"/>
        <pt x="189" y="0" on="1"/>
        <pt x="80" y="0" on="1"/>
      </contour>
    </TTGlyph>
    <TTGlyph name="Kcommaaccent" xMin="84" yMin="-220" xMax="685" yMax="740">
      <contour>
        <pt x="291" y="-69" on="1"/>
        <pt x="407" y="-69" on="1"/>
        <pt x="333" y="-220" on="1"/>
        <pt x="244" y="-220" on="1"/>
      </contour>
      <contour>
        <pt x="84" y="740" on="1"/>
        <pt x="198" y="740" on="1"/>
        <pt x="198" y="422" on="1"/>
        <pt x="328" y="422" on="1"/>
        <pt x="538" y="740" on="1"/>
        <pt x="667" y="740" on="1"/>
        <pt x="444" y="411" on="1"/>
        <pt x="406" y="386" on="1"/>
        <pt x="406" y="379" on="1"/>
        <pt x="447" y="353" on="1"/>
        <pt x="685" y="0" on="1"/>
        <pt x="556" y="0" on="1"/>
        <pt x="338" y="330" on="1"/>
        <pt x="198" y="330" on="1"/>
        <pt x="198" y="0" on="1"/>
        <pt x="84" y="0" on="1"/>
      </contour>
    </TTGlyph>
    <TTGlyph name="Kcommaaccent.sc" xMin="80" yMin="-172" xMax="618" yMax="577">
      <contour>
        <pt x="80" y="577" on="1"/>
        <pt x="189" y="577" on="1"/>
        <pt x="189" y="335" on="1"/>
        <pt x="301" y="335" on="1"/>
        <pt x="480" y="577" on="1"/>
        <pt x="603" y="577" on="1"/>
        <pt x="411" y="322" on="1"/>
        <pt x="375" y="302" on="1"/>
        <pt x="375" y="296" on="1"/>
        <pt x="413" y="276" on="1"/>
        <pt x="618" y="0" on="1"/>
        <pt x="495" y="0" on="1"/>
        <pt x="309" y="249" on="1"/>
        <pt x="189" y="249" on="1"/>
        <pt x="189" y="0" on="1"/>
        <pt x="80" y="0" on="1"/>
      </contour>
      <contour>
        <pt x="274" y="-55" on="1"/>
        <pt x="386" y="-55" on="1"/>
        <pt x="319" y="-172" on="1"/>
        <pt x="235" y="-172" on="1"/>
      </contour>
    </TTGlyph>
    <TTGlyph name="L" xMin="84" yMin="0" xMax="529" yMax="740">
      <contour>
        <pt x="84" y="740" on="1"/>
        <pt x="198" y="740" on="1"/>
        <pt x="198" y="91" on="1"/>
        <pt x="529" y="91" on="1"/>
        <pt x="529" y="0" on="1"/>
        <pt x="84" y="0" on="1"/>
      </contour>
    </TTGlyph>
    <TTGlyph name="L.sc" xMin="80" yMin="0" xMax="481" yMax="577">
      <contour>
        <pt x="80" y="577" on="1"/>
        <pt x="189" y="577" on="1"/>
        <pt x="189" y="86" on="1"/>
        <pt x="481" y="86" on="1"/>
        <pt x="481" y="0" on="1"/>
        <pt x="80" y="0" on="1"/>
      </contour>
    </TTGlyph>
    <TTGlyph name="Lacute" xMin="84" yMin="0" xMax="529" yMax="957">
      <contour>
        <pt x="99" y="808" on="1"/>
        <pt x="171" y="957" on="1"/>
        <pt x="288" y="957" on="1"/>
        <pt x="184" y="801" on="1"/>
      </contour>
      <contour>
        <pt x="84" y="740" on="1"/>
        <pt x="198" y="740" on="1"/>
        <pt x="198" y="91" on="1"/>
        <pt x="529" y="91" on="1"/>
        <pt x="529" y="0" on="1"/>
        <pt x="84" y="0" on="1"/>
      </contour>
    </TTGlyph>
    <TTGlyph name="Lacute.sc" xMin="80" yMin="0" xMax="481" yMax="756">
      <contour>
        <pt x="80" y="577" on="1"/>
        <pt x="189" y="577" on="1"/>
        <pt x="189" y="86" on="1"/>
        <pt x="481" y="86" on="1"/>
        <pt x="481" y="0" on="1"/>
        <pt x="80" y="0" on="1"/>
      </contour>
      <contour>
        <pt x="95" y="632" on="1"/>
        <pt x="157" y="756" on="1"/>
        <pt x="268" y="756" on="1"/>
        <pt x="175" y="626" on="1"/>
      </contour>
    </TTGlyph>
    <TTGlyph name="Lcaron" xMin="84" yMin="0" xMax="529" yMax="768">
      <contour>
        <pt x="399" y="768" on="1"/>
        <pt x="490" y="768" on="1"/>
        <pt x="457" y="540" on="1"/>
        <pt x="399" y="540" on="1"/>
      </contour>
      <contour>
        <pt x="84" y="740" on="1"/>
        <pt x="198" y="740" on="1"/>
        <pt x="198" y="91" on="1"/>
        <pt x="529" y="91" on="1"/>
        <pt x="529" y="0" on="1"/>
        <pt x="84" y="0" on="1"/>
      </contour>
    </TTGlyph>
    <TTGlyph name="Lcaron.sc" xMin="80" yMin="0" xMax="481" yMax="606">
      <contour>
        <pt x="80" y="577" on="1"/>
        <pt x="189" y="577" on="1"/>
        <pt x="189" y="86" on="1"/>
        <pt x="481" y="86" on="1"/>
        <pt x="481" y="0" on="1"/>
        <pt x="80" y="0" on="1"/>
      </contour>
      <contour>
        <pt x="360" y="606" on="1"/>
        <pt x="447" y="606" on="1"/>
        <pt x="416" y="429" on="1"/>
        <pt x="360" y="429" on="1"/>
      </contour>
    </TTGlyph>
    <TTGlyph name="Lcommaaccent" xMin="84" yMin="-220" xMax="529" yMax="740">
      <contour>
        <pt x="247" y="-69" on="1"/>
        <pt x="363" y="-69" on="1"/>
        <pt x="289" y="-220" on="1"/>
        <pt x="200" y="-220" on="1"/>
      </contour>
      <contour>
        <pt x="84" y="740" on="1"/>
        <pt x="198" y="740" on="1"/>
        <pt x="198" y="91" on="1"/>
        <pt x="529" y="91" on="1"/>
        <pt x="529" y="0" on="1"/>
        <pt x="84" y="0" on="1"/>
      </contour>
    </TTGlyph>
    <TTGlyph name="Lcommaaccent.sc" xMin="80" yMin="-172" xMax="481" yMax="577">
      <contour>
        <pt x="80" y="577" on="1"/>
        <pt x="189" y="577" on="1"/>
        <pt x="189" y="86" on="1"/>
        <pt x="481" y="86" on="1"/>
        <pt x="481" y="0" on="1"/>
        <pt x="80" y="0" on="1"/>
      </contour>
      <contour>
        <pt x="220" y="-55" on="1"/>
        <pt x="331" y="-55" on="1"/>
        <pt x="265" y="-172" on="1"/>
        <pt x="180" y="-172" on="1"/>
      </contour>
    </TTGlyph>
    <TTGlyph name="Ldot" xMin="84" yMin="0" xMax="529" yMax="740">
      <contour>
        <pt x="84" y="740" on="1"/>
        <pt x="198" y="740" on="1"/>
        <pt x="198" y="91" on="1"/>
        <pt x="529" y="91" on="1"/>
        <pt x="529" y="0" on="1"/>
        <pt x="84" y="0" on="1"/>
      </contour>
      <contour>
        <pt x="444" y="315" on="1"/>
        <pt x="409" y="315" on="0"/>
        <pt x="376" y="346" on="0"/>
        <pt x="376" y="381" on="1"/>
        <pt x="376" y="416" on="0"/>
        <pt x="409" y="448" on="0"/>
        <pt x="444" y="448" on="1"/>
        <pt x="512" y="448" on="0"/>
        <pt x="512" y="381" on="1"/>
        <pt x="512" y="315" on="0"/>
      </contour>
    </TTGlyph>
    <TTGlyph name="Ldot.sc" xMin="80" yMin="0" xMax="481" yMax="577">
      <contour>
        <pt x="80" y="577" on="1"/>
        <pt x="189" y="577" on="1"/>
        <pt x="189" y="86" on="1"/>
        <pt x="481" y="86" on="1"/>
        <pt x="481" y="0" on="1"/>
        <pt x="80" y="0" on="1"/>
      </contour>
      <contour>
        <pt x="407" y="240" on="1"/>
        <pt x="374" y="240" on="0"/>
        <pt x="343" y="269" on="0"/>
        <pt x="343" y="301" on="1"/>
        <pt x="343" y="361" on="0"/>
        <pt x="407" y="361" on="1"/>
        <pt x="470" y="361" on="0"/>
        <pt x="470" y="301" on="1"/>
        <pt x="470" y="240" on="0"/>
      </contour>
    </TTGlyph>
    <TTGlyph name="Lslash" xMin="14" yMin="0" xMax="550" yMax="740">
      <contour>
        <pt x="14" y="315" on="1"/>
        <pt x="105" y="368" on="1"/>
        <pt x="105" y="740" on="1"/>
        <pt x="219" y="740" on="1"/>
        <pt x="219" y="434" on="1"/>
        <pt x="371" y="522" on="1"/>
        <pt x="371" y="432" on="1"/>
        <pt x="219" y="344" on="1"/>
        <pt x="219" y="91" on="1"/>
        <pt x="550" y="91" on="1"/>
        <pt x="550" y="0" on="1"/>
        <pt x="105" y="0" on="1"/>
        <pt x="105" y="278" on="1"/>
        <pt x="14" y="225" on="1"/>
      </contour>
    </TTGlyph>
    <TTGlyph name="Lslash.sc" xMin="19" yMin="0" xMax="498" yMax="577">
      <contour>
        <pt x="19" y="258" on="1"/>
        <pt x="97" y="300" on="1"/>
        <pt x="97" y="577" on="1"/>
        <pt x="206" y="577" on="1"/>
        <pt x="206" y="345" on="1"/>
        <pt x="340" y="416" on="1"/>
        <pt x="340" y="334" on="1"/>
        <pt x="206" y="263" on="1"/>
        <pt x="206" y="86" on="1"/>
        <pt x="498" y="86" on="1"/>
        <pt x="498" y="0" on="1"/>
        <pt x="97" y="0" on="1"/>
        <pt x="97" y="218" on="1"/>
        <pt x="19" y="176" on="1"/>
      </contour>
    </TTGlyph>
    <TTGlyph name="M" xMin="84" yMin="0" xMax="866" yMax="740">
      <contour>
        <pt x="84" y="740" on="1"/>
        <pt x="240" y="740" on="1"/>
        <pt x="414" y="315" on="1"/>
        <pt x="471" y="158" on="1"/>
        <pt x="478" y="158" on="1"/>
        <pt x="536" y="315" on="1"/>
        <pt x="710" y="740" on="1"/>
        <pt x="866" y="740" on="1"/>
        <pt x="866" y="0" on="1"/>
        <pt x="763" y="0" on="1"/>
        <pt x="763" y="603" on="1"/>
        <pt x="756" y="603" on="1"/>
        <pt x="677" y="396" on="1"/>
        <pt x="524" y="30" on="1"/>
        <pt x="425" y="30" on="1"/>
        <pt x="272" y="396" on="1"/>
        <pt x="193" y="603" on="1"/>
        <pt x="187" y="603" on="1"/>
        <pt x="187" y="0" on="1"/>
        <pt x="84" y="0" on="1"/>
      </contour>
    </TTGlyph>
    <TTGlyph name="M.sc" xMin="80" yMin="0" xMax="779" yMax="577">
      <contour>
        <pt x="80" y="577" on="1"/>
        <pt x="223" y="577" on="1"/>
        <pt x="374" y="266" on="1"/>
        <pt x="425" y="146" on="1"/>
        <pt x="432" y="146" on="1"/>
        <pt x="484" y="266" on="1"/>
        <pt x="635" y="577" on="1"/>
        <pt x="779" y="577" on="1"/>
        <pt x="779" y="0" on="1"/>
        <pt x="680" y="0" on="1"/>
        <pt x="680" y="455" on="1"/>
        <pt x="674" y="455" on="1"/>
        <pt x="599" y="287" on="1"/>
        <pt x="475" y="23" on="1"/>
        <pt x="383" y="23" on="1"/>
        <pt x="258" y="287" on="1"/>
        <pt x="184" y="455" on="1"/>
        <pt x="178" y="455" on="1"/>
        <pt x="178" y="0" on="1"/>
        <pt x="80" y="0" on="1"/>
      </contour>
    </TTGlyph>
    <TTGlyph name="N" xMin="84" yMin="0" xMax="707" yMax="740">
      <contour>
        <pt x="84" y="740" on="1"/>
        <pt x="179" y="740" on="1"/>
        <pt x="539" y="259" on="1"/>
        <pt x="597" y="172" on="1"/>
        <pt x="605" y="172" on="1"/>
        <pt x="605" y="740" on="1"/>
        <pt x="707" y="740" on="1"/>
        <pt x="707" y="0" on="1"/>
        <pt x="611" y="0" on="1"/>
        <pt x="252" y="479" on="1"/>
        <pt x="192" y="568" on="1"/>
        <pt x="186" y="567" on="1"/>
        <pt x="186" y="0" on="1"/>
        <pt x="84" y="0" on="1"/>
      </contour>
    </TTGlyph>
    <TTGlyph name="N.sc" xMin="80" yMin="0" xMax="626" yMax="577">
      <contour>
        <pt x="80" y="577" on="1"/>
        <pt x="167" y="577" on="1"/>
        <pt x="468" y="223" on="1"/>
        <pt x="522" y="155" on="1"/>
        <pt x="528" y="155" on="1"/>
        <pt x="528" y="577" on="1"/>
        <pt x="626" y="577" on="1"/>
        <pt x="626" y="0" on="1"/>
        <pt x="539" y="0" on="1"/>
        <pt x="240" y="351" on="1"/>
        <pt x="184" y="421" on="1"/>
        <pt x="177" y="421" on="1"/>
        <pt x="177" y="0" on="1"/>
        <pt x="80" y="0" on="1"/>
      </contour>
    </TTGlyph>
    <TTGlyph name="Nacute" xMin="84" yMin="0" xMax="707" yMax="957">
      <contour>
        <pt x="336" y="808" on="1"/>
        <pt x="408" y="957" on="1"/>
        <pt x="525" y="957" on="1"/>
        <pt x="421" y="801" on="1"/>
      </contour>
      <contour>
        <pt x="84" y="740" on="1"/>
        <pt x="179" y="740" on="1"/>
        <pt x="539" y="259" on="1"/>
        <pt x="597" y="172" on="1"/>
        <pt x="605" y="172" on="1"/>
        <pt x="605" y="740" on="1"/>
        <pt x="707" y="740" on="1"/>
        <pt x="707" y="0" on="1"/>
        <pt x="611" y="0" on="1"/>
        <pt x="252" y="479" on="1"/>
        <pt x="192" y="568" on="1"/>
        <pt x="186" y="567" on="1"/>
        <pt x="186" y="0" on="1"/>
        <pt x="84" y="0" on="1"/>
      </contour>
    </TTGlyph>
    <TTGlyph name="Nacute.sc" xMin="80" yMin="0" xMax="626" yMax="756">
      <contour>
        <pt x="80" y="577" on="1"/>
        <pt x="167" y="577" on="1"/>
        <pt x="468" y="223" on="1"/>
        <pt x="522" y="155" on="1"/>
        <pt x="528" y="155" on="1"/>
        <pt x="528" y="577" on="1"/>
        <pt x="626" y="577" on="1"/>
        <pt x="626" y="0" on="1"/>
        <pt x="539" y="0" on="1"/>
        <pt x="240" y="351" on="1"/>
        <pt x="184" y="421" on="1"/>
        <pt x="177" y="421" on="1"/>
        <pt x="177" y="0" on="1"/>
        <pt x="80" y="0" on="1"/>
      </contour>
      <contour>
        <pt x="298" y="632" on="1"/>
        <pt x="360" y="756" on="1"/>
        <pt x="471" y="756" on="1"/>
        <pt x="378" y="626" on="1"/>
      </contour>
    </TTGlyph>
    <TTGlyph name="Ncaron" xMin="84" yMin="0" xMax="707" yMax="964">
      <contour>
        <pt x="222" y="964" on="1"/>
        <pt x="397" y="889" on="1"/>
        <pt x="572" y="964" on="1"/>
        <pt x="572" y="880" on="1"/>
        <pt x="396" y="805" on="1"/>
        <pt x="222" y="880" on="1"/>
      </contour>
      <contour>
        <pt x="84" y="740" on="1"/>
        <pt x="179" y="740" on="1"/>
        <pt x="539" y="259" on="1"/>
        <pt x="597" y="172" on="1"/>
        <pt x="605" y="172" on="1"/>
        <pt x="605" y="740" on="1"/>
        <pt x="707" y="740" on="1"/>
        <pt x="707" y="0" on="1"/>
        <pt x="611" y="0" on="1"/>
        <pt x="252" y="479" on="1"/>
        <pt x="192" y="568" on="1"/>
        <pt x="186" y="567" on="1"/>
        <pt x="186" y="0" on="1"/>
        <pt x="84" y="0" on="1"/>
      </contour>
    </TTGlyph>
    <TTGlyph name="Ncaron.sc" xMin="80" yMin="0" xMax="626" yMax="762">
      <contour>
        <pt x="80" y="577" on="1"/>
        <pt x="167" y="577" on="1"/>
        <pt x="468" y="223" on="1"/>
        <pt x="522" y="155" on="1"/>
        <pt x="528" y="155" on="1"/>
        <pt x="528" y="577" on="1"/>
        <pt x="626" y="577" on="1"/>
        <pt x="626" y="0" on="1"/>
        <pt x="539" y="0" on="1"/>
        <pt x="240" y="351" on="1"/>
        <pt x="184" y="421" on="1"/>
        <pt x="177" y="421" on="1"/>
        <pt x="177" y="0" on="1"/>
        <pt x="80" y="0" on="1"/>
      </contour>
      <contour>
        <pt x="196" y="687" on="1"/>
        <pt x="196" y="762" on="1"/>
        <pt x="354" y="703" on="1"/>
        <pt x="513" y="762" on="1"/>
        <pt x="513" y="687" on="1"/>
        <pt x="354" y="627" on="1"/>
      </contour>
    </TTGlyph>
    <TTGlyph name="Ncommaaccent" xMin="84" yMin="-220" xMax="707" yMax="740">
      <contour>
        <pt x="352" y="-69" on="1"/>
        <pt x="468" y="-69" on="1"/>
        <pt x="394" y="-220" on="1"/>
        <pt x="305" y="-220" on="1"/>
      </contour>
      <contour>
        <pt x="84" y="740" on="1"/>
        <pt x="179" y="740" on="1"/>
        <pt x="539" y="259" on="1"/>
        <pt x="597" y="172" on="1"/>
        <pt x="605" y="172" on="1"/>
        <pt x="605" y="740" on="1"/>
        <pt x="707" y="740" on="1"/>
        <pt x="707" y="0" on="1"/>
        <pt x="611" y="0" on="1"/>
        <pt x="252" y="479" on="1"/>
        <pt x="192" y="568" on="1"/>
        <pt x="186" y="567" on="1"/>
        <pt x="186" y="0" on="1"/>
        <pt x="84" y="0" on="1"/>
      </contour>
    </TTGlyph>
    <TTGlyph name="Ncommaaccent.sc" xMin="80" yMin="-172" xMax="626" yMax="577">
      <contour>
        <pt x="80" y="577" on="1"/>
        <pt x="167" y="577" on="1"/>
        <pt x="468" y="223" on="1"/>
        <pt x="522" y="155" on="1"/>
        <pt x="528" y="155" on="1"/>
        <pt x="528" y="577" on="1"/>
        <pt x="626" y="577" on="1"/>
        <pt x="626" y="0" on="1"/>
        <pt x="539" y="0" on="1"/>
        <pt x="240" y="351" on="1"/>
        <pt x="184" y="421" on="1"/>
        <pt x="177" y="421" on="1"/>
        <pt x="177" y="0" on="1"/>
        <pt x="80" y="0" on="1"/>
      </contour>
      <contour>
        <pt x="309" y="-55" on="1"/>
        <pt x="420" y="-55" on="1"/>
        <pt x="353" y="-172" on="1"/>
        <pt x="269" y="-172" on="1"/>
      </contour>
    </TTGlyph>
    <TTGlyph name="Ndotaccent" xMin="84" yMin="0" xMax="707" yMax="942">
      <contour>
        <pt x="395" y="810" on="1"/>
        <pt x="360" y="810" on="0"/>
        <pt x="327" y="841" on="0"/>
        <pt x="327" y="876" on="1"/>
        <pt x="327" y="911" on="0"/>
        <pt x="360" y="942" on="0"/>
        <pt x="395" y="942" on="1"/>
        <pt x="430" y="942" on="0"/>
        <pt x="463" y="911" on="0"/>
        <pt x="463" y="876" on="1"/>
        <pt x="463" y="810" on="0"/>
      </contour>
      <contour>
        <pt x="84" y="740" on="1"/>
        <pt x="179" y="740" on="1"/>
        <pt x="539" y="259" on="1"/>
        <pt x="597" y="172" on="1"/>
        <pt x="605" y="172" on="1"/>
        <pt x="605" y="740" on="1"/>
        <pt x="707" y="740" on="1"/>
        <pt x="707" y="0" on="1"/>
        <pt x="611" y="0" on="1"/>
        <pt x="252" y="479" on="1"/>
        <pt x="192" y="568" on="1"/>
        <pt x="186" y="567" on="1"/>
        <pt x="186" y="0" on="1"/>
        <pt x="84" y="0" on="1"/>
      </contour>
    </TTGlyph>
    <TTGlyph name="Ndotaccent.sc" xMin="80" yMin="0" xMax="626" yMax="750">
      <contour>
        <pt x="80" y="577" on="1"/>
        <pt x="167" y="577" on="1"/>
        <pt x="468" y="223" on="1"/>
        <pt x="522" y="155" on="1"/>
        <pt x="528" y="155" on="1"/>
        <pt x="528" y="577" on="1"/>
        <pt x="626" y="577" on="1"/>
        <pt x="626" y="0" on="1"/>
        <pt x="539" y="0" on="1"/>
        <pt x="240" y="351" on="1"/>
        <pt x="184" y="421" on="1"/>
        <pt x="177" y="421" on="1"/>
        <pt x="177" y="0" on="1"/>
        <pt x="80" y="0" on="1"/>
      </contour>
      <contour>
        <pt x="354" y="630" on="1"/>
        <pt x="321" y="630" on="0"/>
        <pt x="290" y="658" on="0"/>
        <pt x="290" y="690" on="1"/>
        <pt x="290" y="722" on="0"/>
        <pt x="321" y="750" on="0"/>
        <pt x="354" y="750" on="1"/>
        <pt x="417" y="750" on="0"/>
        <pt x="417" y="690" on="1"/>
        <pt x="417" y="630" on="0"/>
      </contour>
    </TTGlyph>
    <TTGlyph name="Ntilde" xMin="84" yMin="0" xMax="707" yMax="948">
      <contour>
        <pt x="190" y="860" on="1"/>
        <pt x="219" y="903" on="0"/>
        <pt x="291" y="948" on="0"/>
        <pt x="325" y="948" on="1"/>
        <pt x="349" y="948" on="0"/>
        <pt x="393" y="935" on="0"/>
        <pt x="436" y="920" on="0"/>
        <pt x="479" y="907" on="0"/>
        <pt x="502" y="907" on="1"/>
        <pt x="525" y="907" on="0"/>
        <pt x="569" y="925" on="0"/>
        <pt x="593" y="945" on="1"/>
        <pt x="617" y="917" on="1"/>
        <pt x="588" y="874" on="0"/>
        <pt x="514" y="829" on="0"/>
        <pt x="478" y="829" on="1"/>
        <pt x="455" y="829" on="0"/>
        <pt x="412" y="841" on="0"/>
        <pt x="369" y="856" on="0"/>
        <pt x="326" y="868" on="0"/>
        <pt x="304" y="868" on="1"/>
        <pt x="281" y="868" on="0"/>
        <pt x="237" y="852" on="0"/>
        <pt x="214" y="832" on="1"/>
      </contour>
      <contour>
        <pt x="84" y="740" on="1"/>
        <pt x="179" y="740" on="1"/>
        <pt x="539" y="259" on="1"/>
        <pt x="597" y="172" on="1"/>
        <pt x="605" y="172" on="1"/>
        <pt x="605" y="740" on="1"/>
        <pt x="707" y="740" on="1"/>
        <pt x="707" y="0" on="1"/>
        <pt x="611" y="0" on="1"/>
        <pt x="252" y="479" on="1"/>
        <pt x="192" y="568" on="1"/>
        <pt x="186" y="567" on="1"/>
        <pt x="186" y="0" on="1"/>
        <pt x="84" y="0" on="1"/>
      </contour>
    </TTGlyph>
    <TTGlyph name="Ntilde.sc" xMin="80" yMin="0" xMax="626" yMax="750">
      <contour>
        <pt x="168" y="671" on="1"/>
        <pt x="194" y="710" on="0"/>
        <pt x="259" y="750" on="0"/>
        <pt x="291" y="750" on="1"/>
        <pt x="313" y="750" on="0"/>
        <pt x="352" y="740" on="0"/>
        <pt x="391" y="729" on="0"/>
        <pt x="429" y="719" on="0"/>
        <pt x="450" y="719" on="1"/>
        <pt x="470" y="719" on="0"/>
        <pt x="509" y="732" on="0"/>
        <pt x="532" y="748" on="1"/>
        <pt x="552" y="725" on="1"/>
        <pt x="526" y="686" on="0"/>
        <pt x="459" y="645" on="0"/>
        <pt x="427" y="645" on="1"/>
        <pt x="406" y="645" on="0"/>
        <pt x="366" y="655" on="0"/>
        <pt x="327" y="666" on="0"/>
        <pt x="288" y="676" on="0"/>
        <pt x="269" y="676" on="1"/>
        <pt x="248" y="676" on="0"/>
        <pt x="210" y="664" on="0"/>
        <pt x="188" y="647" on="1"/>
      </contour>
      <contour>
        <pt x="80" y="577" on="1"/>
        <pt x="167" y="577" on="1"/>
        <pt x="468" y="223" on="1"/>
        <pt x="522" y="155" on="1"/>
        <pt x="528" y="155" on="1"/>
        <pt x="528" y="577" on="1"/>
        <pt x="626" y="577" on="1"/>
        <pt x="626" y="0" on="1"/>
        <pt x="539" y="0" on="1"/>
        <pt x="240" y="351" on="1"/>
        <pt x="184" y="421" on="1"/>
        <pt x="177" y="421" on="1"/>
        <pt x="177" y="0" on="1"/>
        <pt x="80" y="0" on="1"/>
      </contour>
    </TTGlyph>
    <TTGlyph name="O" xMin="48" yMin="-10" xMax="713" yMax="750">
      <contour>
        <pt x="380" y="-10" on="1"/>
        <pt x="219" y="-10" on="0"/>
        <pt x="48" y="181" on="0"/>
        <pt x="48" y="369" on="1"/>
        <pt x="48" y="557" on="0"/>
        <pt x="219" y="750" on="0"/>
        <pt x="380" y="750" on="1"/>
        <pt x="541" y="750" on="0"/>
        <pt x="713" y="557" on="0"/>
        <pt x="713" y="369" on="1"/>
        <pt x="713" y="182" on="0"/>
        <pt x="541" y="-10" on="0"/>
      </contour>
      <contour>
        <pt x="380" y="84" on="1"/>
        <pt x="492" y="84" on="0"/>
        <pt x="597" y="221" on="0"/>
        <pt x="597" y="369" on="1"/>
        <pt x="597" y="517" on="0"/>
        <pt x="490" y="656" on="0"/>
        <pt x="380" y="656" on="1"/>
        <pt x="269" y="656" on="0"/>
        <pt x="164" y="519" on="0"/>
        <pt x="164" y="369" on="1"/>
        <pt x="164" y="221" on="0"/>
        <pt x="269" y="84" on="0"/>
      </contour>
    </TTGlyph>
    <TTGlyph name="O.sc" xMin="47" yMin="-8" xMax="641" yMax="585">
      <contour>
        <pt x="345" y="-8" on="1"/>
        <pt x="200" y="-8" on="0"/>
        <pt x="47" y="142" on="0"/>
        <pt x="47" y="288" on="1"/>
        <pt x="47" y="434" on="0"/>
        <pt x="199" y="585" on="0"/>
        <pt x="345" y="585" on="1"/>
        <pt x="488" y="585" on="0"/>
        <pt x="641" y="434" on="0"/>
        <pt x="641" y="288" on="1"/>
        <pt x="641" y="142" on="0"/>
        <pt x="488" y="-8" on="0"/>
      </contour>
      <contour>
        <pt x="345" y="80" on="1"/>
        <pt x="444" y="80" on="0"/>
        <pt x="531" y="179" on="0"/>
        <pt x="531" y="288" on="1"/>
        <pt x="531" y="397" on="0"/>
        <pt x="442" y="497" on="0"/>
        <pt x="345" y="497" on="1"/>
        <pt x="246" y="497" on="0"/>
        <pt x="158" y="397" on="0"/>
        <pt x="158" y="288" on="1"/>
        <pt x="158" y="179" on="0"/>
        <pt x="246" y="80" on="0"/>
      </contour>
    </TTGlyph>
    <TTGlyph name="OE" xMin="47" yMin="-9" xMax="971" yMax="749">
      <contour>
        <pt x="384" y="-9" on="1"/>
        <pt x="221" y="-9" on="0"/>
        <pt x="47" y="183" on="0"/>
        <pt x="47" y="369" on="1"/>
        <pt x="47" y="556" on="0"/>
        <pt x="222" y="749" on="0"/>
        <pt x="384" y="749" on="1"/>
        <pt x="416" y="749" on="0"/>
        <pt x="469" y="745" on="0"/>
        <pt x="494" y="740" on="1"/>
        <pt x="962" y="740" on="1"/>
        <pt x="962" y="648" on="1"/>
        <pt x="607" y="648" on="1"/>
        <pt x="607" y="421" on="1"/>
        <pt x="936" y="421" on="1"/>
        <pt x="936" y="330" on="1"/>
        <pt x="607" y="330" on="1"/>
        <pt x="607" y="92" on="1"/>
        <pt x="971" y="92" on="1"/>
        <pt x="971" y="0" on="1"/>
        <pt x="494" y="0" on="1"/>
        <pt x="444" y="-9" on="0"/>
      </contour>
      <contour>
        <pt x="387" y="86" on="1"/>
        <pt x="417" y="86" on="0"/>
        <pt x="470" y="89" on="0"/>
        <pt x="493" y="94" on="1"/>
        <pt x="493" y="645" on="1"/>
        <pt x="470" y="650" on="0"/>
        <pt x="418" y="654" on="0"/>
        <pt x="387" y="654" on="1"/>
        <pt x="271" y="654" on="0"/>
        <pt x="163" y="517" on="0"/>
        <pt x="163" y="369" on="1"/>
        <pt x="163" y="221" on="0"/>
        <pt x="271" y="86" on="0"/>
      </contour>
    </TTGlyph>
</ttFont>
